<mxfile host="app.diagrams.net" modified="2024-01-19T18:21:37.591Z" agent="Mozilla/5.0 (Windows NT 10.0; Win64; x64; rv:121.0) Gecko/20100101 Firefox/121.0" etag="AvUavT6T7KyYVxzDOMJe" version="22.1.21" type="device">
  <diagram name="Page-1" id="cCbh4ghfohuWDUgz17Tk">
    <mxGraphModel dx="3227" dy="730" grid="1" gridSize="10" guides="1" tooltips="1" connect="1" arrows="1" fold="1" page="1" pageScale="1" pageWidth="1169" pageHeight="827" math="0" shadow="0">
      <root>
        <mxCell id="0" />
        <mxCell id="1" parent="0" />
        <mxCell id="7BoHYii4XzET-TcQbKbu-1" value="" style="shape=image;verticalLabelPosition=bottom;labelBackgroundColor=default;verticalAlign=top;aspect=fixed;imageAspect=0;image=data:image/png,iVBORw0KGgoAAAANSUhEUgAAB4AAAAO3CAYAAADCklnAAAAAAXNSR0IArs4c6QAAAARnQU1BAACxjwv8YQUAAAAJcEhZcwAADsIAAA7CARUoSoAAAP+lSURBVHhe7N0JtCTZQR7o6K59316tvagltUAtpFZLQktrAbRDI1nGeNAA9jBjhmWAAZtjj2dldGwOtufYw2Yk2wyMsWTACDxGIMloA4nWaoQEQmihpVZ319a1vdr3ao3+W3FfRWXlW6rqLZkvv++ceyIzMjMyX764GZn3j3vvLV/9mqbHgw8+2Lz0pS9trwEMJp9VAAAAAAAAV7u1XQIAAAAAAAAw5PQABoaWzyoAAAAAAG7E+Ph4s3///ubMmTPtGhhMq1atanbs2NFs2rSpXTM9ATAwtHxWAQAAAABwvY4cOdIcO3asefKTn9yugcH28MMPNxs2bGg2b97crpmaIaABAAAAAAAYGen5e9ddd7XXYPBlf81+O1MCYAAAAAAAAEbG6dOnm1tuuaW9BoMv++upU6faa9MTAAMAAAAAADAy+syOCouKAJg59/73v7/5iZ/4iVJyGQAAAAAAAJgbAmDm1F//63+9efOb39zs3bu3lFzOOgAAAAAAAGD2CYCZMwl6ly1b1vzWb/1WuZzym7/5m2WdEBgAAAAAAABmnwCYOfHe9763Wbp0afP3/t7fa86ePdusXLmylPPnz5d1uS33AQAAAAAAAGaPAJg58Xu/93vNLbfc0txzzz3Nf/7P/7kEvim5/OIXv7jc9s53vrO9NwAAAAAAMJ/uvffe5r777muvNc25c+eaX/3VX23+5//5f27+4T/8h81b3vKWZv/+/e2t8yedyjKd5P/0P/1PzT/9p/+0+eAHP9jectmzn/3s8tpvRjIKWMwEwMyJ+uG5adOm5tZbb72qHD16tNz21a9+tSwBAAAAAID5Vdvs401velPzkpe8pPmlX/qlMnpnyr/5N/+m+dZv/dbm7//9v1/uMx/yXC960YuaX/7lX27e9773lSkmf/Inf7J53vOe1/z8z/98uc/Y2Ni8Bbgf+chHymv5iZ/4ieZ//V//1+Z3f/d3mwsXLrS3wuASADMn/tpf+2sl4P34xz/ePPDAA80TTzxRSi5/9KMfLbflPgAAAAAAwPxLiJrybd/2bc273vWuMqJnAs5PfvKTzZ/+6Z82v/7rv9487WlPK0Hsy1/+8vZRcyfPkefKc+a58xpSEsDmtb3tbW8rQezWrVsnguu5kpD3537u50oAnef63u/93jK66Wc/+9nmH/yDf9D8+Z//eXtPGEwCYObEK1/5yhLy/t//9/9dho3Yt29fKbn8b//tvy235T4AAAAAAMDCSAB86NCh5u/8nb/TvPWtb21uv/329pamhK5vf/vbmx/7sR9rxsfHS0/cuZJt5zle8IIXlOfMc1fPfe5zS/ibHsrpkftXf/VX7S1zJz2hDx482Pyzf/bPmu///u8vr+t1r3td6QX86le/ugyV/dBDD7X3hsEjAGbO/M7v/E5z6dKl5gd+4AfKGP0puZx1uQ0AAAAAAFg46ayV8oUvfKH56Z/+6eYf/aN/1N5yxX//3//3zd133928//3vb/bs2dOunT2nT58u285zZNjpXhme+h//439cLue1zoaphpBOyPyVr3yl+amf+qlmxYoV7dorvv3bv73MQZzObjCoBMDMqd/+7d9ufuRHfqSMyZ+Sy1kHAAAAAAAsnBr+pvzxH/9x85/+038qQ0D387//7/97CU3nonPXr/zKr5Rt/9f/9X/drrna7/3e75XX9eCDD5bXmukmZysI7ifDPD/rWc/qG/5W3/d931eC6xv17ne/u/nZn/3ZEmxnJNXHHnusvWV+pEf1I4880l5jMRIAM+e++Zu/ufnFX/zFUnIZAAAAAABYWJ/+9KfLHLuZ8/dP/uRPSsnlfu67776yfPjhh8tyNn35y18uy7/5N/9mWfbqfX2f+tSnymufK6dOnSo9fKeyZMmSMjfwZO/XVBK+Ll26tPl7f+/vNf/H//F/lI5z27Zta2+dH3n9eQ0sXgJgAAAAAAAA+JoDBw6UMp2EqF//9V/fXpuZ9Fw+fPhw84pXvKJd0zQrV66csrfxXBAAL34CYAAAAAAAACaVXrcJL5/85Ce3a2bPU57ylLL8wAc+UJYL7YUvfGHzmc98pr3W3759+0oP4LVr17ZrZiZDXa9Zs6b58Ic/3K65VgLiX/u1X2t+7ud+rnnrW99ahryu/vzP/7zMk5zb/t2/+3fN+fPn21ua5u1vf3v5P/36r/968x/+w38o6zJMdS5nuOlf+IVfaHbv3l3W57UfO3asDK2d27LN8fHxchuLgwCYOXfp0qX20tWXAQAAAACAwffTP/3TZfn93//9ZTmb/s7f+TslXK7PMR+mmkP427/925v9+/c373rXu9o110pAmxD1Qx/6ULtm5r73e7+3+fznP9/8v//v/1vC3q6LFy+WUDb3+bt/9+82r33ta5vf+I3faG9tms2bNzc/+IM/WG5LUP37v//77S2XPfTQQ833fM/3NG984xvL35gA+Vu+5VvKcNM//uM/3tx+++3lfrntv/yX/9K84Q1vKLdlzuPMtcziccvX/snX7OWZSPulL31pe43F4gtf+EI5oyNnmPQz1Qder+42cjklH3a1ZOiAhL358Fq/fn350IqsP378eLNly5YyxEDW5+yVWvIauq/jel5TNdXf943f+I3l9bE4+KwCAAAAALh5mVO3zvPb61//63/dvPnNby7DFqe36FxICPmHf/iHzQte8ILSG7WfRx55pHnSk57UXrs5mU84ecFk0tM2Ae2zn/3s5vu+7/smcof0/E34G8997nObD37wg81rXvOa5pu/+ZvLuuvxxS9+sXnf+97X3HHHHc3rX//6su6P//iPm40bN5ZAtkqP3u/6ru+6ZsjmvB8JoP/23/7b5frv/M7vNM9//vObO++8s1zPtpYtW9a86EUvKte70ls46/Pckazm//l//p/mh3/4h8t1BlNC+/yPZ0ISNkI+8YlPNEePHp0IbOdSwtxDhw6V51m9enX58EjJ5axLMNwdtmC29P5d3b/14x//eAnAAQAAAACAy/7gD/6g+Vt/62+V3qAf+chHJkbyTEj6N/7G3yjhb0LJuQp/I9vesGFDacf/zu/8zua3fuu3yvq8lvTETcCanrm/+Zu/WdbPtXvvvbf5sR/7seav/uqvmr//9/9+8w/+wT9o/uE//IdlGOUTJ06U8DjB7+te97ry/iW8vl5f93Vf1/zIj/xIc+HChfK+RzKMDIX9r/7Vv5ooGZr53Llz5fb3v//9za/+6q827373u8tr60qnu3TIqw4ePNjs2rWrvXa1dJRLXlMlXL6RDnkMLj2AR8jb3va28gG+bt26ds3cyofL1q1by+VuD+Do3jZf8vfnwzgHKhYHn1UAAAAAADcvQWR6jNYOVXWZCCk9fzPn7HxIT+DuXMA1wsoyvWR/5md+ply/WdP1AO76yle+0hw5cqTkGwmG//RP/7T0tk3ecP/995d26gzFnPcpofD1evTRR0vPzgTf+dszz3K/uZYT+KbXcILwKkM81x7A//E//scy3HOGiY4E08lh0lO5V3oAJ1Tftm1bu6Zp3vKWtzT/w//wP7TXGER6ALPg9u7de1XQWnsAV7kt95lP3d7AAAAAAADAZenlm96lGe44IWLKf/ff/Xcl3Jyv8DfSEzjPmefOa3j5y1/evOlNbyqvbbbC3+jTN3JSd911VwlRE/5GLifoTehbOyllrt73vOc9JaCbSp73k5/8ZHvtsvR6rnPzZhjuDCvddfr06bI8e/Zss3z58nI58rjaMziy7dp7OxJwf/SjHy09lntlhNbufes0nSweS75Wcd7UXp6Qsw3qGOEsHhmz/ulPf3qzYsWKds3c2LNnT3mObk/jM2fOlA+P+twZiiAfTBm6oDskwVz6zGc+U4ZUWLlyZbuGYeezCgAAAABgdqxZs6Z58Ytf3Hzbt31bKZkjdq7zhH7ynHnu+jruueee8tpmUzqo3Xbbbe2165dQOMMoZyjm5B0JqjM/cIZyTk/gyaST2sc+9rHmHe94Rwl6k1t8/dd//cQ8vatWrWrWrl3b/PZv/3aZ3ze5TrKW9NTdvn17mas5j3/44YfL9f379zfPec5zymOzrczpW7OZDPGc+/x//9//V4aozrbSnp7t18s1nzl//nzpFZ05mHWkG1zXs98aAnqEZAjkv/bX/tqcBq75sMkHRW8ol6A3Nm3aVJZVArx8mOdDaK7l788QEZlHgMXBZxUAAAAAANfreobSnUp6/aakd3DC2QceeKB51ate1d4Ks8sQ0EzqeoY1uF4JeU+dOtW3R2aGEugOJ1DlvidPnmyOHz/ergEAAAAAABh8GQr6jW98Y/OpT32qDFkt/GVQCIBHyFyGv+n1e/jw4Ul78k41fvzY2Fhz4MCBso25lL9/Lt8DAAAAAABgtKRHZuYuzgisMCgEwCNmrgLQ3bt3l/HkM3Z8P1MFwBmSOY/NNgAAAAAAAIAbJwDmpj322GMlWN61a1e75vrlsdmGEBgAAAAAAABunACYm3L69Onm3LlzzZOf/OR2TX+33HJLKVPJNs6ePVu2CQAAAAAAAFw/ATA35eDBg83GjRubW2+deleaSQCcbWQ46GwTAAAAAAAAuH4CYG5YndN3bGysLKeydOnSUqazdevWspxsvmAAAAAAAABgcgJgbtj4+HizadOm9trUVqxYUcpMZJsnTpxorwEAAAAAAAAzJQDmhmVI5/Xr17fXpnY9AXC2eenSpfYaAAAAAADA7Fm9erWRSBkq2V+z386UAJgbtmbNmvbS9GY6BHR1PdsGAAAAAACYqe3btzdf+cpXhMAMheyn2V+z387ULV/9mvbyhAcffLB56Utf2l5jsXjrW9/avP71r282btzYrrkxH/nIR5rPfOYzzV133dW89rWvbddO7qGHHmo+/OEPl8sveclLmrvvvrtcnsof/MEflJ35Wc96VvPiF7+4XXtzZuvvZ3D4rAIAAAAA4EYcOnSoefzxx5vTp0+3a2Awpedvwt+xsbF2zfQEwCPkZgPQT3ziE83HPvax0pP31lsvdx7PUM0Jde+7775yvde//Jf/slmyZEkZLjqyu+UxP/ZjP1au9/r0pz9dwuJsP4/JfVNe9KIXNS94wQvae90YAfDi47MKAAAAAADgaoaAZkb27dvXfPzjH2+2bNnSfNM3fVPzt/7W3yrLXE8ofPLkyfaeV7z5zW9uli9f3jzpSU9q/pv/5r8pJZezLrf1yjayre5zvOxlLyvX89x5DQAAAAAAAMDkBMDMyB/90R+Vnr/33HNPs2LFiub9739/WT7jGc9oli1b1nzgAx9o73nZ/v37y/qUBx54oHnve99bSi7X9blPV7aZ9fU53ve+95Xl05/+9PLceQ0AAAAAAADA5ATATGt8fLw5fvx4Gco5QWyGZD5z5kyZdDqBbdbnPl3pyZthnHNb5P4pkXW5LffpOnbsWFmf58i2M+5+nqsOIX306NHm8OHD7b0BAAAAAACAXgJgZiQBbEqC3g0bNjSvfOUrm/Xr1zdHjhwp6+ucwP3s2bOn+ZZv+ZZScrnqM/10kZB3zZo1zctf/vJm3bp15TkizwMAAAAAAABMTgDMtDZt2lRC3/TKffjhh5svfelLpWdulrme9Rs3bmzvfdmLXvSisv7ixYtlaOcsu5fz+Be+8IXtvS/Lc2T9l7/85bLtCxcuXPUcCZwzHzAAAAAAAADQnwCYGUmP34SzKQlid+zY0Wzbtq2EtAl0X/3qV7f3vCy357Zabr/99lLOnz8/sW7Xrl3tvS97xSteUdbnPukBfOedd5bwOevyHOkRDAAAAAAAAExOAMyMjI2NNS9+8YtLGPuJT3yi+ZVf+ZXmgx/8YLme9StXrmzvecWP/MiPlDD37NmzzVve8pZSzp07V8qP/uiPtve6IsM9p1dwbs/8wL/0S7/UPPjgg2UbWb9z5872ngAAAAAAAEA/AmBm7L777mt++Id/uHnSk57ULFmypCx/8Ad/sPmGb/iG9h7X+h//x/+xedWrXlXC3bVr15bLP/7jP97eeq3nPve55THPfvazm6VLlzb33ntvuX/vcNEAAAAAAADAtW756te0lyek1+VLX/rS9hqLxVvf+tbm9a9//TXz9Y6KUf/7FyOfVQAAAAAAAFfTA5jrkuGYMw9w5NyBDAENAAAAAAAADAYBMDN27NixEv7eeuutZZ7euHjxYnPq1KlyGQAAAAAAAFhYAuARc8stt7SXrs/hw4fLnLzpAZxtpOdvXSYQHh8fb+8JAAAAAAAALBQBMNN6/PHHS8i7ZMmSdk1z1TDQWZ+ewAcOHCjrAAAAAAAAgIUhAB4h6bGbIHem0rt39+7dzYoVK5pNmzY1J06caDZs2FBuqwFwrmdo6K1btzbLly9v9uzZM3HboMnff6M9oAEAAAAAAGAYCIBHyPUEoBnSOT1/E+xu3LixOXLkSLNq1ar21ss9f6usz+25X+6/f//+5ujRo+2tAAAAAAAAwHwRAI+YmQTA+/bta86ePdvcfvvtpffv6dOnmyeeeKJZu3Zte4+rA+Csz+25X3oB33bbbeXxCYIHid6/AAAAAAAALHYC4BEyXQ/g9Prdu3dv6cm7c+fOdm3TnDx5shkbG2uv9ZfbT5061V5rmh07dpThobO9bBcAAAAAAACYewLgEdMvAE7v3fT6Ta/eXbt2XTXU88GDB5tt27a116aWEDj3r7KdbC/bTxCcOYUXUv6+bs9lAAAAAAAAWGxu+WqfROzBBx9sXvrSl7bXWCx+/dd/vfTMrb15z5w50xw7dqy5dOlSs27dulKWLFlSbktYe/jw4ebWW29ttm/fXtZV586daw4dOlS2kyGiuzJvcALfzAWcbWX3yvXjx4+XnsTZ3vr160s43A1key939V6fSm/AXa9nGx//+Meb7/3e7202bdpU1jH8fFYBAAAAAABcTQ/gEXL//fc3mzdvbi5evFgC3CNHjpRANj18M1xzLkcC26NHj5blli1byrJbooayvbdl+1lm21lGtpthpRMK53KGhM7t2Uau16Gpu5e7+q2bTL/wuK57wQteUP5OAAAAAAAAWKz0AB5B+/fvL8v0Bu6n9v6d7PbINqa7PeHxsmXL2jVXy5DTCXWn2gZMx2cVAAAAAADA1fQAHiEZgvnRRx9tVq5cOWXwmnl8pwtma+/eyeTx3fmAe+3cubO8jt27dzenT59u1wIAAAAAAAA3QwA8IjI3b4Z9TjCb4Zgnk/skmJ3OdAFwZDvZ3mTyOjK/cO4z1f0AAAAAAACAmREAj4D0+j179mxz1113NcuXL2/XXitDP587d67M4zsbsp1sL9udTIaIvvPOO8vr27NnT7sWAAAYdplW5sMf/nDz5je/ufm7f/fvNr/4i7/YfOhDH2oOHDjQ3gMAAACYC+YAXuQyDHPC1TvuuKNdM7n0Ek6v3BUrVrRrJrd3795m165d7bXJJQA+duxYs23btnbN5LLN9BqerQCaxc9nFQDAYPjiF7/YvO1tb2vOnDnT5CfmrbfeWkpGDsr1LHP9lltuKaWuy+VVq1Y1b3zjG5tv+IZvaLcGAAAA3AwB8CJ2/PjxMr/udPP5VjkTfyZBbczVffft29esX7++WbNmTbsGJuezCgBg4bzzne8sPXoT4tagNyP8LF26tFmyZEkpuS3LKve5dOnSRLl48WIZMSjra2h8//33N294wxvaRwAAAADXSwC8iGXItS1btrTXppewePXq1e21qaVX74YNG9prU7ue7cb4+HizadOm9hpMzmcVAMD8y3ew3/3d3y0BbsLdjCCUqWZqSQBcg+Da67fKz8+ExQl+8/jz58+XADjLlDqFTB776le/unnNa17TPhIAAACYKQHwIpUGlTSazFQaWdJIM1NzfX+YCZ9VAADz5zOf+UzzG7/xGyWorWFvpnBJAJxhnHM9l/M7pAbBtVdvlfC3BsApNfSty0xfk2GkayCcx/7tv/23m2c961ntFgAAAIDpCIAXmY985CPNX/zFXzS33XZb8+3f/u3t2sk99NBDzcc//vES0L7whS9s7rnnnvaWyWX/+OxnP1vm6JrJfvK5z32uPEcC4DzH3Xff3d4yuXe9613Nnj17ynO8+MUvbtfC1XxWAQDMj5/6qZ9qTp06VULdhL0Z4ScllxMC15LgN9/7U9I7OAFudwjo9PpNAJxlfoOk1LA3IwfVADiX6zL3zXZ/5md+pt0KAAAAMBUB8CKRgDUljSu1gSUNJfk/PvvZzy7Xe/3Lf/kvy33rkGzZFdIY86M/+qPleq9PfepTJWCuw7jV+yegfc5zntPe62q/9Eu/NHH/yGPyun7sx36sXO/1Z3/2Z2X/6/4NKQmOU6DLZxUAwNzKSZk/+7M/W77Hr1mzpoS+a9euLctcr8Fvev4m9M3lfJdPYFt/m9Tv9lG/36ck9M0yIXCC39oTOKFvwua6rCW/PX7oh36oefrTn95uDQAAAOhnyZu+pr084dFHH23uvPPO9hqDbt++fc173vOeZvPmzc0LXvCC5pu/+ZubjRs3NidOnCg9fNOrNw0wXW9+85tLA03+z294wxtKSHz06NHSsPKJT3yief7zn9/e87KTJ0827373u8vcvAli63McP368+dKXvlQaYXqf4y1veUvpIdDvORJW9z5H1r/zne+c+Dte9rKXNevXry/Pkb8j21m3bl17b/BZBQAwl97xjnc0v/Zrv1bC3Xwv37BhQ/kNkJLLWZfv57UncO7X7QVcg+H8JsgyJ4bWnsEptXdwThbN+pT62Pq4XM79UhIAf/jDHy4hsRAYAAAAJndlMiaG1h/90R+VhpEEvWkoed/73leWz3jGM8r697///e09L9u/f39Zn/LAAw80733ve8tjcjnr0tCS+3RlG7kt28y285jpnqM22NTnSKnPkTLdc9S/I39X1ufvBAAA5t4v/uIvNh/60IdKyJvANydpbtmypRkbGyuXEwAn+M339XxXr9Kjt1ftAdzbE7i7zG3ZTraXUDklz1OfN8u8jryevK5/8S/+RXkcAAAAcC0B8JA7fPhwc+zYsXLWfBpN0oBS58lKAJsz5Y8cOdLe+7KPfexjE2fbR51bK7Iut6WHbleeI+uzzX7PMT4+3t7zsn7PkRL1OXKfrvQO7vccuX/+vtyevxcAAJg7P//zP998+ctfLj14E/RmFKAEsFnmeoaAzm0JbNMrt87lW+fvzehBdV7fixcvlu/0kWWu19vqb4Q8LiXbiPwmyPbzPHm+GgCn5HqGnt69e3fzz/7ZPyv3BwAAAK4mAF5EEvTmTPmXv/zlpVHk0KFDZX0aULq60z5nTq9v+ZZvKSWXqzTk9MrjEsBm2/U5cj3rb+Q5uvfpyuuuz5G/pwbYdR5hAABgbvz2b/928/DDD5fv4+ltm9A3Jb1v63DPtcdv5uzNSZuZeiYnjOak0CxzPdO4JAhOwJv71VID4tyeEzxz/1ryuGyvBsF5njrXcJ6/vpYaQmdEoX//7/99uS8AAABwhQB4yOVs+DTMJLBNQ03m402DSZY5az9n2aeBpCtz+Naz7zPscpbdy7kt9+nKNvIc2Wbvc2T9bD1H1vc+R/6uPEf+zvy9AADA7Pvc5z7XfPCDH+wb/tZevznxM9/T02M3QW6C25ywmZM4s0xJEJySQDf3qaWGvzUwro+tpQbCCYez/fwGyPMlBM7z5zXlteR3Q0peZ0Yu+vSnP93+BQAAAEAIgBeB9JRNqJqGmDSC3HnnnWV4tAyrlnWveMUr2ntetmvXrrI+Jfe5/fbbS6n3T8l9urKNev88xx133DHnz5G/Iw1OWZe/L38nAAAwN375l3+5fA9PT98ErSkJXRO+Zm7eGv7WXr8JbBP01tA3Qe0b3/jG5ju+4zuarVu3lttzv1OnTl0V/ibgTYD7hje8odw/z5eRhWqpj0vJ80WevxsCZ5nH5fW+7W1vK72LAQAAgMtu+WqfcXgffPDB5qUvfWl7jWGQM99T6py7kTPmX/KSlzTPfe5z2zVX+4Vf+IWJ+Xgj908P3B//8R8v13v96Z/+afPhD3+43D/DMWfXmcvnqGpv4d4ew+CzCgBgdvzUT/1U6XWbYLXOuVt7/tYhn2v4W4PcBLu5ntu/+7u/u4S+VUby+cQnPlEen5A298n3+jwmj7/33nube+65p7130zz++OPNr/7qrzbLly+fGPY5AW8eX4edzu+K2vM4IXHtOZxAObf9zM/8TLs1AAAAGG1L3vQ17eUJjz76aOl9yfBI79oEpDnzPWfNP+tZz2r+q//qv2p27tzZ3uNauX/OvD948GBpaEmQ9u3f/u3trdfKtvKY9NCdr+d45jOf2XzXd31X+fugl88qAICblxNJ/+RP/mSi528dYjnh66pVq8rJmd3wtg7fnBA438W+//u/vwS2XY888kjzla98pTy2Pj4BcraRx2X73e/4ea6XvexlJdDNd7ycOBp5bE4+zW+JhLxLly6dOFm0nlya0YKyzbj77rvLEgAAAEaZHsDA0PJZBQBw837iJ36i9LLN9CtjY2OlB3AC2qxL6JqQtfb6zVDP6XGbyz/0Qz9U7t/Phz70oebP//zPJ4ZqTnCboDbbyeOf/vSnN6985Svbe1/tU5/6VPOud72rPC6P7wbS9fXkxNeExTlptPYETm/kn/u5n2u3AgAAAKPLHMAAAAAj6j/8h/9QwtmEvQlcU3I5Jb1uI2Fr5vBNcJsAN714v+mbvmnS8DcyVHNG9Umv3ywT/qbU67l9Ms95znOaV7/61SVkzvPV56zz/OZ1ZU7g+nrrMNEJh9/+9reX+wAAAMAoEwADAACMqAz/vHLlyjKEc0oNfxOmRnfe34SwKc9//vPLcM1TqaFvHaI5wzXX63XdVF7wghc03/qt3zrxnHkNKXk9kdeXEDjhb33dGa76Yx/7WLkdAAAARpkAGAAAYAT9yq/8SplPNwFwAtQaAi9btmxiqOX01E2pIey9997bvOpVr2q3MLk8ts7Rm2Ut3fXTed7zntfcddddV4XAtWdxXl9ed0LfGlrneuYL/vmf//l2CwAAADCaBMAAAAAj6DOf+UwJe2uAWkPUOvRzettm2OUErxkCOkNFf9u3fVu5reuf/tN/2jz++OPttf4S+lZf/epXr7oeuf6mN72pvXbFG9/4xhL65vnr6+j2Au6G1wmD89q/8pWvlNsBAABgVAmAAQAARkyGdE7ommGUa0/aXE4gHN3evwldEwT36/mbOXe/8IUvtNdmLj2Pez366KPNW9/61vbaFT/0Qz808VrqvMK1B3Feb157DYLzN+Tvevjhh8vtAAAAMIoEwAAAACPm937v90pv2QSntSQ8rXP/JmBN0JrQNeFvev8+4xnPKLdVe/fubd773veWYZdze1e/gLfK/VO66v3/+I//uGy3a2xsrLy2hL/19XR7AScErq8/JX/XBz7wgXI7AAAAjCIBMAAAwIj55Cc/WYLSbqlz/0YC1gSuCVuzfPnLX17Wd/3Wb/1WGc454W2C166s6w15q9zWLyDOuvTefde73tWuueI1r3nNRPib11N7AE8WAH/pS18qtwMAAMAoEgADAACMmASpCU4Tlk7W+7cOt5zyrGc9q9xWJfj94he/WB6Tku101QB4sp6+/cLhbCc9iT/96U83J06caNde9nVf93XldeR1X7x4sVzuDYG7QXaGuAYAAIBRJQAGAAAYIZ/5zGdK0JpSQ9Ma5EYNgGvQeuedd5b1XW9729tKiFtD294AOLfVsDfLejm6t3VlO9lewuV3v/vd7dorMsdvXlMNpicLgOvf9od/+IfldgAAABg1AmAAAIAR8uijj06EpjUszeUaAGcY5pQErQlcn/SkJ5X1XRlCOvdP6Rfm9lvX1a8HcB5Tt/nRj360XXvFi1/84olgOiWvMepj6t+Rkm09/vjj5XYAAAAYNQJgAACAEXLs2LGrAtMsewPbGgKnl+2zn/3sdu0Vde7fWibTe1uC38l6AHe3VwPormc+85nl9aTU11Z7Aecx+Tvq35Vy+vTpchsAAACMGgEwAADACMn8uAlKu4FrrkdvwJpl5gjuyvruY1N6ZV2/Xr5T6d3m4cOH21suy/DOCZ5r79+Uqv49NcxOSdANAAAAo0gADAAAMEL2799fwtkamtbwt6sGrAlcez300EMTPXkn6807nX7hcLbT3e6ePXvaW67I60nphr9Vb6h9/Pjx9hYAAAAYLQJgAACAETI+Pj4RsnbD2xoEd8PVfgHwiRMnymOjLmdLd7v9hnDu93p65bEp6ekMAAAAo0gADAAAMEIy7+9UuqFwDWS71q5d216aWSB7Pbrb67ftfq8n+vVinu3XBgAAAMNCAAwAADBCNm/eXMLR6QLSbhDctWPHjml7CU+n32O663L57rvvbq9dLSFw72vLvMRVHpuybt26dg0AAACMFgEwAADACNm4cWMJSBOaXrx4cSI8zbL2pE3AmtKvx219fJ0nuN98vDeiu72UNWvWtLdcUV9XLV15/d3HC4ABAAAYVQJgAACAEbJ+/fprwtIaAkdC4ISrWaY8+uij7S1X1MfU7fTKuoTE16N3mwmau77yla9MvKbu64v6mATaWab0C5ABAABgFAiAAQAARkgNgBOWXrhwYSI0rRKuLl26tJTMF/y5z32uveWKbdu2lcfUwLZX3V53u1GHZ+5dHzXETXnKU57Srr0iryOBb15Xvx7AeVz9u7IUAAMAADCqBMAAAAAjJHMAd4PSukyJhKwJfhO05vJf/MVflPVd3/3d3z3xmO5jq27IW0Pdrn69g7vbev7zn9+uvSKvI69r+fLlZVl7/0YNsusy29i0aVN7KwAAAIwWATAAAMAIuf/++0tAmqD0/PnzpSQ4rRKspiRoTck8wKdPn25vveypT31qGaK59rrNNrqyfrIhoCfrAVy3tWHDhuYlL3lJu/aKvKZuz+T6OvOYvP68hvxNtbzwhS9sHwkAAACjRQAMAAAwQhLorly5soSm586dmwiAa4ibULX2tF2xYkVZvuMd7yi3df2Nv/E3Sviacvbs2XbtZTX87Q2BE/LWoLdX3dZrX/vads0Vb3vb2656PTUAro+prz+vI5dz+9jYWPtoAAAAGC0CYAAAgBHzzGc+swSmKd0QuEqAWsPWLPfs2dPeckWGad6yZUsJdLuPjQS/U/UA7ndbtrN9+/bm5S9/ebvmir1795bXkeA6y7y+qoa/9e9I6TeHMAAAAIwKATAAAMCIef3rXz8RmqbUnrNZF7UXcALXlFz+d//u35Xbuv63/+1/K7dnyOWuhLn9ev9W3cuRxyds/oEf+IF2zRW/8Ru/UULfbgCc1xfp/ZvXnnLmzJmJEPg1r3lNuR0AAABGkQAYAABgxGzatKksE5hmft+UBKi1J28C1oStq1atalavXl2W+/fvb770pS+V26vM1/vTP/3T5T69MtR01623Tv7zM/P6/siP/Ejz5Cc/uV1zWV7TY489Vp5/zZo1ZZkwugbANcSurz+XEy4/7WlPK7cDAADAKBIAAwAAjKB77rmnBKYJTlNqT9puL+AEu93ym7/5m9cMB525djdu3NheuyxhbwLglFyu4W9dXwPcrmc/+9ntpSv+xb/4FxNBdO39m57Ckd6/3fC3/g133XVXuR0AAABGlQAYAABgBP3wD//wROh76tSp5uTJkyVE7fYCTm/bhK9r166dCIHf9ra3ldunkh69eXxKDYDrurqczv/1f/1f5fny3CnpAZwQuD42r7v2Xs7rz/UEwj/5kz9ZbgcAAIBRJQAGAAAYUffdd18JfROgptRAtfYCTm/bGvyuW7euBLEJcH/xF3+x3D6ZPC7hcUou5zEpuZ5lgtyp/Kt/9a9KaJznrM+bx9Tev3l9CXwTWtfXnb8jvZoBAABg1AmAAQAARtQP/MAPNBcvXpwIgU+cODERqGaI5aghcELY9evXl0A2Aey//tf/uvS47Sf3z3DNNQCuJdcT5Ob2yfzyL/9yCXbzXCl53ty/hsZ5XbXXcl5vSn29P/qjP1ruAwAAAKNMAAwAADDCXvva15YANaFrLbmekDWhaoZcTvhaA+ANGzaUZe7zz//5P29+53d+p93SFZkTOKFtSoLfhME1+M2Q0tlGr7e//e3NP/kn/6Q8f26vz1N7/+Z11PA39zl+/PjE602Aff/997dbAgAAgNEmAAYAABhhDzzwQOkFnB61x44dKyXhanrW1hC42ws44e7mzZubTZs2leWePXuaf/Nv/k27tcsyfHPm7K0hcLdkG7m9K71+9+3bV7ad7WbZ7f2b56/hb15XXl9eZ+2xnNu+67u+q90aAAAAjLZbvvo17eUJDz74YPPSl760vQYwmHxWAQDMjkOHDjX/5//5f5ZetzWETbibEDZDPvcOv5zev7WXcIaBToCcXr55XIZ5zrpcT3ibILjbe7c+7pZbbmmeeOKJEuTmeuYG7vYUTqk9f6M+dnx8vDly5EhZHj16tITBP/mTP9k85SlPKfcDAACAUacHMAAAwIgbGxtrvvu7v3tiaOWEsjVc7fYErsNBJxROQJyyZcuWUtJbN/dJqJvLdQjnDPmcknUJg7PM42sv4FzeunVr2UbdZg2du8FxXkfv68rr/Y7v+A7hLwAAAHQIgAEAACgjqzzvec8roWoNWmvYWnvpdkPg9NCtPYZrcJtSh3DObTXsrT16azBcexl3Q9/6mG7P3xr+5vnzOtLzN68p1xMAP/OZz2xe+cpXtn8BAAAAEAJgAAAAiu/7vu9rtm/fXsLVBK0ZZvnw4cNX9bo9f/58uW/m5U3P3vTqTcibADc9fmvwm9sS5mZY51pyvfYGzv1y/27Jbdlu5Hky5HOeN89fh32u4W+e8wd/8AfLfQEAAIArBMAAAABM+F/+l/+lBLEJXut8uymZJzjha8qpU6euCYK7y5TM6ZsS3WUNg+v9aqlz/Wa76fWbnsj1uWupQXTu+4//8T8u9wcAAACuJgAGAADgKv/kn/yT5oEHHpjofZtewAlge3sD1yA4QzX3c/HixWuW9b418I2sy3bOnDlTtlt7HtfSDX9f/vKXN//8n//z9pEAAABAr1u++jXt5QkPPvhgmf8JYJD5rAIAmFtf+tKXmp/92Z8tc/LWoZ6zzBDOKXVu32XLlk3M21t789bSK2FvtyT4TTl37lwZ8jklvX8TLmdZLycc/m//2/+2+cZv/MZ2SwAAAEA/AmBgaPmsAgCYHz/+4z/e3HrrrROBbw2B6/WEvxnWOUFwLd0AuC67we+FCxfKMsFvSoZ97g2A6/Unnnii+YVf+IWyDQAAAGBqAmBgaPmsAgCYPx/72Mea3/iN3yjhbkLfzPdblzUATu/fOvdvSoLfBMdVgtyEvhkKupba+zcBcHr5ptTgN+u/53u+p7n//vvbLQAAAADTEQADQ8tnFQDA/PujP/qj5j/9p/9Uwt4a/GaZYDjrur1/EwL3BsB1HuDaCzjXE/QmCK4hcC6/6lWval73ute1jwQAAABmSgAMDC2fVQAAC+cd73hH8773va+EvjX47fb8rb1/U2655ZYmPz0TANdewP16Aqd8y7d8S/Md3/Ed7bMAAAAA10sADAwtn1UAAIPhQx/6UPP7v//7JchN4NsNgBP+1gC4hsA1AM7l3OeBBx5oXvGKV7RbAwAAAG6GABgYWj6rAAAGVwLe9BB+6KGHmkceeaS54447mrvvvrt55StfWXoMAwAAAHNDAAwMLZ9VAAAAAAAAV7u1XQIAAMCMZKjnuTTX2wcAAIDFTAAMAADAjI2Pjzdnz55tzp0711y4cKEM9Twbsp1sL9tNOXbsWHsLAAAAcD0EwAAAAMxIQtluUJsg+PTp0+2t1+qdcajPDEQTsp0aLJ8/f748x/Hjx9tbAQAAgJkSAAMAADCthLJnzpwpIW5C4FxPWLt27dr2Htc6depUCXbzuCxzfTKrVq2aCH+z/TxPHpPrAAAAwMwJgAEAAJjWoUOHyvKJJ54oAW3K0qVLm1tuuaWs7yeBbg116+XJZFtLliyZ2HaeJ+rzAgAAADMjAAYAAGBKe/bsmQh60zM34WyWGzduLOsmU8PcixcvTlyeyqZNm67afuR59+7dWy4DAAAA0xMAAwAAMKn9+/c3t9566zUB8I4dO8r1qdTQt1umk+32BsApeR0AAADA9ATAAAAA9JXhlxPG9oa/mzdvLtenk/v3lpnI9rshcOT64cOH22sAAADAZATAAAAAXOPo0aNl7t5u+JuyYsWKZtWqVWXddOpjumUmsv08T31M7QWcOYSPHTvW3gsAAADoRwAMAADAVRKynj59eiJ4rUHskiVLmrGxsfZecyvPk+frDYFPnTolBAYAAIApCIABAACYkHA1IWtv+JvL27dvb+81P/J8va8hRQgMAAAAkxMAAwAAUPSGv5HgNXbu3FmW860+b78Q+MSJE+U2AAAA4AoBMAAAACVM7Q1/n3jiibLctWtXWS6U+vw1jK6vMa9ZCAwAAABXEwADAACMuBqkdsPf2uN2ocPfKq+jvqYQAgMAAEB/AmAAAIARNj4+3jf8Te/f2267rVwfFHk9eV39QmBzAgMAAMBlAmAAAIARdfDgwebMmTNDEf5Wk4XAGb760KFDZR0AAACMMgEwAADACNq/f39z4cKF5tZbbx2a8LfqFwLn7zh//nz5uwAAAGCUCYABAABGzJ49e0p4mtC0SqA6DOFvVUPglCp/T/6uvXv3tmsAAABg9AiAAQAARkR6/Cb87dfrN4Yl/K3yevN35PV3ewOn5O+8dOlSWQcAAACjRAAMAAAwAk6ePFnm/O0Nf1OWLl3a7Nq1q6wbNjt37iyvv/4tkb8vf+fjjz9e5gYGAACAUSIABgAAWOQOHz7cHD9+fKJ3bNTAdOXKlc22bdvKumGV15+/ozcETjl27Fj5+wEAAGBUCIABAAAWscyHe/78+b7DPq9fv77ZvHlzWTfs8nfk7+kNgfN35+/ft29fWQcAAACLnQAYAABgETpx4kQJf2tP2KqGv+k1u3bt2nbt4pC/Z2xs7Ko5gaP+/Xk/MhQ2AAAALGYCYAAAgEUmc98mAO6GvzX4TbntttuaZcuWlfWLzfLly8vfV//Wqr4XGQo77w8AAAAsVgJgAACAReLChQvNnj17SvDZO+RzSkLfhKOjIH/n0qVLy3tRewPn/cj7knV5ny5dulTWAwAAwGIiAAYAAFgEjhw50hw8ePCq4Ddqz9/Mj7t169Z27WjIMNf5u7shcNQgOD2Bx8fH27UAAACwOAiAAQAAhty+ffuas2fPXtPrtwaf6Q272Ob7nan83ZMNCZ3368yZM+X9AwAAgMVCAAwAADCk0nt179695XLCzCqhb8qKFSuaXbt2tWtHW0LgvB+9vYHr+5b3UW9gAAAAFgMBMAAAwJDJXL8JLNN7tdvrN2rP3y1btpTCFfU96Q2Bu72B877m/QUAAIBhJQAGAAAYIpnnN6WGllUNfqP2duVaeV/y/kS/3sB5X+t7DAAAAMNIAAwAADAE0jt1z549zcWLFyft9btmzZpm586d7Vqmkvcp79dkvYHzPuf9Pn36dHsLAAAADAcBMAAAwABLOLlv374yP+1kwW/Wp1frhg0b2luYibxfed/y/k0WBB89erTZv39/uxYAAAAGnwAYAABgQGUY4oS/MVn4u3nz5mb79u3tWm5E3r+8j5OFwFmXuYENCw0AAMAwEAADAAAMmPQ6TeA41XDPy5YtK71XV65c2d7Czcj7mPcz7+tkQXD+H/m/5P8DAAAAg0oADAAAMCDOnj07Me9sQsd+wW9k/tqxsbFymdmV9zXvb32/e4PglPx/8n/K/wsAAAAGjQAYAABggSVozFDPR44cKT1NJ+v1u2bNmhJOdm9j9uX93bVrV3m/J+sNnJL/V/5v3dsBAABgoQmAAQAAFtCBAwea/fv3l8uTBb91uOcNGza0tzAf8n7nfV+6dOmkQXAkBDY/MAAAAINCAAwAALAA0ns088leunRp0uC39kQ13PPC2rp1a/k/5P8xWRBc5wceHx9vbwEAAICFIQAGAACYRwkIM3/suXPnSnjYL/jNMqHvjh072lsYBPl/bNmy5ar/U1X/l3UeZ0EwAAAAC0UADAAAMA9q8JuAsPb4reFvDRRTMuxwepsuX7683MZgWbFiRfn/5P9U/2c1CK7/0/x/axB89OjRchsAAADMFwEwAADAHDp27FgJAs+cOdM3+K3h78qVK8t8s2vWrCm3Mdjyf8r/K/+3GgL3C4JPnz5d/v/ZDwAAAGA+CIABAADmwIkTJ0rwd+rUqRIE1vA3usFvevomSNy8eXO5jeGS/1v+f8uWLZv4v3aD4Pq/z36Q/SH7BQAAAMwlATAAAMAsqj1+T548eU3wGzUgTGCY4DBzyjL8MmdzhoZeunTpVSFwdIPgemKAIBgAAIC5IgAGAACYBUeOHGn27t1bhvytoW9v8JsevwkIExQmMGTx2bp1a/n/Llmy5Kr5gaMbBOcEgQTBmRsaAAAAZpMAGAAA4CYcOnSoBL/nzp2bMvhNIJhgMAEhi9+2bdvK/zv7RL8gOCX7xNmzZ8v+k/0IAAAAZoMAGAAA4AYcPHiwBHcXLlyYCH67avCb2xIEJhBk9Gzfvn3SHsGR/Sb7SPaj7E/ZrwAAAOBmCIABAABm6NKlS83+/ftLUHfx4sUpg9+s37FjRwkAIScAZH/IfjFVEJz9KvtX9rPsbwAAAHC9BMAAAADTOH/+fAnlHn/88RLcTRX8pqfnzp07S9iX+0GV/SH7xUyC4KzP/rZv376y/wEAAMBMaY0AAACYxKlTp5o9e/aU+VlrMJdlN/ytwe/SpUsnhnru3g69ahA82dDQdR+rJxBk/8t+mP0RAAAApiMABgAA6DE+Pl56/B4/frwEdL3Bb8K6GvwuW7asBHlbt24tt8H1yAkD2X+yH9UguIbBNQROyX6Y/TH75ZEjR8rtAAAA0I8AGAAAoJWelgnYzp49e1Xo2y/4XblyZQnuxsbGym1wM7IfZX9asWLFVUFwSnc/zH557ty5sp8ePHiw3A4AAABdAmAAAGCkXbp0qdm/f38J1C5cuNC3t28N5HLf1atXl6Bu06ZN5XaYTZs3by7716pVq8r+1t3/ohsEX7x4scwRnJKTFgAAACAEwAAAwEg6ceJEmVf18ccfL+Fav+C3hm8pGzZsaG677bayhLm2cePGif2t7oN1n4xuEBwZFjr7syAYAAAAATAAADAyEqJl2Nz09j158uS08/tGhuZNEJeevzDfst9l/6tDjfcGwVGD4JQaBGceawAAAEaTABgAAFj0zpw5U0LfDPWcYXN7Q9/oBr9Lly4tw/Du3LmzWb58eXsPWDjZD7M/Zr/M/jldEJyewNnn08M9Q0kDAAAwOgTAAADAopXekAnBjh49OhGOdYPfGqClJCRbsWJFCdi2bt1abodBlP0z++natWtLEFzD4Kru49nfc1tC4NSDU6dOtfcAAABgMRMAAwAAi8qFCxdKT98EXufOnZsIfesyauhbg7M63+rmzZvL7TAM1q1bNzE8dPbtqXoFZ3ns2LEyPPThw4fbWwEAAFiMBMAAAMCicOLEiRJuZY7fBGBT9fZNULZs2bKJIXVXrVpV7gPDKMND79ixo+zLmdc6+3cNg6saBKecP3++nCCxb9++MlQ0AAAAi4sAGAAAGFoJuRL4Jsw6efJkCb9qyNUb/Oa+GeY5w+YmKKu9JmEx2bZtW+kVnN7BkwXBNQyODJOeEycyTDoAAACLgwAYAAAYOpnLNKFvhnq+ePHiROBbSw19a/AbCXxrMAaLXR0eesuWLeV6DYJ7w+B6wsSZM2dKncp8wRlGHQAAgOElAAYAAIbGoUOHSkh1/PjxieCqhr9RA9+6XLFiRentm6GeM0wujJrUgTrUeepA6kWtI1U9cSJ1KbelV316BWdYdQAAAIaPABgAABhotWdiSnom1sC3ltqrsRv+btiwoQRemzdvbrcCpDdwegVv3LjxqvqSUtUgOKXOq33gwIFyXwAAAIaDABgAABhImZs0oW/mJq2h1FTB79KlS5sdO3aU4Hf16tXtVoBeqR+1Z3zqTepPDYOrbhCcubMz3HrC4Ay/DgAAwGATAAMAAAPj7Nmzzb59+0rwe+7cuYnQty6jBr4pCabWrl1bwqytW7eW+wEzkzqVelPnxp4sCO6GwceOHStBcIaJ7t4PAACAwaF1BAAAWHDj4+MlVEqv36iBby0JmmpJQLVkyZKrgivg5qQepT7VEylqENwNebtB8MWLFydO1tArGAAAYLAIgAEAgAWR3ruPP/54CZDS87cGSwmZqhr4puT+q1atKr19t23b1ixbtqy9FzBbUq+2b99e6lnqW61/3TC4e3JGSu0VfOjQoXI7AAAAC0sADAAAzKuTJ0+WsCjhb4KlbpDUVcPf2LJlS+mduHHjxnIdmHupb6l3qX81AK5hcHTrbk7eOH/+fKnbKadPny73AQAAYP4JgAEAgHlx+PDhEgwdP358oqdvLVUNmNLbd+XKlaUX4s6dO5sVK1a09wDmW+pf6mLK6tWrSx2tQXBvGFx78h89erTU99R7AAAA5lffALjbAAMwqHxWAcDgO3PmTBniOUHQuXPnrgl+a4BUA6XM7Ts2NlZ6HW7atKndCjAoaq/gqeYKjtTv3J56n/qfz4F8HgAAADD39AAGAABmXe3tOz4+Xq7X4LeqoW9drl+/fmJu3+XLl7f3AgZVnSs4YXDqbw2BJwuCI58HegUDAADMPQEwAAAwK6bq7dtVQ98EvRneOQHS2rVr21uBYZP6W4drT73u1yu4fhboFQwAADD3BMAAAMBNOXLkyJS9faOGvpnbN0M7J/TNUM+99wOGV+pzdwj3Wu+7QXDUIDhqr+B8jgAAADA7BMAAAMB1O3v27ERv31zu19u39gBMALRixYoSCt1+++3NqlWr2nsAi1Xqeep8Sur/dL2C8zlSewWnhzAAAAA37pav/fi6+lTcr/m1X/u15u67726vXdHnrgDzotuYXD300EPN933f97XXAID5cPTo0ebUqVMTx+Z+x+huyJNegKtXry6XGT0J9OrJAdknEgImEGQ0nT59emKkgOwTk31+1OWaNWuajRs3lusAAADMXN8AGAAAoDp//nxz+PDhEt5NFtpEflqkpLdfhoEFATCTOXToUOnpWz9PJguDU5YuXdps3ry5WbZsWXsLAAAAUxEAAwAAfR07dqw5efLkjAKaSE+99NiDSgDMdDKiQEYWiOwn033OrF27ttmwYUO5DAAAQH8CYAAAYEICuvTMu3DhwqRhTNRAZvny5aW372T3Y7QJgJmp7B/57MmIAzP97NmyZUvZvwAAALiaABgAALiuXngp6YG3bt269hboTwDMjcjIA/k8qp9FU30ehdEHAAAAriYABgCAEZa5fc+ePTsRsEwVtGT+zfS4W7JkSXsLTE0AzM24dOlS+YyaakSC2qSR5cqVK8tnFAAAwKgTAAMAwIg5d+5cCVXyU2AmoYo5N7lRAmBmS3oEZ6SC+nk12edWSva5BMEZJhoAAGAUCYABAGBECFCYbwJgZltOYDly5EjZl7JfTfU5lpKh6p3AAgAAjBoBMAAALGIZOjVhycWLF6cMS+py9erVzaZNm8p1uFkCYOZSPtvOnDkz8bk2VRi8YsWKZmxsrF0LAACwuAmAAQBgEUooknBkJsFISnr7rlq1qr0FZocAmPlw+vTpZnx8vFzOvjbV511uSxBsdAMAAGAxEwADAMAicuzYsebkyZNXhSB1Wb/61yAkAUiCkH5hCcwGATDzKfvYoUOHmvPnz1/1GdhVP/9i48aNzZo1a8plAACAxUQADAAAQ66GHhnuOXqDj/qVP8uU9evXl3kxYa4JgFko3ZNhojcM7n4uJgROGAwAALBYCIABAGBI1WFPa+A7VcCR2zK378qVK8s6mA8CYBba2bNny3D49XOw93Myclv3c9Jw+AAAwLATAAMAwJA5evRoc+rUqYkwozfQqF/xs1y6dGmzdevWvqEHzDUBMIMi+990w0NH7peydu3aZsOGDe1aAACA4SIABgCAIZFebOnNNll4Ub/aJ2RL8Lt9+/ZyHRaKAJhBdOLEieb48eNXfZZ2P1Ozr9aS3sCbN29ubwEAABgOAmAAABhwBw8eLPP79oYV9at8XSZcyxDPW7ZsKddhoQmAGWTpDZxewdH9fO3KfpuybNmyMpoCAADAMBAAAwDAAMrX9AS/Fy9evCqYqEFaZFlLhirNkKUwSATADANBMAAAsNgIgAEAYIBcunSpOXDgQAkaukFEDdAiy3p5bGysWb58ebkMg0YAzDA5d+5cc/jw4XJ5us/frNu2bVuzZMmSsh4AAGCQCIABAGAApAdagocaLEwVPCRQSw80wQODTgDMMMqJOBmBIfvrdJ/HWZcTcdIzGAAAYFAIgAEAYAFlbt8MPVqDhKmCBkOPMmwEwAy7mczBnpJ1egQDAACDQgAMAAAL4HqGes4Qz+lhBsNGAMxikRN1MlLDdJ/X2d8TBGcJAACwUATAAAAwjxKAJfidydCiK1eubDZv3lzWwTASALPYHDlypDl79uxVn99d9fM7+/327dv73gcAAGCuCYABAGAe5Gv3448/PqPgd82aNc2GDRvKOhhmAmAWq2PHjjWnTp266vO8q36eL126tPQIBgAAmE8CYAAAmGPp8Xvx4sWrgoIaiEUNCgS/LDYCYBa7fkFwv893QTAAADCfBMAAADBHZhr8rlq1qtm0aVNZB4uJAJhRMT4+3pw5c2baz/tly5Y1W7duLesAAADmigAYAABmWW8QUMOA3iBA8MtiJwBm1PSbI7ju/+HzHwAAmA8CYAAAmCWnT58u4W8NvKIua6N/yooVK5otW7aU9bCYCYAZVYcPH27OnTtX9v3u8aA2wdT6sHnz5hIGAwAAzCYBMAAA3KQLFy40Bw8evKahP/J1uxbBL6NGAMyo6w2Cu8eGSJ3IuswPvGTJkrIOAADgZgmAAQDgJvTO89tt3K9l6dKlpXEfRo0AGC6bybHC/MAAAMBsEQADAMAN6J3nsduYX5cp27dv16uLkSUAhismGy2i97hhfmAAAOBmCYABAOA6zKQB37yOcJkAGK412Xzx9TiSehJOIAIAAG6UABgAAGYowW8C4DTU10b7Kl+rU/TcgisEwDC5hMBnzpyZ8phiWGgAAOBGCIABAGAaGer58OHDV/XWqmoj/fLly5uxsbF2LRACYJjeoUOHmvPnz08aBBtVAgAAuF4CYAAAmMLjjz/eXLp06ZqG+XyNTkm4tWPHjnYt0CUAhpnbv39/qSOTHW8yHHSGhQYAAJjOre0SAADoOHHiRAmv0hjf2/O3BlkZ6ln4C8BsyPEkx5UcX3KcqXL8yXEo63NcyvEJAABgKgJgAADosW/fvtLAPlnwu3Tp0tKL0XCcAMymHFdyfMlxZrIgOMenHKcAAAAmIwAGAIDWuXPnSu+q6Bf+pmzdurUUAJgr9VhTjz1VDYEjx6sctwAAAHoJgAEA4GsOHz5cymS9fleuXNns2rWrWbZsWXsLAMydHG9y3FmxYsWkvYHrsQsAAKBLAAwAwMirvah6w980uEca4DMvIwDMt82bN5fjUPQLgbujVwAAAIQAGACAkXXy5MnSaJ4G9JSq9vrNXIw7d+5s1wLAwsnxqF9v4HoMy/EsxzUAAAABMAAAI+nAgQPN8ePHS6N5vyGfM/eiXr8ADJL0Bs7xabIhoXNcy/ENAAAYbQJgAABGTnpJXbx48arwtwa/WXfbbbeZ6xeAgZTjU45TS5YsuSoIriFwjm+GhAYAgNEmAAYAYGTUeRLTQJ5SpfE8Zf369c327dvbtQAwuLZt29asW7du4hhW1WNcjnfnz59v1wIAAKNEAAwAwEjIvIiHDx8ujeK9Qz7Hrl27mrVr15bLADAMEgDn+NUbAtfewIcOHTIvMAAAjCABMAAAi16C38yLmAbx3iGfly9f3uzcubOsA4BhlBA4x7PeIaFTcvw7cuRIWQcAAIwGATAAAIvagQMHytDPveFvyoYNG5otW7aUdQAwzHI8y1QG9RgX9dh39uzZcjwEAABGgwAYAIBFa9++fc3FixevGvY5jeLpIbV169ZmzZo1ZR0ALAaZymBsbOyansA5DuZ4uHfv3rIOAABY3ATAAAAsSnv27CnLNHpXNfy97bbbmmXLlrVrAWDxyFDQOc51Q+Cox8N6fAQAABYvATAAAItOGre7vX4jDeGRRnEAWOzq8a4e/yLHxhQhMAAALG4CYAAAFpXe8Lf2+l26dGmzc+fOsg4ARkGOezn+dXsD1yGhhcAAALB4CYABAFg0+oW/KStXrmy2bdtW1gHAKMnxL8fBekwMITAAACxuAmAAABaFycLf9evXN5s3by7rAGAU5TiY46EQGAAARoMAGACAoTdZ+Ltx48Zm7dq1ZR0AjLIcDzds2NA3BN67d2+5DgAALA4CYAAAhloarfuFv+vWrWtWr15d1gEATbNmzZq+PYFThMAAALB4CIABABha+/btm2i4jtqgneA3ATAAcLX0BM5xsjcEDiEwAAAsDgJgAACGUhqp03DdG/6uWrWqDP0MAPSX4+TKlSuvCoEzmkYIgQEAYPgJgAEAGDqPP/54WdbG6kgD9ooVK5pNmza1awCAyWzevLkcN2sAHPW4Wo+zAADAcBIAAwAwVI4ePdpcunRpoudvPPHEE83y5cubLVu2tGsAgOnkuJnjZ46jVY6vOc4eO3asXQMAAAwbATAAAEMjvZROnTpVGqe7Qz+n8XpsbKxcBwBmLsfPZcuWTfQErsfYkydPlusAAMDwEQADADA0Mi9hhqfshr8h/AWAG7d169ZyTO2GwDnemg8YAACGkwAYAIChcODAgYleSVEbqnfu3FmuAwA3bteuXdeEwHHw4MGyBAAAhocAGACAgXfixInm4sWLpTdSlQbqTZs2tdcAgJu1cePGiQA4EgJfuHDBcNAAADBkBMAAAAy848ePT/REijROZ77CVatWtWsAgJu1evXqvvMBHzt2rFwHAACGgwAYAICBtm/fvmvm/U3JfIXAYKvhUbcAg22y+YBzPAYAAIaDABgAgIF19uzZsuwGR2mQzjyFwOCrwVEtAmAYDnU+4Ogeg+txGQAAGGwCYAAABtbRo0cngqMq8xMCw6Eb/vbWZWCwdY+3tf7muAwAAAw+v74BABhIp0+fbpYsWVJKGp1rT8LMTwgMh6VLl5Y63F0CwyHH2+7xtx6Tz5w5094DAAAYVLd8tY7pAwAAA2R8fLw0OMelS5eaJ554ohkbGyvXgeFw8uTJiQApPz1Tj9euXdveCgyDQ4cOTQTAkXq8adOmchkAABhMAmAAAAZOAt+LFy+WRuZ8Xc31ND6vWbOmvQcwDFKPu71+e68Dg+/UqVPleJwAuM4FvHz58olAGAAAGDwCYAAABloNg1esWNGuAQDm07lz5yaGcgcAAAafABgAAAAAAABgkRAAAwCwIPbu3ds88sgjZblr167m7rvvbjZs2FBuy9CSwPD7whe+0Bw8eLDM6Z05QzOP99Of/vT2VmCYnT9/vixPnDjRPPTQQ83u3bubHTt2NHfddVdz2223ldsAAICFIQAGAGDOJej96Ec/OjGHYErm9E3JfIIpuRy5T0quP+1pT2vuueeesh4YbI899lip5/mJuWzZsjJcbEqt51mfup0h3VMuXLhQ1r/oRS9q7rzzznYrwCDLSR0p9TjdlTpe63lKpnCoc/innicYBgAA5ocAGACAOZH5Av/zf/7PJehJ429KDYRqAJxlDYCj23icRuMERJH7vva1ry2XgcGRev4Hf/AHV9Xz9OCvAXA94aNKvU79Tt1OyeNqSJT7veY1r2lWrVrV3hsYFO95z3tKPY3U76mO4bWe17qdul5D4XwuvPrVr25Wr15dHgMAAMwNATAAALPu93//95uzZ8+Wht6EQTUQSmNxt+E4y9pwXNXG49pDMENMZlu5nMc+8MAD7T2BhfTOd76zOXPmTKnnK1asmKjnKVlX63zqeOp6wp9av1NSt2sQnMsJk7M+23n961/fPguwkHIiV+pm6nOt5yn1BI9+x/Aa/maZ+p3LtZ6nqOcAADD3BMAAAMya3/u932tOnz5dGolXrlxZlindUKgGv3XZq4ZE3WAoAXAaoLNM4JQegq973evaRwDzaap6XkPg1O+U1PluQJS63e31W+t4lqnjtZ5nmR6CAiJYGDmRK/U8dTx1sdb3WsdT6skdvboBcJb1hC71HAAA5o8AGACAm5ZG3ne84x3lchqH00jcGwzVMKgGv91G4xoQ1a+m2V4NidJAXEPgGgBnGX/9r//1sgTm3mT1vDcUqnU9dby3d2CknnfreA2GUs9rMFTDoVDPYf5063nqdk646tbzHNO7dTx6j+GR7aTUALjWdfUcAADmhwAYAICb8vnPf7757Gc/WxqD16xZM9Fg3C/87fYW6gbA/XQbjntD4PRKSsn6Zz7zmc0999zTPgqYCzOp5ymp16nv0a+up153l6njudzbO7Ce6HHq1KlS99VzmHu1nqcup2du6nld1vA3nwH1RK6pdOt6mp26IbB6DgAAc08ADADADXvf+97XHDt2bCIMqsFQSjf8TUPxdI3FVW9YlJJG4zQO1xC4BsApaUDeuHFj86pXvap9FDCb5qKed3XreQ2Hek/2UM9hbr3//e9vjh49Wup1Qt9acj3hb0q/ep66OxPqOQAAzC8BMAAAN+QP//APm0OHDpUwKCUNxTUYqr0B01Mo0lhcG4lrI3Dv19A6hGRtXO5tYO4OCZ0G4/QYSoNxlimbNm3SaAyz7GbrefSr6711vEo9r72B1XOYH1PV85zkkeA39bz3uDyTeh69dV09BwCAubfkTV/TXgYAgBn54he/2DzyyCOlkXjt2rWl1EbjbjCUBuCUNBDXALf2/uleT6nXo9uQXLeRBui6rOFRvS1OnDhR1o2NjZXrwM25kXrerev96nkt3dCoW59r/VbPYX5MV88T/NZ6Hqm7qcMzred5nHoOAADzTwAMAMB1SYPuBz7wgTIUbG0sTkNxv1Aojb5pGK4lDcUZxjnL3tJtQM7jakAU3QbiejklaoNxHrNnz57mjjvuKD2WgBt3o/W81ufp6nm2n8elVOo5zC/1HAAAFi8BMAAA1+Xtb397mQuwNhbXnkJppK1zBEYafnsbijN8c5bdRuPaoFwbjGujcW04jjQK9zYW1+uR++X+eexf/uVfNs961rPKeuDGqOew+KnnAACweJkDGACAGfvsZz/bfO5zn2vWr1/frFu3rpQ0GqenUBqL61ygtQG4NgrXhuJc3rp1a+nVM5n0+nn88cdLr6NsLw3RKfV69zmyzcwfePLkyTJv4LFjx5rjx48399xzT/MN3/AN5X7A9VHPYfFTzwEAYHG7fIolAADMQBqLM1RkSh0iMo253cbi2tunNhSfOXOmNOpm3XOf+9wpG4vjtttuK/fLeYp5fC3ZXt125PnyvHn++lrqa/v85z9f7gNcP/UcFj/1HAAAFjdDQAMAMCOf/vSnm/Hx8TJEZB0qMo2zabBNb54M35hG3gzbmMbd2psnjb27du1qnvrUp7Zbmpnt27eX7R45cqRcr8NEZkjK7rCRVRqS65CTec7Tp0+X5wVmTj2Hxe/P/uzPmqNHj6rnAACwiAmAAQCYkQ984AMTDcVZppdO7S1U5wnsNhbXBuNNmzaVXkBdue3BBx9sHn300eaRRx4p5Stf+UozNjZWtlflObLNEydOlMbhqRqM01idRuM6XOXevXvNHQjXadjqeYaYVc/h+qSep46r5wAAsHgZAhoAgGml104actODpzYS53KWabitaq+dNBqn104adJ/0pCe1t1728MMPN5/4xCdKw2+Gfcx2ssz19D784he/2N7zsjQ2ZzvZZradkudJiTx/3U5eT0rtxZQGaWBmhrGeZ6mew8xlTt5at9VzAABYvATAAABMK3MF9jYWp4E3jbW11Ebc9NapDbv33ntvu4XLcnt68uT+3Ybdusz6/fv3l6Epu7KdbDeNxlnWxuKoz5/XVF9jvfzlL3+5vRcwHfUcFr+HHnpoog7Vep5S61iKeg4AAMNPAAwAwLTSyFsbYWuDcXrp1MbaqttonNLrgx/8YFnmsdlOt7E4pW7zU5/6VLlfV22ETqnPE/U1pNTXWF/ngQMHyn2A6Q1rPU+PRmBm+tXzbv2q1HMAABhuAmAAAKZ05syZMmRjGnNT6lCPtXG3qo24mbsvjbrr1q1rb7ks63P/7uO7DcZ1XW5PyfN2ZXv1OWpjcZXt1sfXBuNsI687rwWY2jDX86xPb0Jgat16XutPrVPqOQAALC4CYAAApvTII49c1cjbbYztNhhXtdF4+/bt7ZrLDh48ONFgnFIbdntLbksDdeYj7RobGyvbrdvvqq+lbrtuP683w9oCUxv2ev6FL3yhvRcwmW49r/UnS/UcAAAWHwEwAABTOnnyZGmArQ3GtXE2Jeqy1/r169tLl50+fbq9dKWBNyWNw/Vy5Hr09hjasGFDe+mK7uPq5ZTa8JzLZ8+eLbcDkxvmep6insP01HMAABgd/b/dAwBA69SpUxMNxbURtttI208afffu3dteu+yuu+5qL10ZXrL2/qmXo/YGuuOOO8qyOnz4cFn2e87u68nrq43QuZzXD0xNPYfFTz0HAIDR0f8bPgAAtNLjJo2vtVTdy9G9T8r4+Hh7yxVpDK6l22jcLbXBOHMJdh04cGCiIbguu+r1+vy16DEE0xvmep77nTt3rqwHJjfsx3P1HAAAZu7qb9kAANCj9rhJI21tqE2puo2zKbVX0cWLF9t7XJFG4DQKX7p0qdx+4cKFiZJ1Kbk9w1P2On/+/FW9gaI+Z1Uv19ea0h2qEuhPPYfFTz0HAIDRceXbNQAA9JEePGl47ae34Talzi2Y8vnPf77cXr3whS+8qrE4jcDdkvW5/f77728fcdkXv/jFMg9gSrafUp87upd7ZXvA1Ia5nud1q+cwvWE/nidQBgAAZmbyb9YAAPA1a9asKY3GtaQBdrJG2NpYXBt2M9xkb4+dl770paWxOEM5puQ+9XIajV/84he397wsjcgnT56caCjO9rsN1P10X++qVavatcBkhrWe1+Xq1avLZWByw17PHc8BAGDmBMAAAExp5cqVE43E/RqK04DbbcStDbu10fgLX/hCe88rnvGMZ0w0GtcG41x/2tOedk0j8J/92Z81y5cvL9ur20zJ/epzV93XmaLBGGZmWOt5DbLy+oGpDXs9dzwHAICZEwADADClNBhnGMfaCNttlO3qNhinYTfzA6Zk3Z/8yZ+097ps8+bNzcaNG0sPoTQUZ5meSdu3b2/vcdknP/nJie11G4zrc3V1X1d9nXndgiGY3rDW8/qa1XOYnnoOAACjQwAMAMCU0uCahtc0wKZxtzbE1lKl505tzO028qa3T9Z99KMfbe952b333jvRWJzl8573vPaWy3L/zFWYbaThOdvJdutzTNZTKK+vW/JYYGrDWs8zpGyKeg7TG+Z6nqV6DgAAMycABgBgSk996lNL42ttLK6lNhbncldt1O1tNM71T33qU+29LvvWb/3W5r777ivLrgwTmQbh+ti6nbrdNBhX9fm7jcXd1/qUpzyl3A5MbpjreV63eg7TG/Z6ntcPAADMjAAYAIAprVu3bqIxNg2xKWmIzbraaBy1F0+WvQ3GtWR+wF47duxoL11x+vTpq7aR7dbr3eep6mupDdt1mXWbNm1q7wVMZtjreYagBaY27PV8/fr17b0AAIDpCIABAJjWtm3brprfrzbK1objql+jce3xU6/v3r27vXd/+/btK9uojcx5fO1xVLffVRuKU7qN2imZmxCYGfUcFj/1HAAARsMtX/2a9jIAAPT1+OOPN3/8x39cet+kp92GDRuatWvXNqtWrSpzCqYxtzYUpwE3DbdZpnE5vYTOnTtXegGdOXOmLLMut+V++TqauQFrI3Hm+Fu9enXZdl3W5+j3PGkozrZOnTrVnDx5sjl+/Hhz7Nix5ujRo2Uewic/+cntXwFMRT2HxW8Y63nKN37jNzZPetKT2r8CAACYjgAYAIAZ+fVf//XSUFwbjTOUZBp005hbewWlITdqY24aclPSYJzG4jTq5rZ77rmnPKafhx9+uDT6Ztu1wbj2GMpzRG0wrj2Y0gCdhugTJ05MNBZnG9/93d9d7g/MzLDV85Tv+Z7vKfcHZsbxHAAAFj9DQAMAMCNf//VfP9H7py7TYNsdrjGNuClVGnZrL5+UXN61a9ekjcWRnnxpGE6pvYNqqWqDdH3uvI7u60p56lOf2t4bmKlhq+d33313e29gphzPAQBg8RMAAwAwIxlmNYPHpDE2vX9q42x67HQbjavext40Fqfs3bu3+dKXvlR6D9XeRClpBM58gZ/+9KfLYzOMZPfxXd3G4rqNvJ5asq0XvOAF7b2BmVLPYfFTzwEAYPEzBDQAADOW4Rw/+clPluEiM3Rklin95vVLo24ablPSiJuG3SzrnIFp5E2Db/06msell1DdVpaZP7But9toXBuLs506FGUdLjJDRT73uc9tnvKUp7T3Bq6Heg6Ln3oOAACLmwAYAIDr8tu//dulAbc2GK9du7aUNPDWuf1SojYY18bdNBLXeQen8sgjj1zVWFwbjLvbSwN0GotPnjxZShqMU3Lbd37nd7ZbAm7ETOp56mS3XqZOpqjnMBzUcwAAWLyuHnsHAACm8Tf/5t+caKxN75/uMuvTYJuSht2uNPim4Xe68w/T06g2EHf1ayyuz1tLGqS/7du+rX0EcKOmquc5maNfPa9B0Y3W81q/ax2vPQLVc5gb6jkAACxeegADAHDd0qPn4x//+ESPoTVr1pTL6eGTnj7dnkNRG3tTLly4UBp2s0zjcJVhJlPy+Awd2buNqA3GeXwajetQkbXHUOY1fOpTn9reG7gZtZ7XXoG1rq9evbrU09TPbh3tnqCR+l1LHT4296v1vNbxLOt2uttIST1PKJR6nqKew+ybi3qeOX9Tt9VzAABYOEve9DXtZQAAmJGNGzc2Bw8eLHP0paE3cl5hvdyVht6qnntYG4gTBOVybSiujcR1fUoek5IG5hr8pndQHSqyNhqPjY2VuQKB2VHr+dGjR6+q2/3OIU49r3U1JfdPSR2uoW9KDYESCtV1uV83EKq9AhMK1WCo1nX1HGbXXNTzeixXzwEAYOEIgAEAuCF33XVX8+Uvf7k03HYbjaNfI3IafrO+t9G4Br51mZL1uT2PSak9jRIA16Ei00hcG4zTS+m1r31teR5g9qSeP/zww6XOVd0AKKU3FEqJ1ONu6dbzWsejhkKp46nrtY73hkIZYUA9h9mnngMAwOJjCGgAAG7Kxz72sWb37t1lyMiUVatWlVKHg64NwV21IbleTiNx1FC4K8NKptG42/s3JQ3FKTt37mxe8pKXtPcG5sJHPvKRUs8zLGzqdx0eNvW8O8Rrt/6mbneXUW+vy9xWSw2GuuFQXaaev+xlLyuPAebGbNXzyH269Ty6AXCt57WOq+cAADC7BMAAANy0Rx99tMwhWAPgNBrXBuM0HtceQdHbIDyZ3J6SADjhbxqL63CRtcH4vvvua+6+++72EcBcSo//1PN6gkfviR4Jh7p1vfb86yc/Q7t1PKFQ74kedfmc5zynefrTn94+EphLs1XPuyd5qecAADD/BMAAAMya3/md3ymNxGkwzjKl9hpKqT18u72HetXG4nxNTWNx7S2UBuOUNBRn+Z3f+Z3tI4D5krqXep76XOt4wqFax1MSDqX069EftX4nEKqhUC0Jg2pdz/Xv+q7vmgiagPmhngMAwPATAAMAMKuOHTvWfOhDH5poOM4yIXAad9NYnIbi6RqMs0yDcXoKJfxNA3EairPu/vvvbzZv3tw+AlgI6fX/4Q9/uNTr1O/uiR6p51mmnudyr9Tj1PPU6249ryXXU88zLymwcGZaz3uP6b3hr3oOAADzTwAMAMCc2LdvX/PpT3+6NAynkTiNw2lE7oZCvSFwDX7zFTWNw7mekCjLDPe8a9eu9p7AIBgfH2/e8573lDqbep463j3ZI8vU+aqGQt2TPFJSz+NVr3pVMzY2Vi4Dg+F66nltYlLPAQBgYQmAAQCYc4888kjzl3/5l6UxOI3F3d5CWWZ95KtpLtf7Pe1pTzPHLwyJ1POPfvSjpf7WYKjW96pbxxMM5fbnP//5zVOf+tT2HsAgu9F6/uxnP7u555572nsAAABzTQAMAMCCOHDgQPPQQw81hw8fbjZt2lTC3u3bt7e3AsMu4c/evXubL3/5y2W5Y8eO5ilPeUpz2223leAIGH699Tz1Oyd0GLEDAAAWlgAYAICbdubMmdLLp84RONfqHIIJkVatWtWuBQAAAAAEwAAA3JQjR46UHkB1XsAs5zIETvCbeQTrfIIJgdODGAAAAABomssTrwEAwA14/PHHSwgbda6/rhrUZn3vbdOpj6lBb1fW5/kigfDBgwfLZQAAAAAYdXoAAwBw3fIVMnP93XrrrVeVNWvWNCtXriz3qT11q9zW69y5c+2lplmxYkV76YpTp061l5qrehafPn26DDudELiWvCZzDgIAAAAw6vQABgDgupw8ebLZs2dPc8stt0yUWL169UT4Gwlo61y93aC36+zZsxOlnzyubiPbq/JcKdF9Dbt3774qNAYAAACAUSMABgBgxjLU8tGjR0tv3xq6xoYNG5pVq1a115pynzr0c5br169vb7la7SWcZT95XHc72W6V58vzVnk9eV3j4+OGhAYAAABgZAmAAQCYVoZYTu/aBLU1/K0B8LZt2yaGZo702k2oW+fwzWOXLl3a3nq1ep+UfvK47n2y3e6w0nnePH/U15TXl9eQ15vnBgAAAIBRIgAGAGBKR44cuWrI5ypz8u7YsaO9dsWxY8cm5uVNaLt9+/b2lqtlzt56v5Rc7yfPke3U+6WHb6/cJ6+nqiF1Xne/+wMAAADAYiUABgBgUglQT58+XQLVrrVr1zZbtmxpr13x+OOPXxXqTjb0c+T2GgLX5WQy1HPdZkqep1dez5o1a9prl+V1Z07g/B0AAAAAMAoEwAAAXOP48ePNY489VoLZbq/f2LVrV7Nu3br22hWHDx8u969hbnrkJiieTO5T718fM5kEuxkOuvuYPF+vBM47d+5sr12W15/75+85ceJEuxYAAAAAFicBMAAAEzLUcubOzTDOvUM+r1y5soS//SQwzvzANcjNcuvWre2tk8v9usupZK7f7vbzfP0C3bzmvM4VK1a0a67MD3z06FFzAwMAAACwqAmAAQAoDhw40Ozdu7dcroFpgtaUhK/9hnyO3J5hlrvh7GRBcVfu19V7vZ9st/s8J0+enPRxY2NjE6FxvU/+psiQ0AcPHiyXAQAAAGAxEQADAIy49KLN8Mjnzp2bCEgjoWl60d5+++1lOOfJ7Nu3byJkTcmwz71zBs+WbDfDQXefL88/mbzuvP5ub+DI33n27Nnm0UcfLSEyAAAAACwWt3w1rWYAAIycBL7p9Rvd4LdKb9vpgtyEr3U45XytXLJkyTVz8E4mQzg//vjjEz2Nt2/f3ixfvry9dWp53gxXncfWMt3z5v79wuL6dTi9hXuDYgAAAAAYNgJgAIARk69/+/fvby5evHhN8JvbNm7c2Kxbt65dM7ne8DeX77zzznJ9Jm4mAI703k1AXf+GXJ5J+Jz5jTNncb+/fenSpc2OHTuuuQ0AAAAAhoUAGABghKTHb3r+RjfkzFfChK8JYWfiZsPfuNkAOM+5e/fuq0LgBLgz/Rvy3HkNve9DpCdwegQDAAAAwLARAAMAjIDDhw83p0+fLpf7BZ7p9TrVPL9dCU4vXLjQXru8jcyz293uTNQAuLreADgyrPPevXvLc6fkteTvmGkInL8jvaGj931JyXzDW7ZsadcCAAAAwOATAAMALGKHDh0qwW8NSKsacI6NjTWrV69u106vDh1dZRs3EtzGbATAUecy7v591xMCR96jvFeTvU95j/JeAQAAAMCgEwADACxCBw8ebM6cOTMRZmZZv/ZlmXl+169fX67PVELWhLZVtpNQdNWqVe2a6zNbAXAkwE0v5254m21d7zDOmRv46NGjk75vgmAAAAAABp0AGABgEUlIe/bs2UkDzHXr1jWbNm0q169Hv/A321m7dm275vrNZgAcJ0+ebMbHxyf+9riREDiynRMnTkz6Pq5cudIcwQAAAAAMJAEwAMCQyzy4CWgzn+1sB7+RbWeY5brtbC+9hzds2FCu36jZDoAjPXiPHTt21WtNWLt169Zy/Xr1BsFd2XZeb7a9ZMmSdi0AAAAALCwBMADAkMoQzxn2eLKvc1l/I0M9d+3Zs6d54oknJgLllJsJk7vmIgCObmhbX/ett97a3Hbbbe09rl/v0NBddfsZGjphMwAAAAAsJAEwAMCQSbjZO9RxV77eJaBNUHszHn300atC1JSbDZS75ioAjm5gW19/3HHHHWV5o+brvQcAAACAGyUABgAYEocOHWpOnz7dN3zMV7r0Qt2yZUuzatWqdu2NyXDPGfa5K9tPQLtixYp2zc2bywA48ndk+73v12w8T+19XXtH98r7tWbNmvL/AAAAAID5JAAGABhgCRqPHDlS5vmdLGhctmxZCTUTAN+sOoduV57jzjvvbK/NnrkOgKvak7krPZlno5fuxYsXm4MHD141/3JX3rvMD5wg2PDQAAAAAMwHATAAwABK79JTp071DRUjX+FWr15d5p2dLelhnMC5K89/++23t9dm13wFwLF79+7ynnXl/ZvNHrpT9dCOPP/atWubzZs3t2sAAAAAYPYJgAEABsRMevvGbM7DW+3bt6/0Zu1aunRps3Pnzvba7JvPADj27t1b3tuuufgb6/zDMdn/Mb2283+82eG6AQAAAKCXABgAYAElkExv37Nnz07ZczSBYXqOzuYcvJEQdv/+/Vc9d54vwxVv27atXTM35jsAjsxt3Pte5+/dtWtXCYNnU+Ygzv82wfpU/9uEwOmJPBtDeAMAAACAABgAYAHUuXbzVWyyXqKReWo3bdpULs+2fkM+53nna5jihQiAI72sT548eU0IvGbNmlkdErprfHy8OXHiRLk82f876zds2DDrvbsBAAAAGC0CYACAeZL5YRP6XrhwYcoeoentmyByLsPQPXv2NE888UR77bI8d0LY2e5lPJmFCoAjvYDTG7j3/5BeuLfddlt7bfbNtFewIaIBAAAAuFECYACAOZTAL70/E3ZOFfjltgR+6fE7lxJCp+dv72uZ6/l++1nIALjqNy9w/h9bt26d8/B1ul7gkdvynqQX+HwF8wAAAAAMNwEwAMAsS+/ODDM83by+sXr16tLbd7L7zabJ5r/NsMMp820QAuCowzP3vi/zMQ9y5LnSKzjhfEy1z+Q1ZXju2Z6vGAAAAIDFQwAMADAL0os0QWJCvKnC3Hz1SniX0Hc+e3Q++uij17yuvJY77rhjytc7lwYlAI4Mh7179+5r3otcv/3229trc2+mQ0RH5ixOz+AMWw0AAAAAlQAYAOAGJaQ7evTojHpuLlmypAzxnNBuPiVMPHXq1FWvLa9nvnq3TmWQAuAqrychbO/7tXbt2tLzdj7l/5b9KycXTBcGZ+jwhMEAAAAAIAAGALgOCS0Tyk01vHPkK1Zun495fftJOL1v37722hV5XWNjY2Xo6YU2iAFwTDZPcuzatauE+fNtpvMF57acZJAhvRfidQIAAACw8ATAAADTSNib0DeB5XShbyx0b8zJerFmqOD5HM54OoMaAFePPfbYNYFrrmfo7rzWhZL5pU+ePFkuTxUGx6pVq5r169fP63DjAAAAACwsATAAQB8J2NLjcqrhd6N+lcoQwentu5DzsWbI4Az53Pt68xoTSC9ET+SpDHoAHCdOnChzO/d7Txe6J3XmLc4+mtdY9dtX6z66bNmyEgbP9zDkAAAAAMwvATAAwNfkK1F6+Sb4zeXpQt/cnjAtQ+0Ogr1795Zhn7uvO68zod/OnTvbNYNlGALgKsNpX7hw4Zr3d+nSpWVY6EGQIDj7cF5X9O7DdX3U/Tel934AAAAADDcBMAAwsjJMcuZWPXPmTLk+VRCWr0zp3VtDs0GRHr/p+dsv7Nu2bVuzcuXKds3gGaYAODIU+IEDB/q+1+kBvnnz5nbNwusNg6P7urvrczm9gtND3FDRAAAAAMNPAAwAjJQEYwl9pxvaOfI1KT1o08t3IYf67Sc9lTMXbL8wMvO+bt26tV0zuIYtAK4OHjxYThro995v2bJl4IZYric6nD59+qrXPFkgnF7NCYMHbchwAAAAAGZGAAwALGrX28s3EqAm9B3EMDJ/TwLIzP/aG+Dl+m233bag8xBfj2ENgCPv/549eybe9yrX8/6n9/Ug/i15fakPKXV/j8nC4FzOyQ8Jgwe5NzkAAAAAVwiAAYBFJcFcevmm9Iak/eSrUO6TIXwT+g5yeNpvHtrI3zCIPU+nM8wBcJXhtzMMd7//ySDPv1zl9ScMzn5V9ftbqtyWepJAuPd+AAAAAAwGATAAMPQytG1CrASKMVUwVb/6DOrQzv1k3tnMP9svmBu0uWevx2IIgKup5mIepiG5U496/47u5e5Ph1zOnMGZE3sY6hEAAADAqBAAAwBDJ8Mgp4dvgt+YKvCNfN3JfdJDNmFV5jgdBuPj4+Xv7BcqJnhLYDrMFlMAXO3fv7/8Xf3+ZznhIGVY1J70Fy9ebNdcW9d6f0rkhIRhqmMAAAAAi5EAGAAYeAmgas/EfHWZSeAbCROHsXfisWPHSukXtmWI6gwrvGTJknbt8FqMAXBcunSpDNfdbwjy/A83btxY9sthkjpYA+Gu7t/X+7MiIXAC4ZRhmZcaAAAAYDEQAAMAAyfB2cmTJ0vYlDBtusA3ajiauUlThjFwyt+bXr+T/b1jY2NlOOHFYrEGwNWZM2eagwcP9v1/Zn/dtGlT2VeHUf627K9Zdv++6QLh/L0JhGdSpwEAAAC4MQJgAGDB5etIAt+UCxculHXTBUT1K0wC0fSmzJDIwyp/95EjR/r+zfk7h23o4Jla7AFwNdlQ3pH/75YtW8rw5MMsPfRTcvJG1fv3dn925HL+1wmDhzUEBwAAABhUAmAAYN4lJMpwzjcS+CboTWA0bMM695P3IMFvP/l7EwomHFysRiUArg4fPlz+55Pt6/lfL4b9Ov/XBN75W7sEwgAAAADzQwAMAMy5OqRzAqHrDXyXLVs2MWzsYpFhcw8dOtReu1r+7oSAGe55sRu1ALjK//706dOT1oHFNtT32bNnJ+p/92+eLhDOyR6p94up7gMAAADMBwEwADDrLl68WMKehD7XM4dvLFmypAS+KTN53DBJ6JdeoP3k7x+V4Lca1QC4yvzAvXPoVlmXHsGLKQiu8jfns6E3BO99H7o/U3I5gXB6xeshDAAAADA1ATAAcNMS5NVAJ719ZxLc1q8gNfBNL79bb721rFtsMjfq0aNH+74veR8S8m3durVdMzpGPQCuDhw4UHrJTrZ/bNq0aVGHnjcSCMfSpUvL50ZC4XyOAAAAAHCZABgAuG7nzp0rc3wmuMlXiRsJfEchtMn8vgm2Jgv2Vq5c2Wzbtq1dM3oEwFebLghO2Ll58+Z2zeKVIDgjCFxvIJzb87mSkt7CAAAAAKNKAAwATCtBTILMhFPRL6DqVb9iZA7f2ktvsfbw7TVdkDeqPX57CYD7m2po6FHcf+rnT+97Mtn7U+VyhlXPZ0+WAAAAAKNCAAwAXCVfDer8vQnoqulC3/qVIgFe7eE7SjL0dYLfCxcutGsuv2f1fcky70nmdeUyAfDUDh06dFUv2O7+FHmv0oN8urq52CQIrj2Eu/q9D933K5fTMzgnpKQAAAAALFYCYAAYcQnhEqakJMSspgqVul8fMoxxwpRR7WGX4bAT1NX3rr5v9T3KclSG7r1eAuCZ6R1KvHcfS8/6nFiQujiKsh/l/clnWPezabLPsO598t7lhJX0qrbvAQAAAIuFABgARkiCkvSeS8nlmCrorbpBU4LelFENm6oETuPj4+Vy73uY9ytlw4YNpdCfAPj6HDt2rJTsb/a5yV26dGliFIOLFy+2a2cWCOdy/YwbtVEMAAAAgMVDAAwAi1h6pyYISeCbUOR6wt4Yxfl7p9PtjTlZCLdp06bSq5CpCYBvzIkTJ8rJB5Ptg5F6m/2Qy+9J7SGcz8TuezbZ+1flej4H00M4n4P2TwAAAGAYCIABYJGovXszL2adh7Y33KjX+4UckZAjwVGWXNE7v2+/0Cglw/DqNThzAuCbk1AzJyRkf5wsyMz7OYrzBE8nn5MJhLtzLM9U3tt8RtZewt5bAAAAYNAIgAFgSCW4SAB09uzZcv16Qogc/nP/GviO+nDOk0lAlJ6W9etS9z2u69IzemxsrFmxYkW5zswJgGdHPgMyD3Wt173q+pyg4OSO/nKSRz5TU3IiTVzPZ2ruWwNhn6cAAADAQhMAA8AQSFCWMDIlQUXMNJyoh/oMY1oDiqVLl5Z19Hf48OHyXuc97n2f6/uZwDc9K7lxAuDZlfluDx48ODHvbb99NyXDkxseenp5HzPcdgLh9P7vfT8n+2yo8pmbz9t87vrMBQAAAOaTABgABkztiZYAMvNVVr1hQz/1sL5kyZKJsFegNjMJe9KLcrphnoVns0cAPHfScz3hZfbjyYLKvNdbt241v/d1qCMvJBTuvq9TfT53f27lxJEaCnvfAQAAgLkiAAaABVbD3gzjWg/LU4UJVfcQnmFda6jA9UmYk7Cs6r733f+H4XNnnwB47iUEPnr0aHtt8v07JzXkM4Trk8/tOjpD13Sf4d33vs4n7PMbAAAAmC0CYACYR+k1VueYTE/f6UKCqnu4Nqzo7Ehv3/wv6v+gLut7nWWCmfSQZG4IgOdP3usMbV6Hh45++3w+W3KyAzcm728+33NiSR1NIK73sz6f7/lfOOkEAAAAuBECYACYIwkXa4l+AUDW9TsU13UZIrSGvRk6lJtTQ7DufJ69IVhs3LixDPXM3BIAL4zJegXXOpBlTjRJEOz/cfMylH+OAwmF63vcezzoXu9+FkW9XnsJpwAAAABMRQAMALOg9uxNyaG125jf29AfkzXwJ+Rdu3ZtaeDv9zhuzPHjx0vg1ft/qe97lgm6xsbG9KqeRwLghTXZCRHdz6dczgkR69evb9dws/Ke1kC4zvPe+9nUT+//JScI1eGj9RQGAAAAugTAAHCdMudjDXt7h3GerOE+ehvvlyxZUhru08NX6DX78r85ePBgCVimClQSuG/evLldw3wSAA+OBMGZx3aqupITVDIkeoJHZlfqQt7/HFcuXbp0w8eV/G9qL+GVK1e2twAAAACjRgAMAFNIeJjevWmYv5lG+dy3NsrrqTW30qtufHy8vXatGpJkeFv/i4UlAB48+bxLGDzdHOWbNm0qJ08wd653ZImq9/hTTzZKMZUAAAAAjAYBMAC0EkbVBvfukKhxPY3thuWcfwmrDh06VHpnT/a/yv8m/48M8zzV/5P5IwAeXKkv6UE/kzqVkyn0Cp4fOT7V41Te/xs9TmWO5xyjMgKFYe8BAABg8REAAzCSLl68WHr1piE9IdRMG9GjHjrrMr3gEoIIe+df/ofp7Tvd1xm9FQeTAHg4nDhxosyhPZnUvwTAGUo9oSLzK8exlIx+cCPHssjl1L3aU1goDAAAAMNNAAzAopehm2vYmyGdY6aN5L0N5JlTMT2m0kA+XeM6cyP/h/T2zf9zsv9B7pMwI/OVZvhTBpMAeLjkszR1b7p5tfP5mJ72LIz8D+p8wr09uK/neBcZMjonN+W457MUAAAAhocAGIBFZbqwN/o1gPceDnM9QVRt+NYbauHlfzrd3KT5v23cuLFZv359u4ZBJgAeXseOHStlqrqYwDC9go2OsPCmGvWi6q7r9xOxrhMKAwAAwOATAAMwtNKgXedDnCzsnU49DKZnbxq003NNg/ZgOXLkyDVDm3blf5jQMEGT8HC4CICHX/6HqaOThYr1M3bdunVlKHYGR06YqsfQ9BSOGz2GCoUBAABgsAiAARgKMw1767p+h7esy+0Je+s8h9fb2M38SJiU3r4XLlyY9H+U/6dQabgJgBeXzMed+YKnqrPLli1rtmzZ4v88oDLCQo6zdfjoetzs1V3Xe7yt12sonGOtUTQAAABgfgmAARg4NexN6derrF9jdL8G6NyvztmbRuh+j2OwJDxKb8L8ryb7PydIyPyiAqThJwBenHKSTk7gyGf5ZPU4Jb32cxIHgy3/q3pMniwUnuz/3JXrqd/1BCyhMAAAAMwdATAAC+pGwt7oHr7q5W7Ye+utt5Z1DL4MQ3ro0KFJe3bX/++GDRtKYfEQAC9+da7gmKxup6doTuowdPDwSE/hbigc3f/vTI7dketCYQAAAJh9AmAA5k3vMM4zaSyOfg3Gdc7eBL7C3uGU3r4ZMrbq7gP1f55gwNy+i5cAeHTkf13nCo5+9T0ypLtewcMpofCpU6fKcb73GB8zPc7nslAYAAAAbo4AGIA5kV6daQi+3rA3ehuC6zyCCXv1EBtuCQgOHjxYeozV/aAu6/89S0PDjgYB8GjqDvUe/T4DcpLP1q1bneAz5Op3gX6jfHQv91P3h8hloTAAAADMnAAYgJuWBt46FKReP/TT29s3sl90//+GgR09AuDR1jv8e/R+LuR6egWvXbu2XcOwm2rqh6m+L0Tvd4YcN+p3BscOAAAAuEIADMB1mWqIx+ttuE3QU3v2CnsXn+wrCXfSC7zuG1n2fvXYuHFjs379+vYao0QATHX8+PHm6NGj7bVr5XMjIV9OEpnuWMPwSShcRw252VDYFBEAAAAgAAZgCgnwai+d7pC9cb0NssLe0XHy5MnS27fuA3Vf6e4TevsSAmB61V7BvcPEdz8/cj3DxOd4wuJ1o6Fwd1+JXM/3j/odZKrHAgAAwGIhAAZgQu3Z2+2xGdM1lnYPJbm8bNmy0lMrja3CnNGR0Cb7UN1f6rK7f+jtS5cAmKn06xWcz5X6mZJlhobesmVLuc7il8+MfEfJd5ULFy7M+LtK9zhUdUNhAAAAWGwEwAAjqvbsTUNqr5k2ouZywt4Mt5gGVMHN6Mn+c/jw4dJbPPqFvtkv0ttXz296CYCZifQEzQkm2V+qbhAcGeo3QXACPUZL9oucfJRe4zcaCudy7lvnE7YfAQAAMOwEwAAjII2iNfBNUHejjaMZrrc2jmYIX0bXkSNHmhMnTkzsP3VZ95ks09t3w4YN5Tr0IwDmemV4+fQMnuqzJ6MMbNq0qVxnNJ07d27ie0+GFe9+1+le7lX3o8jlnFhQv/fkZDcAAAAYFgJggEVmNhs906tX2EuVsC69fdPDqso+1d130ss3vfDsM8yEAJgblWNdPo/SO7jq/TzKCBX5PLJPEbN1MpyRTwAAABgGAmCAIZaG79qYmSDlRhszaw+XOh8edPXOw1n3rbofZblu3bpm8+bN5TrMlACY2TDdiARh/nH6yTQGdU7hmYbC3f0qcj2fW/kelVA4o6UAAADAQhMAAwyJfFxnjrs0UqYXy0waKaPfx3xC3jqkIfST/SZzbmZ/q/tXlt39KScOJPS1H3GjBMDMpnxepVdw/Zyqn13dz60c/zIn+VTHTUZb9qOUBMPZd7r7ymT7TXcfi1zvfteyvwEAADDfBMAAA6r2SEnRAMl8yX6XACU9oarsN3XfyjL70tatW8t1uBkCYOZCPqdyAks+z6p6/KufZU5gYaayz3RD4d7vUjP5TpbLuV/9Pma0FQAAAOaaABhgACQEqb17b2be3sy7mobFDEGYxm2YqfHx8TLUc93f6rK7j23atKkM9QyzRQDMXMvQ0Pl8q3o/27LM0ND5fIOZyklS9Xtb5qPu/a422Xe33u9tGS66fm/z2QcAAMBsEgADzLN87KbRMKW30XCyBsPobTRctmzZRKPh0qVL21tg5rIfHTx4sAwpXmUf7O5raZDOcKn2MeaCAJj5kn0toxtcuHChXO8eb+tnXk6iyugGTqDiRly8eHEiFM5+dqPf7+rJfGvXrp3ycQAAADAVATDAHKu9e1PSY2QmDYK9jYFpjE5jYMrKlSvbW+DGJPDN8Kh1mOe6H9b9Lsv09M3wqDCXBMAshCNHjpSewfWzr/czMNcTBDvecrNyvM33vwwdPdPvgNH9Hhg52c93QAAAAK6HABhglqXnR23sm0lDX+/HcK5nbrja2AezZbqhUHM9oW/2PZgPAmAW0smTJ0sYXPV+JmaZz0RD3zObrvd7YtXdLzMKTI7V6SWsxzoAAAD9CIABbkLCizTgXc9wf92P3Vw2by9zKUNSprdv9tXo7pd1XzTsKQtFAMwgyNz7GQ6/fk72k+P0li1bpg3p4Hpl/0sgnO+S2QfrPjbdvtb7M76ePJglAAAACIABrkO310b0Ns71a6zrfszmchrnUgzjx1zq9mzr3S/rPpn9MIEGLBQBMIPm2LFjzdGjRyc+N7ufn/nszHUjJTDX6tDRKd19sPd43lWP7XWZk7vWr18vEAYAABhRAmCASWSutjS8JUhL795qqsa3rny8LlmypAzPl5LLMNeOHz9+VXjRVQ/5GzduLI3CsNAEwAyqBHA5iSajKEz2eeqzlPlSewlnKoc6f3/Vu3/2/ryv1zNsdL6P5uQFI34AAAAsfgJggNa5c+cmelt0PxqnC3zrfXO/9LLIMJHm7mW+JajIyQp1f63L7J8pegIxiATADLoEb9lHu0FwlvXYn2VCtfQKhvmUUWnqNCTZD+v+OZW630buX0elyXcEAAAAFhcBMDCy6nDOWXYbzSZrQOt+XKbnRA16DeXMQsr8vv2GJK/769KlS5udO3eWyzBoBMAMiwTAmSe4zvff7/M2J9iMjY2Vy7AQ0nM932tzQljXTL7b5nK+1yYQdiIjAADA8BMAAyMjjWEJfNPTt5qsQSy6H4/pGVGHzYNBkNAs4Vn0CyIy1OO2bdsM88hAEwAzbNIjuAbB0e/zN98Z8vkLgyDfffMd+Hq//2aZkxzz3TffgQEAABguAmBgUcpHWxq8MlfaTObv7f0orEPi6d3LIEnwcODAgdITLQQPDDsBMMMsn8c1VHMiDsOiDhud78ldM/mOnH163bp15TvyVCEyAAAAC08ADCwKTzzxROndkFLDsZhJY1aGyK2Bby7DoEnwu3///rKf9+7TdV/OcI1btmwpl2FYCIBZDCYbij/yGZ0AeMeOHc2SJUvatTA48r25njSZ7xnVTL9DJxBOD2GBMAAAwGARAANDKR9dCXvTWHW9ga/eCwyLNMQmHMs+3i9UiDS6btq0qVyGYSMAZjEZHx8v302i32d2wrIEwb57MMiyr97oKDoCYQAAgMEhAAaGRhpVjx8/ft2Bb4bETdhr/jKGRfbfhGJpeO0XIqRs3LixWb9+fbsWhpMAmMUo31WOHj1aPr/7fYbnRLQEwTAs8h08ofBM5hHufgevJ136Dg4AADD/BMDAwKq9DxIQVDNpbMq8vXVIZxg2CcOyz08W/Ka3bxpTYTEQALOYJQg+duxYudzvMz37evZ5GDb5jp5Q+HoD4ZyUmTDYd3QAAIC5JwAGBkbmz0tj0unTpycakQS+jIoDBw5MNKR29/vs6yl6/LIYCYAZBQmBEwZH7+d7JBTbtm1buQzD6EYC4SxXr15dAuFVq1aVdQAAAMweATCwYNLwnx6+aTSqBL6MmoMHDzZnz54tl/sFAwl9N2zYUC7DYiMAZpRMFwTn+83WrVvLZRhmN9pDON/tM8qJ4wAAAMDNEwAD8yYfNwl80/j5xBNPtGv7Nwh1P5rSCJTGIIEvi0mCgJTs//2CgPSIyXDPsJgJgBlF4+PjJRyL3s//FCM+sNjMdFqX7vf/W2+9tZwAZ9oLAACAGyMABuZUhnNOg890PQC6H0VLly4tjT0JwPrdF4ZZhjo/dOhQuSz4ZdQJgBllUwXBkd7A6RUMi0n27+z3+X1w8eLFdu30vw9SF/IdKcNGAwAAMD0BMDCrLl26VHr4plGnmq5BJ7enp0sadZYsWdKuhcUlvd737dtXlv0a+tPDffPmzeUyjAoBMDTNkSNHJqbD6D0+pBfkrl27+n6XgsUgvx0SCOf3Q+/vg67eZoucLJoewqkjAAAAXEsADNy09PJNo81Mh3XLss7xtWLFirIOFrMEXLV+1LpR60PqwLZt28plGDUCYLjiwIEDEyOmOFYwqlIHciJpToqo9WCq3xWR+pHfFXoHAwAAXCEABq5bejCmYaZ7pv50DTPLli0rvXzN48soyVDPGfI5unUkdUOvLhAAQ68cH/bu3dt3tIiUfI/asmVLuxYWvzpc9IULF9o11/7u6P7myG35zZHiOxYAADDKBMDAjORs/GPHjjVnz55t10wd+ua2DOmcxhfDOjNq0is+4W/qQbee1PphXke4TAAM/eX71sGDB8vl3uNISo4jq1atatfCaKhTzSQU7v7m6FVvi9ST/B4x6hAAADBqBMDApDL0WhpZ6hn30zWwpNE+DSyGX2OU7d+/v9SZfg32GzduLHUEuEwADFPLyXcpOabU40r97pXRVXbs2FEuwyi63mlojEgEAACMEgEwcJUMsXb06NGJhpLpQt/08t2wYYNevoy89EY5cuRI30b69D4ZGxsrl4ErBMAwM+kNXEdh6R5jUjIktECLUZfewTlZIt/Hqql+x+S2nJiXuYMBAAAWIwEwMNG7pJqqsSTzlqaxJMEvcNm+ffuaixcvlsvdhnnz/MLUBMAwczmu7Nmzpyy7x5pYunRps3PnznIZaEoQnJNaM592TPX7JnJCawoAAMBiIQCGEZQeJBkyrZ4hP1k4VT8eMldpzo431xxcbXx8vPSaTx3qNsanbNq0Sa8SmIYAGK5fjjs5/tRjT/2+lqWpBuBaZ86cKUNFnzt3rlyf7rdPTnTN97jJ7gcAADAMBMAwIlLV01g409A3QwnmLPj0KAGutXv37on60pXwKiEWMD0BMNy41J3u3KdVvuPdfvvt7TWgKyO2ZOSjU6dOlevCYAAAYLESAMMiV0PfVHUNHHDz0nv+0KFDfeuJ8AqujwAYbk5vHary3S5zz69evbpdA/TK8NAZJnomJ8jmtvSuN0w0AAAwLATAsAhliLOc2V4bK/qpVT+hb4YLzFylwNTSyJ7hA7v1KnUpPea3bNnSrgFmSgAMs+Pw4cOlR2Pv8WnFihVGpYAZSBicE2dn0jM4tyUINtw6AAAwyATAsEiksSKNFmm8mC70TViVnr5CX5iZS5cuNXv27Olbt+644472EnC9BMAwux577LH20hX5/pchoX3vg5nJ9770DJ5JGJx6ld9V+X0FAAAwSATAMMQyh1WGok0D+mQNE5FqvmrVqtI4YU5fuD45seLEiRNX1bFap7Zu3dquAW6EABhm34EDB5qzZ89ec9xat25d+S4IzFx+b+W74JkzZ6b9vZUe96ljjmMAAMAgEADDEDpy5EiZq0ojBMytvXv3loa/3kb0bdu2NStXrmzXADdKAAxzIwFwguDe41dOBNy1a1e7BrgeOWYlDO6dDqSrNq844QIAAFhoAmAYEjnrPMFvhiSbqsEhoW/m9M0SuDGpbwcPHrymri1ZskTDOcwiATDMrZzIlO+OXfm+6EQmuDk5ySLDRE81ElPqWr47bt68uYwcAwAAMJ8EwDDgDh8+XOafmqphIXNPJfRdu3Ztuxa4URlW/fTp01fVudQzPTlg9gmAYe5NNpVB5izdsmVLuwa4URmZKWHwE088MeVvNnUOAACYTwJgGEAz7e2rEQFmV4KofsP63XbbbeVEC2B2CYBhfiSY2rNnT3vtsnyXTC/g9AYGZsdMTt5Nr+D8htMLHwAAmEsCYBgg083tm+qahvH0QjTEM8yu3bt3lzrWlXqmYRzmjgAY5lfqW+pdl+kNYPblhML0vp9uiGgjzAAAAHNFAAwLLD0yMtdov16HlcYBmFu94a86B/NDAAzzr9+Q0Ll8++23t9eA2dSvznXle2c96XCy+wAAAFwvATAskAS+mWt0smGeUzWXLVvWbN68WW9fmCOpZ4899thVdTDrMixfhlgH5pYAGBZG5rrP99De49+dd97ZXgNm29mzZ8sQ0VP9/kuP/LGxMb//AACAmyYAhnmWs79zFnj3R38u16qYpbl9Ye6lEe7AgQPXNH5nvt80vgFzTwAMCychVOYF7j0OpheiuUlhbuUEjJyI0S8IrjISzdq1a9trAAAA10cADPMkZ3ufOnVq4kd+N/St/MiH+XH8+PHm6NGj1zS63XHHHe0lYD4IgGHhZSSMrnw/3bhxY7N+/fp2DTBXcnJwvpNOJvUxvw8zKhQAAMD1EADDHOs9u7s3+L311lsN8wXz6MiRI83JkyevCn9TD9PzF5hfAmAYDOkJ/MQTT7TXLodOGzZsKAWYe3V6oG497P5uzNIoUQAAwPUQAMMcOXjwYHPmzJm+wW+WGVpv69atV4VQwNw6duxYKd16l7ApoRMw/wTAMDhSF1Mnq3xfzeg069ata9cAcy31LlOUJBCe7Hfk6tWrywnEAAAAUxEAwyybLvg1hBcsjPT6Te9f4S8MDgEwDJZ+IXCCpgROwPyaagqhLFetWlVOKAYAAOhHAAyzZHx8vMzhlB/m9Ud69wd6ek+kFwUw/3JSRk7OEP7CYBEAw+DZv39/c+HChfba5e+xCZkSNgHzr/s7M3qDYL8zAQCAfgTAcJPyYzw/yrs/yCNVyw9yWHgJmNKY3Q1/ly1b1uzYsaO9BiwUATAMpn379jUXL15sr13+XpvjpvoJCycj2WREm3yn7X6vrb87M8pURpsCAAAIATDcoMzLlPmZKsEvDJ7Uxccee+yqRrKlS5c2O3fubK8BC0kADIOrXwh8++23N7feemu7BlgI/YLgbrPOtm3bmhUrVrTXAACAUSUAhhvQbRDr/dGd4fEyVxqw8B599NGrwt80Wt92223tNWChCYBhsO3Zs6d54okn2muXv+/eeeed7TVgIR06dKhMcxK9v0mNdgMAAAiA4TrkR/bp06f7nm2dBmvzicLg6A1/czk9l4DBIQCGwbd79+6rehfmshAYBkd33u7ub9SUNWvWNFu2bCnrAACA0SIAhhlI6Jvwt1/wmx6FGU7WcHgwOPbu3dtcunSpvSb8hUElAIbh0BsCm04BBku+9yYITo/9+ns1Um9Ttm7dWkaqAgAARofECqaRoe8OHz5cAt7e8Dc/pDOcrPAXBsf4+PhV4W/qq/AXAG5cjqPdADhToeR4CwyGJUuWlN+l+X1aQ9+oJzDnZOZMYwQAAIwOqRVM4tSpU2UI2e5Z1PXH9Nq1a5s77rijWblyZVkPDIY0SJ84caK9drnOGpodAG7etm3b2kuX5XjbPeEKWHj5fZrfqRn6uf52rSFwvifn921GtwIAABY/ATD0keGzjhw5ck2v31zPD+pNmzaVdcBgydDPtc7G6tWrmxUrVrTXAIAblWApx9Uqx9uMlAMMns2bN5ffrfn9mt+xkTqb6xndqjv9AgAAsDgJgKEjcxHmrOgLFy5cFfymbNy4sQyrBQymDGvXDX8zP+HY2Fh7DQC4WVu2bLlq6pMcdw0rC4Mrv1/zO7b+po3U2/q7N0sAAGBxEgBDKz1+cyZ0fhB3w9+ESDl7et26dWUdMHgyD2GGtatSd3fu3NleAwBmSwKlGiSF+YBhsOV3bL/ewCn5/ZvfwQAAwOIjAIavyZDPmfO3/hDOD+OU9evXC5FgwPXO+xu7du1qLwEAs633OGs+YBh8OXlj7dq1E79162/f/A7O72EAAGBxEQAz0p544onmscceu2bI51zOWdIbNmwo64DBVYd+rnU4DVvpuQ8AzI0cZ3O8jXoMzjz8wGDbtGlT+Z2bOpvfvZHL+T2c38V1HQAAMPwEwIysnOm8e/fucrkGR/nBu3r16ub2228v14HBdvz48bKsjVhZpmELAJhbOd52j7/ROyIHMJjye3fVqlVXhcCREPj06dPlMjBzTp4AAAbRLV/7kuJbCiMn85SdPHmyXK4NVzE2NlZ+CAPD4dFHHy11uNbjDEm5ZMmS9lZg0J0/f77MP1ht3769Wb58eXsNGHSZhqGOxJHjcMqdd97Z3goMujNnzjSHDh0ql7u/izMV0mIZDat+NtW/LcuMBJY5kbOE2VL3qdSlOud2LoffqADAQhAAM3LyAzc/dOsX8VoFMhQWMDy6dTn1OKFRwiNgeNQAuNZjATAMn8wdWqdTST3OyZQ5qRIYHt2TKmMx1OX8DQnjuiVzledvrCFd7pMS9W+H69Fv/6n7VkLfXE5JIJzrWdrXAID5IgBmpKSROY3N9Qt3dv/MYbZz585yHRgeGaKuW5edxAHDJ6FRbwC8bNmy9lZgWDgmw/Dbs2fPRDAaqcsrVqxotm3bVq4Pkxr4ZpSClBr+puTvyvUsU+p3ELhZte4k5I0EvjUETrtT1mdZg2AAgLkmAGZkdHsnRHZ9PQZhOCUw6vY2WrNmjbl/YQilITbH51qXd+zYURrFgOFy5MiRMm9o/Z6d79hbt24tl4Hh0e+E6WH7zVyD3gS/WebvqUFwfj/kb6oBcJb91L8f+sm+00/2m5TayzffaWvgm3qU9TnRMetqIAwAMJcEwIyEDBV79uzZ9trlL+wrV67UMAVDau/eve2ly2f433777e01YJjkeNwbAGt0heG0e/fuqxqzMy8/MHwOHDjQnDt37qrjcX47D8Nw0Pku0Q1983dkKOu1a9e294CFkxOlsm8mDK5BsO+9AMBccroZi974+Hj54VfPwozVq1cLf2FIHT58uJxFXYfO0osfhleOy7UXhEYwGG4ZJjbH5XqMzvEaGD6py/m9HDkup17n93R+Vw+6nBja7fkr/GWQpF5lWPX0RM9+OlkPdACA2SIAZlE7depU+eFXg6L8gF23bl2zZcuW9h7AsEk9rmdM5we0+UJhuKUepydElsDwqvU4x+ccm53QAcMrv5fzuzn1OCW/p/O7+syZM+09Bk96/6YkVEvAlhHAhL8MmpyUkH00JScqAADMJQEwi1rOVK5BUQLg/IjdsGFDeyswjDIEXUoamc37C8Mv9TmNYVkCwy3H5Ryf67EaGF753ZwANeFvHaljkAPgSKCWUntYwiCqQ5QLgQGAuWYOYBathL/dMyvzw3XNmjXtrcCwy4/mNEQBAIPD8RkWl4yqVX9P56TqlEEctaMGv+n5m9ec+Vaf9rSntbfC4Ni7d28ZDrqOnJG6BQAwF/QAZtHKF+naoyjBr/AXFheNywAweByfYXHJ7+iEVXXEjkEMf6v0b0gQXMNgGEQ5USr7aB22HABgrugBzFA6fvx488UvfrF55JFHmic96UnN05/+dPP7wCJz8uTJiXr+lKc8pdm4cWMzNjbmZA5YRA4fPtx8/vOfbw4ePNhs3bq1HM/N0w+LR3rhHTp0qHx3f+ihh5o777yz+bqv+7oyLQuweKS37ec+97nmK1/5SnPHHXeUep7v7vMpgW+G1q29f/O5c++997a3wuB4+OGHy2/anFCRkyv0AAYA5ooAmKHwkY98pNm3b185OzJfjjOsc4aeyrJ+Wc6y7s6Zf+xZz3rWvP/oBG5c6vn+/ftLvU7voe6y1vvM6Z1l6vptt93WPPe5z20fDQyDj33sY6WeR+p36nKt55HlLbfcUpYp27dvb+6///5yGzAcPvWpTzW7d++eqN8JZeoy9Tu9nvI9PrenpJ6/5CUvaR8NDLqjR482f/EXf9EcOXKk1OHU59Tr1O/0bMyyrq/1fMeOHXNez7sBcMqxY8ea++67r70VBseXv/zl0oGhjliX37gAAHNBAMzASgPx+9///vLDMV+IU9J4lCAo61Ly47LKrlwbjOuQT7n8zd/8zXoTwYCq9Tz1utbxWs+zrPU8y6h1PPU7DUyZ6zvLl73sZc2uXbvKfYDB0q3nmesspVvXu8fzHL9TUq9T0pCbknXf9E3fVHoVAYMnvfnf9773lXqd4WF763jk+F2/r6d+d4/nWaaev/SlLy2j+wCDJ6PzvOc97yl1Ot/ba/3uHsej93d5PabPdT3P9jP/b3r/5rUmqH7e857X3gqDIyNiJABOL+AcM/PdGABgLgiAGTg5W/fd7353uZwflfULcS7XhqSU/Mjs/aGZ0v2RWcOh3O8Vr3hFGV4HWHip5+985ztLg1G3ntfGpG497zYqdet4GnlSx9PQk+u5X074yAgAwMLr1vMaCtV63g2Haj2v4VBvY3EC4Ho8z/1Tzzdv3tw+C7CQErS8613vmqjn6cmUut49cbN7DO/W81pqPU9Rz2HwpI7W43nqdvdYXut4reeROt6t56nXWc51Pc92z5w5MzH8c3oAf+M3fmN762DI35+hsjME8J49e8q6jGr05Cc/ubnnnnvmNQjM5/GBAwea8fHx5sSJE2VdhufPb6lt27aV//d8yv8tv+vynS9yLMkxZb7bcLIfpYdu/j+ZwiAyDVH+T5mWKPv9zfqrv/qr8l7XYaBnY5sAAP0IgBko+TH053/+5+UHZb7sp/Q2FueHSG0sjskalfLjKj8eakCU5Td8wzeU+QWBhdOt5/nBW0OhlNqQlFLretT6Xut4GqLy47w2JKWxJyXrn/GMZzTPfOYzy/2BhTFdPc/62mjcbWDsHsd763mO47We53iunsPCSj3/zGc+M1HPU3rrebeOp35H/c7eDYfUcxhMCar+7M/+rNTrBHE5ntdjevc43v1NHvV4nmXqeDcAnqt6nufJdtP7N4FmAuDnP//57a0LL+/le9/73uYFL3hBma4q72OkrSKfpfnelFGNMn/yXMuoDQk5E2pmGP78LyP/p4zc8vjjj5de2vMxklr2hwwnvn79+rKPdfelhMI5oXDDhg0T79dceuSRR5pPfOITZZ986lOfWvbzyH77pS99qfniF7/YPOc5zynz2d+MbCcBcHoB1/oEADAXBMAMjAwPmTMs03hUf1zWALgGQmlMivqjIHobjqM2KOWLen4E1qGgUnKW8Stf+cpyP2B+zbSe1zrerd9VbVBKI09tNE49r41JaSRIY8WrXvWq9hHAfJqqntfgtzYWT1XHs8yxPA3EtcG4Hs9T19VzWDi99Tx1vAbAOY7XY/lkdTzqsbz7vV09h8Hxh3/4h6Wep46nftfS/d4e/X6PR21qmq96nu8L2W5+C6QHcMqg9ADO0Nn5u1//+te3a/r73d/93fK96Vu/9VvbNbMvQWb+J1//9V/frunv85//fPkfP+1pT2vXzL78j7JfTDeCU3opZz9LEDxXPvaxj5X/UXqmT+WP/uiPSh148Ytf3K65fjUATg/g+h0ZAGAuLHnT17SXYcHkx2W+1OfHZb4E50zI+kMzX4jTYJySL/0paVCqJeq6ensanWoDc5bdBqicEbx79+5yRicwf7r1PHV8qnrerd/RXVfrdUqt61l275N6/thjjzV33313uwVgPkxXz2ujcW+d7ZZax7PM/Wo9r6U+Tj2HhdGvntdG7AQXOZb3q+M1DKrXax1Pvc5j1HMYHAm5uvU8dby3nqeedut56ni9nFJvn696Xk8qSRCcIC9l165d7a0LJ71K06P2da97Xbtmchmt7LOf/Wx5b+ai9216Rad39HThb2TY44MHD5bL2Q9mWz3BbybT9+R7ZE4WqPvTbKvDPU8X/sZdd91Vek9n3924cWO79vqkB3bqUT1pKvUBAGAuXHtKNsyzDCmVuWfyY7JfY3G3ESlyVnHtFVRLfujVs43rD858ia69jrK9lPxozXaPHj3a/Mmf/Em5PzD3PvnJT5YGhFrPUxevp56njnfreaSO53Gp57WOdz9D0sCRzxdgfsyknqeOp9Q6Xut2GgG79Tyl3jePy+OznWwv21XPYWFMVs9TaiiU43O+i0e3ntdjeq3jkTqe4796DoMj9bz+Pu/W8VxPPa91vLee1zq+0PW8vq560slC+8AHPtA88MAD7bUrfv/3f795y1ve0l674g1veEPz4IMPlvd0tmXu4X5DTD/00EPNn/7pn7bXrkggnXC+/i9nU9pk+gWoWZ/9r1eC4uwnc+G//Jf/0nzTN31Te+2K/B/+43/8j+21KxIUZ3+92f9R3VcBAOaKAJgFlSF/vvCFL1z1wzIlPwq7Py4jPzrqD8o0FE9Wcnv9sZfH56zK7o/XusxZm5nfBphbqecZaqxbx1Oup57n7PDu9dyvW8/ToJTt1QaluszwWuo5zL0bqee99btbz3N7bWzM4/L4bKfW7brtLNVzmB9T1fMa/EaOz9Mdx+uxvjaeq+cwGLr1vNa/LPN7uo7ikUA3eut5t6TOL0Q9r981sqyXF1J6/vYLFmOqnp/33ntv85d/+ZfttdmRobEzr28/+Z9O9n5ljuDaE3i2ZJ/InL/9TPW/S1tOhg6fTfv27Wvuu+++9trVuvt7rwyNnTYlAIBBJgBmQf3/7d0HvCVlfT/+WdhCWerSexM1llhQ0QiaqMGu0Rg1MfrznxhL7GjExCSaaBLErok99hpbxBJFjS2KiNhAQYosIH0XdtmlLAv8+Tx7vuvs4d7de3fvXe49vN+v1/OaOdNnzsy5Z+7nPM/kWTi5kcxNX77M181l/RMpX7b7TTnVzWRuCPbZZ5/ud37nd7qDDjqove7/YynTVziUZWR5tZ66wcyN57e//e02DTB9pvs6z/xZTpZXtQrqhx4Z5jqH6ec6h9E3Hdd5hUOZL1zncOta33WeazyGg9+xrvNMO9Z1Pp1/z2v7si2bS2rOnnrqqd0nP/nJ7r/+679ayesMr/HjPXqqPjfH8ru/+7uTDheXLl3aXXjhhe0H9gnTUxLcpinvSM3a8ZpbznaMty177LHH2mVMRt77PJM5tXZTsv68znmR5pzz/5ix5P0b7z3MeZJlTKXUcE6zzmNZ33uUADhNRwMAzGRzbv4SPjPaxeE256STTurOO++8brvttltbcgOYG7/8GjY1f1LqxjI3jXlWTW5I1+fnP//52iam6kY1pf4ZlZuNPGcov27O82/23Xff7j73uc9gbmAquc5h9LnOYfRtjus83fpnu+scNr8NXedR1+bGXufT+fc8/9pK7dDUdM2yEjgedthhg7FT52c/+1kLV7NPKdmXCi2zDQm883lY+/fEJz5xMOeaZ6iXhLX1nOJ89mX6ww8/fG1I+453vKN71rOe1frHk+OW5pKzvv52lAzPNtVndN6vkmcTlxz3jE+T3JF5EuhXSJvHZ03kWCaczT71t6O69a/H2p5+889Zf8kxyzR1zkW2K8coUks8ofREZFnZnpzHNf+wE044oXvIQx4yeLWmOejIdue5wFlGnoec45v39i53uUu7NiKB/xOe8ITWPxlnnnlm26eUHOMNXUMAABtr7J+ywWaQX7TWr37TzZfe/s1l1K+L8+U7X7Qn8sU40+XLfebL/KVuOrOuanYq/bnJBaaH6xxGn+scRt/muM4roAjXOWx+G7rOc33O5L/n2aZ+mWqpYfvpT3+6BacV3qX2ckr1p4ZqSu1LSl9qm2b/UnI8EiomCM4yM6wfhG5IQsSEv1lG3ocqOab1vlU3Je9BX9ZVJYFrjlkF8amxm+B0ojJ/5sk+ZT3DJdtY3Sp9mS8ltYMrKO4P6583E31vlyxZ0vY/703WHamxm1ru73//+7vjjz++vafD71Ga7U5J0JxQPutLTeq8TskPDAAAZostX3mzQT9sNj/96U/bL3Jzc1Q3TblJyhf03AzkS3++bKfkC/+d7nSnwZxr5Ob09NNP7y644IJW8qvhRYsWDcZ2rT9fzvNlvX+zUTcLWX5uImr5ubGY6K9IgYlxncPoc53D6JvMdZ5rME3A9k3mOs817jqHzW9U/p4npM68CS9T9txzz8GYTfP973+/++Uvf9mOSZWE1gkP+6FryvC+pangkqad87zZlASUCVuf/vSnd/e4xz1aDdsddtihTZfjkRDy0EMPba/7Mk+CzP76KuDNeqtk/f0S/Sagd9ttt7Ul71eOe549nOOe45b9i2xLguHUgh1L5k2p9Y+1HcPbE/0fD9QxzfmX8yAl66vzMcsseX8z7XgS0CbU7p9/kfMy4W9qiWd52d+E6NnfvffeezBV1455lQTEWd6jH/3o7g53uEN3xzvesQXKkXM1NYQPPPDA9noystwK7McK5wEApooawNwq8uU7X3ZzU5FSNy71xbdqAOTLfX4x3PejH/2o/QKzf1ORm6dTTjllMMUama9uIqs2Qa2j1l03bPklLjC1puM6z/C+9V3nWV+t23UO02Nz/j2vZYXrHDafyVznd77znduw4u85zA6j8r29vw0VNG6qH/zgBy3oqzAy3Qorq5ZvSm17/zimfzzrG5dms8cKf3OcEx7meKVU7d4qdTxT6hj0j8l4Mv14EkQPh6klwW/ez+H1TqSMZ33vW8LbHOvxVA3qsbY372NtY/94ZR+y3LFkOxOAjyXhcZrJBgCYyQTA3CryK8rcsOSmJ1+86+al5IYwN4cpffmla36pGfkynnnSzRf3/ML3rLPOauNK5s8X9rrBjPqyX+vNNuRLPzC1puM6z/CJXue1vqzfdQ7TY3P+PU9xncPmN951nmu2DF+fUdd5BRD969zfc5hZRuV7e21D1p/+TXXiiSe2ZpYr8K2aqhX4Vsg7vA/9/ixjLPlsHC/sHCsATqie45Jl90vWk33tLy/Hdzi4zLgE/WMZbzsiAfBYtX/zvN+Ev1n3WKW2Z7wyXugaGT+WnKfj1f5N+Jv5EtKP5Yorrmjja9si3dRMP+2009rrYWP9bSt5DnS/djcAwEwkAGazS/NQ+dJdNyvp5gatvoyXfNHea6+9Bq/WyLNx6oYi81SpeXNz1rf//vuv84U902TazNNff4afeuqpg6mATTXedZ6S4cV1DrOXv+cw+tb397zk2kwZbmq1rvO6Vqts6Dqv0MJ1DpvHKH1vr/XX9myKNImd7a/wt2r8Vuhb66p9HS61P/lhW2ruDrv//e/fPeEJTxi8+q00U/zABz5w8Oq3EphmmRUw136mZBuiwvV0+yUyTQLNqiXbl5qst7/97Qevfiu1XPOejSW1wfv7m+VX6Q/v60+T0j8XSppY3nHHHQevfivvRzWRPSzLSThczTOPZeedd17neET60wT2ve51r+4Xv/jFYOhvpcnu+973voNXv/Xtb3+7u/vd7z54BQAwc637bQw2gzSfVDd2deOS1/2bg3wRz5f48ZoaqpuJ3DTUjU/dRPRtv/32a2+ASqbN+jJf3ZSlP7+oBabGeNd5X12XY13nuZb713m/33UOM4O/5zD6JvL3vAxf53Ut96/zfv+wus77XOcw/Uble/t5553XPeQhD1nbRHKWsSn+93//twW+Ves3wWvC31p2SvYntUDrmbF5Rmyej5wAs/YnQenXvva1dpyHJVTu+/rXv97W2X8mbaRJ7ByXOjapXT28vLw3u+66a7f77ruvfY5vAvv+svJ+pCbsWCFw9q8vtbezvrHC2Mxf73O/1Pu/IXVuJBwf/tyP4WUsW7asDRvexnLRRRdt8JnR97nPfdZ+L63a7CkJeSPv1Y9//OPWX/L+5Hj2JfzNduy3336DIQAAM5cAmM0uv8ysG4TcvOSmom4U6ov+eDcOdaNQpT/9RNQ6Mn3dPOV1+nNjBkyNDV3ndQ2PpYbXNBuaflh/Ha5zmD7T9fc8ZUNqHZnWdQ7TZyJ/zzekruuavubZ0Lz9dbjOYfqMyvf2zFPzZjkpGyu1j6uJ5wSyCfzSrfA36znooINa4DqW1JpNGJxtybwpv/zlL7uTTz55MMW6EvB+6lOfamHkkUceORi6Rt6fel+qJJhMjdZsR5ad/vVJDd9se6ZPSW3ahKZjybg0iZzg88ADDxwM/a28L+O933ldErRW2F+Bfz/4r/kSAo/X5HfWlcA6NXsTto8l4fBYIfWwBOEPf/jDWzCepqtTm/gRj3hEt9NOO7XxCfKzv1/5yle6s88+uw0rCYpPP/307vOf/3yb5vDDDx+MAQCY2W75HzmYZnlWTG5g6gt/St2I1A1EGb7pq5uHKsM3FGMZ66akP6y2JdsFTI26zvvXel17KX3j/XPHdQ4z24au87wuk/l7njKW/jVdr/vDXOcw9fw9h9FX13ldZyl17aX0ba7rPK8TDE5G7UO6FQJvrNR+Tfibmr8VAtcyU/phZJ6Rm+fBpiQkrJA386VWboLXWlaOz3e/+91W0/dLX/pS99nPfrb74Q9/2Jb3x3/8x2M+azcBaK23tiHLzPLSP94zb4elhmyOT45t5su25JnAacY7zYBn+y+88MIWKKcW83bbbTeYc105X2o59Z5FXpfh73XD50TN058/TVwn7F6xYkW3fPnyFkRnmQlos73jyTwTPQZp7vlBD3pQ99SnPnWd8LckSD7qqKPa+lLT99Of/nQrec+yXY9+9KO7fffddzA1AMDMJwBms8sX9HzJz5f5/k1CqeH50n3GGWcMhq5xhzvcod1M9JvsqZIbiuFmePLL3VpelVKv66YjzSgBU6Ou8xi+7qqbMtZ1nudPjXWNV5nMdR557TqHqTfedV7qepzuv+eR165zmHqT+XueZ0X2+XsOs8Om3J9P13Uek73Oa1kVkg4vu2woWM73kwSQaYI6tWQTRGabqvZvjlfVuD3xxBNbWJx5Un7zm990F198cQsPI2Fh5kuomvUmLM4ys/wMT8nzZ8d7tm2kueU8QzjzJgyuz8CxmpTOctOM8bnnntuaxB5W73P2o45T/3ilyejhZqmHZRn1HkUts+Q49EPfsUrUcjJvv9TwlGzX+qQm74amGUvOzfU54IADWk3sxz/+8a084AEPaDW6AQBmm7G/EcNmNPyFPyU3IdXflxut/Ho2X9jzZb9KXmee4WflZP66qanljbXc2NBNALDx+tdd9W/MdZ5/nkzmOk/pc53D9Bnr+tscf89T+lznMH3611z113U5zN9zmJ3Guv425u/55r7OM38/PEwZS9a9Pgl1UxM04W2CwEjtz2x3miq+9NJL27BIcJta0Qlos/7sb2rOpsZwSchb3TQznKajs28JSjMsTUOPJ80bZ/lpjjnNOOd4Zzuyrur2ZftS63h4eKn56j3ovw8ZlrB7feo9Ge8YZ59K3v+UnB/DpULgqOVkG6pb/ePVOC8JwvvHeiIS7KfmcwL1ycix6u8fAMBsMPa3QphGaaqovvDnC3T/S3T/y35uQHJDlF8J993jHvdoNx65GcjNZbp5fc973nMwxRqZr25u+jcSpdZbv0Kd7I0DML6JXOd1fW7Kdf7zn/98Utd5/uEATI2Z+vfcdQ5Tx99zGH0z8TqPjbnOE+6lCd/U3nzMYx4zGLqurD/buD5pUjiBX7YhzQSneeJIbdx+888JOBO4plnkbH/2a1iWk2Oc5wWnm/kTMOcYxVg1eUsdk3RzrHL8K7StY5h1p2ZwBZqZJsOzbcOy7xnX7/aXl/dvffr7WN3M21ef0xPRX1ZKbUeVOkbjSa3qiZ4nCYvTzHVC7uxHanKn9vaG9rnkuNZ5AAAwW6z7TQ02g9xM5Yt8St0c1I1N5Et/bkJyw1I3JsO/ir3f/e7X5q+by7vf/e6DMWuccsopbb66QaqbmlLr62+HfyTB1JnIdZ6yqdd55p3Mde6HHjB1Zurfc9c5TB1/z2H0zcTrPK8ne3+eeRKsfvjDH+7+67/+q3vve987GHNL2cfxJCSsfc4297c125Z96Ms0WXf2fazlZnxK9ifzpuR1rePXv/71YMpbSs3jhQsXtoA3tYyr+ep+YJp1J8RMsJkwOSFlQus887cvQXHtU5XahpQsLwH3+qSGcV/mGUuOQ9ZXz/WtktdjLWO41PANNQOedeS8nIjzzz9/7fldJccuTXJPRI7R8LYDAMx0v/3GDZtJbnzyRTulbu5Som4+cpOVG5K6QcoNzemnn96miUyT59NkeH5xm5vWkueP9W+s0q2btpSoddf6sxwBMEydjb3O8w+Xsr7rPNO5zuHW5e85jD5/z2H0jcp1nnkTGqZZ5gSgCYPHs77QsL/vkdC1tj3zZT3l4IMPXvs648u9733vQd+aIDPLyvh+qf1fX6iYeXMs0wR0ag8nCK797C+3psl+p6Zx//hHgtIEsDV9rTullpWS4z5V8kOdPE8421Ilr7Mfw7IdfdmWSEi7PrUvE5HjXMvrh8B5bvJE1XYBAMwWE/umBFMoNya5scgvZOsXwvniPdZNZkrdIObXoosXL27TRJ6fc9hhh3V3vvOdB0O69uvN/Gq1bqpygzbWzWXWl/WmZFvSzY0qMDUme53XNZtfuZ977rltmhjvOq/ncLnO4dbj7zmMvk35ez6R69zfc7j1jcr39tru7EOWkbI+mS7TD0tQmO8q2a4EpwkIEypne/N833w/6YffWU7CzQoH86zeklqnta+1vyXrzrA813c8qQGb/YrhQLwfkmYbcnwTAPebqI7UDK7wN8c+8/VLX8ZvLrX+Oi7V7W/T8DEblveoztMNqeB5+D1PDeuJqvdiKtR+bmgfAQA2hW8abHYHHXTQ2hvMfrf/5T1fglPqRjE3IvnHcT3XpuRGrO+8885bO0+VWlbUOmq9uaGq9fdvVIFNM9nrPNd3lUsvvbSNL65zmJn8PYfRtyl/z13nMDuMyvf2zJtlpVvLWZ8KIIel+eqEvmeffXb3m9/8pgWqCX4j3d12263t9w9+8IM2LM9A3n///du6EyamVnCcfPLJLUAeaz0VVmeeu971roOht5T1ZV0XXHBBe75xlp9jmHkryMwyUjP4wgsvbMF1X5qNzrrqvct2pH+s/c7yaj/HkxB6OEAdS5affa8wvUpe1zEZy/Dw/GBgfVLLeEPvc0kwn+UPr2O4qezxpCa4xw8AALPNmm/dsJml6Z+6wevf5OXmpeTGJP8oTunfMOZ5Q9VMUt345FetP/vZz9be2ORmtP/r4pLl181llazfF3mYeq5zGH2ucxh9rnMYfaNwnR944IHdl7/85db0c5ax5557DsaMbbzanDkWqX287777tpJQO9uZ/YosP6F5gsMErJHpomr/5gcw1RRzQtVMn/3OMrLejMtys+9jNYlcMn+mzb6km2mzjByf1NxOmJljmm3Ze++9bxHAZ531HlR/lVLvWUqWtT5ZTql5+rLcClmzjdneHM8qeZ3hNU1/O0p/mf31jSWBdD0XeUMy7aGHHtoC/aw725LXE21qPMF1zuGplO0AAJhOt/y2BZvBfvvt127K8mW9usM3mXVjUjeM6dYNSd0k1Y1DbsJyQ5Tpatq6oaibiv7NZdZX607J9gBTa7LXeb+E6xxmPn/PYfT5ew6jbxSu8wSHtZzYZZddWncsWXdtx7C73e1ua/c93WxPunUcoubtPz/2Tne606Cva81e99W+1jJruXm9vn1NaJrAuObNcqr28HAAm+ObWrapDbx06dJW6v2q4z68z7WsLDcl79v65Ptbf701b+n3T8TwvCn97dlQIJ1zq358MBE5RqnBXYF5Xk9U1jOVAXAdx/4xAACYamN/44Vplpuq3MDkpie/pKwbtbrRqi/B/RuVunG84x3v2MYNy69i6yY0Nwp1s1A3D1lu/2Yr603JTU+aeQKm1mSv81yzuc7TnYrrPOtyncP0urX/nrvOYfr5ew6jbxSu82x7LS+1gceTZ/hmfdn+8WQZWV6V2tbhY5EAMc8DTi3oKnldYXfJPNmvLKt/bPN6Q7LOzJuS/v7rLLfC2EhAmecA57nCqdmaY59tGQ466z3IvLWclImoaWv6fohZ50fW1z+G2d/qz/A6Pv1jtDFyTk10u/vqXJyMrCfHc6rU+zL83gAATKUtX3mzQT9sVrnRyPNs8qW/bgz7NygpwzcV6V500UXd5Zdf3ppbyvzp5vXFF1/cvsjnRqf+uZxl101N3Xjkl5v5RW5+Hbty5crukEMOaTenwNS7ta7zXNspdZ3nWVx77bVXWw8wtVznMPpc5zD6Zsp1vjH35xXQJkBOk8tZ53hqe9Yny0sN2v4xyLanm+2vkmOQ7U1t5yppPjq1cOuYRfY321f/j0jJtiaoTlPO65N1ZNr+NkR1azvSTY3hkjA4x7i2o0qmTck2pVSonOOWJqcnIvMNLzelVH9/XG179df4UvtQ+1NNhm9Ips/2bOg9jTRN/otf/KI79dRT23mafZ5Ic+M5L7M96zuvJiPnR5ZV+5hzDABgOsy5+cvSug/tgM3oU5/6VPvCm+ew5Mv3woUL201LvgxneG4M8uW/buhyw5Tn64z3xfvMM89c+8V8eP7Mm5vKhL/51W/98vdP/uRPBnMD08F1DqPPdQ6jz3UOo282XudZXoXJCVbTvO9U+OxnP9v2P6FojkFK9qXCuqy3wseUvM7+JdSs4DivI+OrhnMF3tnvxz3ucW38hpx99tlt3Qk5082xrGA6sh0p2d6+HNMKXWvabGdK3r+UHLuUBNkTtWzZsnX2sfa79rcv6yrjja/tT38dz5yDE5UfIWzoRwMJ9L///e+vPW713t33vvdtNabXZyLLn4xcF3V95dqYSHgNALAx1ADmVpVf8f/85z9f56Yh+jcodTNQ1vcsn9yI1M1Q5Aaibi5zM5gbzP6vix/0oAe1Gzlg+rjOYfS5zmH0uc5h9M3G6zwhXgWZeb7rVEngl+C1v+8l+1HHIccstX5zHNJNSdiYcZku25f9rX2u8sAHPnBCtU8jIXRqr/a3o/8eRF4PB/FVAzhqe+s96JeE+PUeTUTWU8uu5Q93S00zPDz6xzH9VRKOjjX9eBKkpvb5cADed9JJJ7X3IvuZczuyjpx7++yzT3s9ltRkn+oW41IDOKFv/TBiMsceAGAy1ADmVpdfP/74xz9uX9ZTcnOz9dZbt5uhfCnOF+KoG5Xc3OWLe0qG1Y1pTdv/Qp/xmT6/tM1NVm4q80vblDyr6C53uUubDpheeR5W/pm0ua/zu971rt0d7nCHNh0wvVznMPpc5zD6ZtN1nn9n1fKyrqn+kciJJ57YmrPO/lep/ap9iuxXGR5exyj7WyVh8eGHHz6YamIuvPDCFiLX+uvY5lgPr7P/OuMjx6reo9qmdFOjeGOa1s9+ZHm1/iq1vv42DKvjlW1Kyesq2acc58nKORQ5Z8dy/PHHrz1u2cast47Dox/96MFU66oa1OMtc2OdddZZ7bpK0K0GMAAwndQA5laXX8hecMEF7ct1GetGoIaVfBGvm8m68SmZPl/mc4OUm8H8qrN+VZyy4447dve73/0GUwPTLc/DujWu8/vc5z6DqYHp5jqH0ec6h9E3m67zLLfC56kO6SI1Q1NbM7Vvo38Mqr9C1Sq1Pakhm3Cx9rnC39RSnmz4GwkLM3+WV7K+qG2p9yPdKsPblfchJduWUH9jn6ue0LKWOZ7+dqyv1DYmnN2Y8DcSZOfYZL/SPyzNOGe/67ysdaf559SAHlaBco77VEsN8WxjvzlvAIDpIABmRsjzZvKL1jQR1b8B6Jcanm5UN9KfL/Lp1s1MvvznBql/Y5myww47dEcdddRgTmBzqet8+fLla6/n4VLD6/qubqTfdQ4zm+scRp/rHEbfbLjOa91Z/nSEv6VC4JTa9wpS+/39kvA3pfa5ysaGv6WaRk44mX2vku2IOibD47JNUxn+loTAtY5s13CJjO/3V7dK5k1JEJpt2hSpTZv9zPEZDpLzTOH8sCHbUtuRae9+97vfYtolS5a0ZaWW7nRIAJx9TUkIXMcHAGCqaQKaGSVNTZ166qnti3C+hOdLdzWJk5IvxvlF8fAX5DqNc+OQL/EpdZOZUr+4PfTQQ7t73vOebVrg1uE6h9HnOofR5zqH0TeTr/NaboxV43OqJQD+xje+0daVfa+am9n/lJJ9rv2usDVh8B/8wR90O+2002CqTZdHaWX9tQ31XgzLe5HSfy8Sauc9nUoJ8/vnQ50TY50b/ZLtmo6gNbW2U7O8L+9hml++5JJLWiCcR4INvydjzTfVzjnnnBbmp8nyXFdjvW8AAFNBAMyMky/lX/ziF9uN1fANZj2vpW4qSt045GYm3dxk9W8w0/+ABzyg3egAtz7XOYw+1zmMPtc5jL6ZeJ1n+Vl2AtapDjI35Cc/+UkLEbPv/fA1JdvV3/dsX2pT3+1udxvMPbXSTPdll13W1lnvQ9R7UduTku1JsJkmvqdL1pNwv45HbUe6GVdqm6b7vcs6cr5taD0TnW6q/PrXv24BcEquJwCA6SIAZsY699xzu//7v/9rN1a5ucwNZ91gpVs3E5HTuG4u080NZX5lm/78ovj2t7/9YEpgJlm8eHH33e9+d6Ou83quluscZjbXOYw+1zmMvpl0nddysx23ptTCTeCZY5MazanNuf/++7dQL7WbN6cE9dmGenZt3qcEjOlOZc3jyarzoM4Tuu78889vzZan3NrnMAAw2gTAzHgXX3xxu9HMLzJzw1A3mbnBTMkpnFI3gSm5Gc0vivOMHWDmc53D6HOdw+hzncPomwnXeZZd64PZ5tJLL23hb5qABgCYTgJgZpXcPObXtUuXLm1fmtPc0aJFi9qN5C677NJ+bZsbUGD2cp3D6HOdw+hzncPou7Wu8wTACZ1hNkrT3amdDQAw3QTAAAAAAAAAACPCTyYBAAAAAAAARoQAGAAAAIBZIU1AAwAA66cJaAAAAABmhQTAc+bMaYXp96AHPaibO3duN2/evFbSn2cwp6zvfRhr+PC/IKf6X5JjrbM/bHh8f/3j9cd4+xj9aYeny+sq/dfDahkT3Z4y3vDxjLXuiap15fpLf54Bvnr16lauv/76Vr7+9a+3aQCAmUEADAAAAMCskAAq4VPCSKbfQx/60G7+/PndggULWjclIfCWW265NgSerPwrciL/juxP019Pv3+sacbapvG2sz9/9Q9v2/C6h8fn9fA0Jf3DZVh/vf1lD6+njDd8osbahg2pddb1V6HvqlWruuuuu66V//mf/2nTAAAzgwAYAAAAgFkh/8aq2odbbbXVYCjT5VGPelQ7zltvvXW3zTbbtCA4rxMCDweaeW/6r4fHVTelapKW4VCyP65MdJrh2snVzfBh2Y6o7UqpbRuer15HTTesv+6U/uvxlhP97egbfh3D0w53o7+O6q/uWMdhfTJflp31puTau/baa1voe/XVV3fXXHNNK8cff/xgDgBgJhAAAwAAADBrJABOidRIZfr80R/9UQt+t9tuu1a23XbbFgCnBnZqAZcKCGN9gWlK9Ve3QtK++nfleONjeJrIdFU7uT9fja9uyby1LQk2+9vWnzf9NW+NTzdqO2qa6va3oz+8b3gZ9boMv47+POkfa5pS647++oe3Yzw1Xa0jxyi1fhP4rlixopWrrrqqBcGf+cxn2jQAwMwgAAYAAABg1qjQK0FUwkmmzxOe8IRu4cKF3Q477NDtuOOOrZtjnuA94WC9FwkGKyTsh4z9ADGlam+nv/8vyYSTw2r8WMFlLW94GRnfb6K6SlR3WLantinbV8vuz9/fhlpvTZcS/emz/npecsLyGl7T1TxR/dWtHzcM60/XL3UManytp45prbtf+vpBfq27hg1PW80+J/hdvnx5d8UVV7RuQuD/+q//GkwFAMwEAmAAAAAAZo0K3xJEpSSUZHo86UlP6rbffvtup5126hYtWtSOdUo9gzmBYN6LdBOilgoaK4it8SkVsj73uc9t077lLW+5RdAYmeb5z39+6/+P//iPtSFsBZ1jhbUVvFb4WutPieqWzJtt6m9fzq/nPOc5bfw73/nONk+WV2qdNW36I9NlG2v9OUa1Hf0a0+n2Q97ajxpWyxtLrbvmyTb0hw/vZ7pV+sciZUNq+uHtTvPPy5Yta+Hv0qVLWzevP/7xj7fpAICZYcN/7QEAAABghkjI1q+RuXLlytZl6uU4J/hLgJmSmr/VX8e/gsiUBPLVn5LAcDj8zTR5fmzJ+PFKqXlTErqmm2H9aet1rSvb1R/X387qr2lqePqzfSXryTTDJdPWvtS86c+wWkZ/venPuOGS4VVqGbW8scpY0z7jGc/onvnMZ65dXnUz/C/+4i/Wbm9/3uHS368qmTbDosLg/nmQkoC7xgEAM4sawAAAAADMOgmoEiSmRuIuu+wyGDq1Eqw97WlP6+53v/sNhty2/Nmf/Vlr+jm1f3OMd9555/Yc4IR+Of55FmzegzwXONNGausmQEw4mAA58u/HfkCa7t/93d+1ca9+9avb8oYlfKxpXv/617eQMcurWrdHH310GzeWt73tbWuXmfkqoBwOKiv0rG1Kf5b/N3/zN238m970phZ01rIyfcbnGOS8GMsb3/jGNn2C0n5t4P52VLCabtad9aa/hte/a+v4lRqe6WpbX/SiF7Vhxx133DrrqOF5P6L/o4nqRr8/y+1PU2FvdTMs25tmn6+88sru0ksv7ZYsWdL6P/KRj7T5AICZ4bd/4QEAAABglkgYVeXCCy8cDJ1av/u7v9t9+ctfHrwiKrRM8JsAOKXC30jzyamVnefEXn311a3kdU2bwD6lpL/GpdRy11dLOGFyqdC0XHDBBWu3r5Zd6093uNQ21rT9bavlpNS60xz2eOFvJHjNMrLMWmeekVvdfqnn5+ZYVRl+ndI/jrXNw9ta+1vl3/7t37rXvva1bfpMW8voL2eskvWnW9uebpZdtZoTlJdcezEcVAMAtz41gAEAAACYdRL8JZRKOJWQbOutt241VKfSj3/84+7tb3979653vWsw5LblKU95SqsBnNq/KenPca5gNAFh3oMXvvCFgznW+Id/+IdWC7ZqziYgrNq8w1LbNuNTU/Y1r3nNYOi6+rWE877n35mveMUr2usst2q3Zpp+s8RVk3dYwtGSZb385S8fvFrXv/7rv66txRtZd7/m8ate9arWrX+vvvKVr2zdhKxVE/iYY45pw1KbuNTxSq3d1ORNqFr701fL/8d//MfW7at1Vbcv89U8OXZlrHVkH3P81ncc3ve+97X3fcGCBe113veE15dddlkrqQH84Q9/uI0DAGYGNYABAAAAmHWq9m8Ff0uXLl2nduJUuPvd796WfdZZZw2GTK9TTz21e8973tOC0ISDH/3oR7uLL754MHbDEiamWd6pVOFmv+Zv1pNapumvMDPbne2PqgVbtVTHC38jAXLKeOFvZH1V+7Saai4V+tYzaTMuJcscz+1ud7u2XQlqxws9I+usdafbP78Ssta2VKkfCmyzzTZrj09JaFql1Ot+MJswtdz+9rfvDj/88MGrrrviiitat2rl9pf/05/+tDvttNO6D33oQ217S003Vvgb2f8chyxzPKkJX8up96GCeABgZhIAAwAAADArVU3PdFPOOOOMwZjJO/nkk8ecP7WKTzrppMGr6fOFL3yh+5//+Z/uiCOO6P72b/+2e97zntcddNBB3bvf/e7u7LPPHky1fqmxPB1hdcK+KgkAEwQmBOwHjTl2qSkaaSY54xLCVu3ZSDD8ghe8oO1byXKqZmkkUM50/Zq2FTbWNvSD2H/6p39qtWATcCZovutd77o2kC0Zl/KpT32qvX784x/f9iGhcXnpS1/aveQlL2ndMrzOu9zlLoMxa7a7Py7rO+eccwZj14TH/RA6gXCF4iWvExaX7Htq7ub9jyc96UndoYce2vqzLf/yL//SajWnhvXwPqYG7gc/+MEWAveHZztSe7e87GUvW1tKhfAlxyrH9Ctf+Up7fY973GPt+lJqvwGAmUsADAAAAMCsVE3/VgicIG7x4sWDsZOTZRx77LHdM57xjNb9zne+04an9uNPfvKT1t+XAHGqakCm1u4pp5zSnp+bWp/Zr6222qrV/nziE5+4tlbvN7/5zRYS96Vp4dQaTQ3Qr371q93//u//dv/+7/8+GDt1+mFoSoLAxzzmMW3cueeeu3Z8SXCZ13/wB3/QXufZsnk91jF70IMe1LqpxT2WvDc5JpFu9UcC7wSv559/fveb3/ym+8UvfrHOdpSs90c/+tHg1ZrXf/iHf9j6E8rm9fC21fk1lpo+66r96q83/f2guh+glvQ/4hGPGLxa816++c1vbkFvSRPkkW1JrfC//uu/XrvulGHDw7MdCbxLbW9/W3fYYYd15kl/xv/gBz8YDPnt/gzPCwDMTAJgAAAAAGalCuj6JSHgxkgtxwSnT3va01r4+olPfKJ7/vOf333/+99vQV2/FnBqnf7Hf/xHq6n5jne8YzB04yW8PeSQQ9apDVoSpN73vvdt/dm/BN19Vfs5QXX2IaFmQsKpUKFgdYeDv4TVccABB3Sve93r2nNvy1/91V+1bmoDR2qhVnibUrJP9ezm7bfffp33tNR+90tJDek0vZz3IWFpgvmM76+jltmfL4a3LdP056vl1Dqrieu+/jEafgZ1jYv05/j1h0U16xypcZtywgkndF/72tfafiV0Tc3kajp6//33b8c6+tta2z68D/3+8QzPk9cpw8cLAJg9BMAAAAAAzEoJrapUaJWysRIE3v/+92/NFL/tbW9rNYGrhmYC4Re/+MWtmd6ErGmm+F//9V9bE7sJcDfF5Zdf3u21116DV+OrILIv+1vNLNdxmC79Y7zddtsNhnbdJZdc0p133nmtqep+M9rZ1jRtHdnGKvPmzWvDIv1Vq7nG1XQlw6oMj6vXWVcdi/T3pxlvvs9//vODV789tpm2pD/NU9e6+8c2TSjXuVeOOeaY1s0xqONU6r3pT5/XqdVdchxSEgKnm9rNtV350UG/2ebdd9+9DS+1fxm2vv3MOmuZZfny5beYp/a51LDh/QIAZiZ/rQEAAACYtfrBWpWpkkD4wQ9+cLfnnnu2WsGPe9zj2nNj08xwyTSpdbopsv3DNUPHMta+1f5X/1Tuf6naq/0awE9/+tNbN01uv+c97+ne//73dx/60Ifas2jLv/3bv3UrVqwYvOpazdXXv/71rZQEi/1pXvva17bgPeF66QeSw8Hka17zmu7Vr351C0hT8nzcmr7kPUvpD0t/mqUu2daULK9kmgSlmTfLTP9nP/vZNm7hwoVtvdnObG+2u+RZyMNBbKZLyTpKlt8/d1KDOiXHKSXjH/7wh7flp7Z5nstbrr766nX2p45DSn94+vv7mWXVvpZM059nrOPVD33rXKgazRM5dwGAzUsADAAAAMCsV+HndASg97vf/dpzYlM7OEHfbrvt1moAH3300S2Iu/e97z2YcuPsuuuurQbtRKxv/6YjjBtref1g8/jjj29NVycITzflDW94QxuX0DA1aF/1qle112PJfAnX1zdNltEvCSfXJ01J98PLzJN19JvYrvX2A99htb4sq/rzrOHPfe5zgylu6e/+7u/WBqop/aB1WPYj29APdvuyvgc+8IGtP8/pzTaXBMwZX8+q7svwUtudYHgs2f9sQ3/Z6a/jU7KMvO/9IFjwCwAz15yb/1D7Sw0AAADArJTn8yaczTNS05TtsmXLunvd616DsVMjtSYvuuiibu+99+5e+tKXDoZOnSVLlrTnDz/3uc+9xXNkzznnnPYc4j/7sz/rfvjDH3ZXXnll95CHPGQwtuuOO+64Nl8CuzQbvMsuu3SHHXbYYOymefKTn9yCxzwrNyXNPidETfiYZ9OmBmiOf0r+xZhu1Qrt1xBNN8b6N2QC7YSKNU36a1jVok2QWsFjLTdNb9c2RI3PPOmv11GheX+7It3+MqLWWzVgK/TMNNm/rDe1dlNWrVrVahyXv//7v2/rqu1Ot9T21Lr625dh2bZ+uJ/x/dfDx67G9ZfT7+/L8vv72Jd56phFtjvLrv2u459uZDmpUZxrbenSpe0ZxjknP/rRj7bxAMDMMPa3AgAAAACYRfph2VRKk78PfehDuze96U3djjvu2F166aWDMVNn0aJF3eGHH969+93v7k477bQWsiVo/MEPftCePfygBz2oTZeawnkubMmzh7PfCSYjQV6exztVKjBNSFqlXldomGCwwtKqbdovGZduxqd/uNS4/vR5XaFjrafW1S81XUqmS6l5+qWmr9e17P66+iXDa76sN/21/lpGlX4N4n/+539uzVAPr6v2sfprP6vkdWrb1rj0D29bf/rhcVVqfcOlljveuP7ysoza79qPyPueUoF/BfApYwX7AMCta8tXjtfGCAAAAADMcBVK9WtmpqbuVPna177WngOccCy1YE899dTukEMOGYydOgcffHBrWvrEE0/svvrVr7bavgnhUvO3agUngL744ovb+DyH+E53ulOrmZztSc3cTPeVr3ylBcf3ve992zybIuFzQsAKArM9CftShgPhCourmxIVDlZ32IaC++F15r2u9aa/1hk1XanXKTVdjc/rWk5fTZPtqvlS+sFnbUOVb3zjG+2HAXe+853bMr797W+3+bPttZzh/dzQfkd/mtru4flqe2sd/df9MryfwzJNLTvT1jy173V9XXvtta3Z85TUuk/t+wx7whOe0OYFAGYGTUADAAAAMGslnEoIlUCqmoCeqiaQ45vf/GZ35plnds94xjO6D33oQy1snYpwdTZ43OMe14LlNP287bbbtv40NV01RFP6KmSsALH6Y7x/Qa4vCK0AtdaTboWSFVD2l1vLqvmqf1htU9RySk1fgXctp6ar0LeC4BoWNX26mT+lXq9ve6K/DZNRy8v84y27jLWfMbxt1a3hpfa7QuAVK1a05qATBH/mM58ZTAUAzAQCYAAAAABmrYRwCaT6zwCeygA4PvCBD3Tf+973Wg3P5z3veYOho+/Rj350a464gt9qSjgBcMLBKn39fzVW/8b8+7GWO9ztL3Os5Q5PX/J6rOnH27ZMP7yMWmeC0ISp/VISnlbJ/BUCx3A3av3D27G+7Zqomna8ZcXw8oZfZz+yf1lGSq63qmmfEDg/vkj5/Oc/P5gDAJgJBMAAAAAAzFqbIwC+rXrYwx7Wng87/AzZCjhjfYHkpv7bsb/sscLM8Za/vm0ay/Byav7h5WS6mrYfilbJ9FUqAI5+f3X7apnD3c1prO0qtX8p2e/UAq4moat8+ctfHkwNAMwEAmAAAAAAZi0B8PSpZx+nDD8LOIFhlQ3Z2H8/bmjZ4y13Its0lixvIuusUvr9NX+6/ZC8P7xvrOX0h80EtT1V27nfDHY1hX3CCSe0aQCAmUEADAAAAMCsJQAGAIB1/fZp/wAAAAAAAADMagJgAAAAAIBplmaTAQA2BwEwAAAAAMA0SxPlQmAAYHMQAAMAAAAATLM8q/qaa64ZvAIAmD4CYAAAAACAabZq1aruuuuua10AgOkkAAYAAAAAmGY33nhjK2kG+qabbhoMBQCYegJgAAAAAIBpVsFvBcEAANNFAAwAAAAAMM3mzJnTAmC1fwGA6SYABgAAAACYZhX+Vi1gAIDpIgAGAAAAAJhmCX5TC7gKAMB0EQADAAAAAEyzCn01AQ0ATDcBMAAAAADANKvmn9X+BQCmmwAYAAAAAGCaqQEMAGwuAmAAAAAAWI9jjz22e+ELX9jK0Ucf3YZ99KMfbV2YjKoBLAQGAKaTABgAAAAA1uOyyy7rFixY0G211Vbd3Llz27Azzjije8c73tH6AQBgJhEAAwAAAMB6bL311i38TUl/7LXXXt2ll17afeITn2ivYUM8/xcA2Fzm3PzFQ3sjAAAAAMxKq1ev7q699tpu5cqV3fLly7tly5Z1hx122GDs5Jx55pltWQl5t912227PPfccjFnTDHT+jZby8pe/fDB0ap166qndiSee2F1yySXd/Pnzu7333rv7gz/4g26PPfYYTMFsdtZZZ3XbbbddO7dSo3zevHmDMQAAU0sADAAAAMCsNZUB8Ate8IIWvKYknHvlK1/Zvfvd7+6e8YxntPFvfvObuxtuuKGt87rrrmtl1apV3Wtf+9o2flN84Qtf6E4//fTuUY96VHfooYe25f74xz/uTjjhhO5P//RPu4MPPngwJbNVfmCQAHjhwoUCYABgWmkCGgAAAABulkAu4W819xwJ6v793/+99ScgzjRbbrnl2jIV0pT0Kaec0j3nOc/pbn/727dmgrPeww8/vHvSk57UnkFczjnnnO4973lP97rXva770Ic+1ELv8oEPfKA9m/i///u/u7e//e3df/7nf3bXXHNNG/eRj3yk+9GPftT6yw9/+MO2LDafqkWuTg4AMJ0EwAAAAABws7lz564TAsdTn/rU7q//+q9bf2yxxRatTOWzXH/60592hxxySLfNNtsMhvzW7W53uxYEx5IlS7rPf/7z3V/8xV90L3nJS7rHPOYx3Tve8Y42LrLd3/rWt9rwZz/72d1DH/rQ7p3vfGcb94AHPKCFzH0/+9nPuvve976DV2wOOW9Scg4BAEwX3zQAAAAA4Gap0ZsAuELgBLNXXHFFC17TJHOk5uaNN964TndTXX755d1ee+01eDW+//u//+vuf//7rw2ft99++xYcn3baae11tr/f/HUtM01k77PPPuvUFo6LLrqou9Od7jR4xeai9i8AMN0EwAAAAABws6rdW807n3zyyd1nP/vZVt73vve1aa6//vr2DOCUPA84ZVNlnRMJBRMU77nnnoNXa+R1AurIcvbee+/WX3baaaf2XOS45z3v2f3gBz9o/Xne8F3ucpfWDwDAaBEAAwAAAMCQBLJVyzchbwLfSE3gKgmDpyIA3nXXXbvzzjtv8Gp8YzU7nW2s5oQzfnh7sv2p0RxHHHFEC7Xjxz/+cXfve9+79bP5VNCf9wUAYLoIgAEAAADgZv2wN+FuBb3XXXddd80117Rpnvvc53bPfOYz23N4n/a0p3XPe97z2vBN8bu/+7vd4sWLu6VLlw6G/NY555zTfeQjH2n9CYrTbHPfxRdf3O2yyy6tP+HiJZdc0vpLav/uvPPOrb+auM48Wc5wbWIAAEaDABgAAAAAblZNOyfwzXNzE/peffXVrZvXse2223a77bZbd+CBB3Z3vvOd2zN4N9WiRYu6ww8/vHv3u9/dnuebIDoBdJpr/sQnPtE96EEPatPl+b/f/e53W3+k6ecExHe4wx3a68yXmr3lrLPOas8y7st6Pv7xj3d3u9vdBkMAABg1c26qdkcAAAAAYJZJYJtwduXKld3y5ctbjdfDDjtsMHZyXvziF3cLFixooencuXNbk8r511kFw695zWsGU06PM844o/ve977XavFm/QcccED30Ic+tFu4cOFgiq775S9/2X3jG99o+5wavE94whPWNvGcYDfP+T3zzDPbshIsP+UpT1nbRHT5l3/5l+75z3/+Ostl+uV9yTFPqfMMAGA6CIABAAAAmLWmMgBOMHr55Ze38DXNJVcAnGah04zyMcccM5hyZvrwhz/cHXnkkd1+++03GHJLV155Zfexj32se/aznz0YwuYiAAYANhcBMAAAAACz1lQGwLPd+9///u6II47oDj744MGQW3r729/ePeQhD5mSpquZHAEwALC5eAYwAAAAAIyAhOGrVq0avFrXiSee2JqwzvOChb8AAKNNDWAAAAAAZi01gJkt1AAGADYXNYABAAAAAAAARoQAGAAAAAAAAGBECIABAAAAAAAARoQAGAAAAAAAAGBECIABAAAAAAAARoQAGAAAAAAAAGBECIABAAAAAAAARoQAGAAAAAAAAGBECIABAAAAAAAARoQAGAAAAAAAAGBECIABAAAAAAAARoQAGAAAAAAAAGBECIABAAAAAAAARoQAGAAAAAAAAGBECIABAAAAYAznnntud95553W//vWvu5tuumkwFAAAZjYBMAAAAAAMue6667ptt92222+//bpFixZ1y5cvH4wBAICZTQAMAAAAADc766yzWq3flStXdjfeeGO3cOHC7pprrunmzp3bbbnllt1VV13VagSfccYZgzkAAGDmEQADAAAAwMAWW2zRav5uvfXWa8s222zTSvoTBs+ZM2cw9dRIbeOzzz67lXPOOac1OX3++ed3V1555WCKTXfttdcO+gAAGHVzbvIAEwAAAABmqdWrV7dwM7V200zzsmXLusMOO2wwdnISvqamb0LghLwp+ddZagMPl5133rmNT/+uu+46WMLGWbVqVXfRRRd1+++//2BI15Z7ySWXdPPmzet22WWXwdCNU8vac889B0O4NZx55pmtVnnKggULuvnz5w/GAABMLTWAAQAAAOBmCXQT/laJBL15DvABBxzQHXTQQd0hhxzSHXrooS2UzbglS5a06aZa1r/HHnu0YLtcf/31LShOM9S/+c1vblGr9/LLL2/jUi677LLB0K674IILWi3j1CoueZ1lLF68uLvwwgvbsgEAGA0CYAAAAAC42XDTznmdGrjjGZ5+Y2U54y2rPzyB7e67794C6b333ru79NJLB2O6bunSpa156oxLSe3SK664oo1LkJwmrPfdd9/2OhJcZxmpdZxlZtkAAIwGATAAAAAADEnTz1VuLanRm+C2pBZy1UyONCOcJrAj25kAuOywww7dTjvt1PqHA+YEwzUu0ux11pMmtAEAmP0EwAAAAABws/7zfqt/cwXAN9xwQ2u6Oc00p5x77rkttO0//zfNNqfW78UXX9xKnh1c27do0aL2/OMMX7FiRRs2nsyX5WQdKb/+9a/bPJqBBgAYDQJgAAAAALhZP/jtl+mWdaZmb5puTjPNKant2w9/U9M3NYJ322231qRzylZbbTUYu0aadM7wLC/P/b366qsHY9aVYHmvvfZq60g58MAD2/ONEyIDADD7CYABAAAA4GYJe1MTt98dKwBOGJsas1ddddVgyKZJYFs1eceT9W277baDV2ukRvBYtttuu26fffZpzwWO4eWnyedrrrlm8AoAgFEjAAYAAACAmx188MHd/vvvv7akRmyC4GGXXXZZG56AdbgW7saYSAA8HNpm3RmW5pwjNX6vvfba1h8rV67s5s2bN3jVrdO8884779yai65wO+tOU9Bj7SsAALOPABgAAAAAbpZmmOfOndu6KalxO1YN4ASmCWPTlHKaUN5UEwmAU6s327R48eLuoosu6nbccccWUC9ZsqRtS2r8Ll++vD1HOCXNP+++++5t3vnz57dtzfCoZwtfeOGFLfj9zW9+05qOTqAMAMDsN+fmL5fr/3YJAAAAADNUmmNOzdfUeE0Ampqthx122GDspknt2gSkqUlb/0JLN7VpE8jmmbswUWeeeWa3cOHCVhYsWNCCeQCA6SAABgAAAGDWms4AGKaSABgA2Fw0AQ0AAAAAAAAwIgTAAAAAAAAAACNCAAwAAAAAAAAwIgTAAAAAAAAAACNCAAwAAAAAAAAwIgTAAAAAAAAAACNCAAwAAAAAAAAwIgTAAAAAAAAAACNCAAwAAAAAAAAwIgTAAAAAAAAAACNCAAwAAAAAAAAwIgTAAAAAAAAAACNCAAwAAAAAAAAwIgTAAAAAAAAAACNCAAwAAAAAAAAwIgTAAAAAADCOVatWdb/61a9aST8AAMx0AmAAAAAAGMfixYu7G264oZX0AwDATCcABgAAAIBxzJkzZ50CAAAznQAYAAAAAMZx8MEHd/Pnz+8WLFjQ+meyCy+8sLvmmmta/5VXXtlddtllrR8AgNsWATAAAAAAjCO1fg866KDuwAMPnPYawCtXrux+85vfdL/+9a9bufjii7vrr79+MHbDsn1bbLHm331qLAMA3HYJgAEAAABgIDVoU3P2ggsu6M4888zB0DWWLFnSgtmLLrqo9U+lrPPSSy/tdtpppxY2H3DAAd3WW2/dnX/++d211147mGr9Ev5W6Jv+CoMBALht8S0QAAAAAAZuuummbptttlnbv2rVqtYfV199dauRm/Fz584dDN10Weby5cu7/fbbb+26E+TusMMO3Z577rnONiQMTlPP5513XqshnG0s/Vq//f5YsWJFC7UTKF9yySWDoWtkedm3Cr4TcN94442DsV133XXXtZrJWWe6ed2X+RYvXtzGL126dDAUAIBbiwAYAAAAAAYSwOZ5vwll99prrxacloSvqZmbkDPh7FRJ+Lvtttt2W2655WDIb6UW8Pbbb9/6V69e3WoJZ7sSFu+2224tdC3jBcA33HBDt2zZsm6fffbp9t13327HHXdsQW9JmH3FFVd0u+66a5tm0aJFLegtWefee+/d1pluXpf0b7XVVt3+++/fxmcbp7p2NAAAkyMABgAAAICeNPOcZpgTyvZru86bN6+bP39+t3Dhwu7yyy8fDN10CZsTOm9IQtqEtyVNPCewTrPVMV4AnGA5wW3JuhIKl0zXD7SzjxlWtYtrOSUhckkovt122w1edS2UTqANAMCtRwAMAAAAAAOp+ZoQMxJ8pgnmktq/kZqyCTkT3E6VflPO48n6Utu2L2HtRJ4RvHLlytZUc5p/TumHuukfDqBTKzi1eSOBd2oMp+ZzvznqbHPKueee20qC85SJ7AsAANNHAAwAAAAAA2lyeSLNO6eG8FQFwBMNccdTYe54wetVV13Vlp/gevfdd29lQ7Ks1DCO1DpO09AJgtOUdL956NQuTjCekmOSctBBBw3GAgBwaxAAAwAAAMDAzjvvPOhbv4SuaX55KuQZv2nGuWrc9iW4vfjii1v/WEFxauSmaepSIXC61X/11Vev03T0WPpNXUfC7eFnEmf9CZGzvkyfYzDWNgMAcOsSAAMAAABwm5cg9Ve/+lV35plnTijUTECa6VP6zSJvjDS3nIA2zSynqeZIeJvathdddFG3aNGiNmynnXZqzwEu2YYEx3lWcdx4442tRD8AzvJXrFjR+iPL6DcBnelSS7gkMK7av9m3CqBL1pswOBKCp2nosmTJkltMDwDA5jXn5i94HsoBAAAAwKyUsDa1YhOc5rm8CU0PO+ywwdiJO+OMM9YGv6nheuihh7b+8ST4rSagE7De/va3b/2bIsFrwtkKlBOupsZthbGR/UzgmqA3IWyac67xCV4TEud5vvWM4gqPEyRn//IM4Swzxymhb5p2vvTSS1vzzgmTsw3Z/z322KPNF5ku02edqRWcdfRrP+fZwpkv/2ZME9oTaWL6tig/LshxTsl7VCE6AMBUEwADAAAAMGtNRwA8kUC3ps+/1hKYTkUAfGu55JJLWqgrkJxeAmAAYHPRBDQAAAAAt3kHHnhgC34T5qZ/Q2r6hHgTmX4m6zcdDQDA7CcABgAAAOA2L0FuavGm6eeJ1Myc7PQzmQAYAGC0CIABAAAA4DZs7733XueZvgAAzG4CYAAAAAAAAIARIQAGAAAAAAAAGBECYAAAAAAAAIARIQAGAAAAAAAAGBECYAAAAAAAAIARIQAGAAAAAAAAGBECYAAAAAAAAIARIQAGAAAAAAAAGBECYAAAAAAAAIARIQAGAAAAAAAAGBECYAAAAAAAAIARIQAGAAAAAAAAGBECYAAAAAAAAIARIQAGAAAAgHFcdNFF3Ute8pJW0g8AADOdABgAAAAAxvGGN7yhu/LKK1tJPwAAzHQCYAAAAAAYxxZbbNHNmTOnFQAAmA0EwAAAAAAwjr/927/tFi1a1O22227dK17xisHQ27Yzzjije9vb3jZ4BQDATDPnppsN+gEAAABgVlm9enV37bXXditXruyWL1/eLVu2rDvssMMGY2eH8847r/vABz5wi1rG+bfdvHnzumOOOWYwZGY4++yzu69+9avds5/97MEQJuLMM8/sFi5c2MqCBQu6+fPnD8YAAEwtNYABAAAAYAyp6frNb35z8KrrXve61w36ptaWW27ZAsHUMO6Xv//7v59x4W/MnTu3NY0NAMDM5JsaAAAAAAxcffXVg76ue+9739s98IEPHLzquvvd737d+9///sGrrrv++usHfZsmYWpC4PX5yle+0n3xi18cvFpT8/m1r31t61+6dGn3zne+s1u8eHH3vve9r3vrW9/afeMb32jjyimnnNK9/e1v74477rjuwx/+cLdq1arBmK776Ec/2p1zzjndl7/85e4973lP9453vKNbsmTJYOwamef1r39997nPfa675pprBMAAADOYb2oAAAAAMPAP//APrZvavs961rNaf0kAfMUVV7SawZdccsk6YfCmSJg63PzzsKOOOqo1vZzwNT75yU92j3vc41r/1ltv3a1YsaJt29Of/vTuec97XmtW+uc//3kbf+mll3Ynnnhia7L5pS99aXfEEUe0oLekmekExg972MO6v/zLv+we9ahHtVC4JBC+5z3v2R199NHdYx/72O7b3/72BrcXAIBbjwAYAAAAAAZuvPHG7vjjj+9233337qCDDhoM/a0XvehFrWZwQtCDDz54MHTTJExNjdw3velN3Zvf/OZW0v/GN76x+9nPfjaYquue+tSndp/4xCe6Cy64oNUYPuSQQ9rwNMmc5wXf7W53a6/jyCOPXBsA77bbbt1znvOc1h/777//2iA5sqwEvGXvvfduz1Uueb7yHe94x8GrrrvHPe6hBjAAwAzmmxoAAAAADCT0TQA8f/781mRyPwj90pe+1H3kIx/pdt111+6EE07obne72w3GbLqs74UvfGH3ghe8oJX0J2y+613vOpii63bccccWTH/84x/vnvjEJw6GrqlBvNVWWw1erbHLLrt0y5YtG7zqup/85Cfdxz72se6DH/xgK/0avOnP9H01PjWLt99++9Zfsg0AAMxcAmAAAAAAGHjAAx7QPeYxj2nBa5pT7gerD3/4w7uHPOQhbZrf//3f7/bdd9/BmE2TWscTlWaeExb3a/AmAB5eRl5nujjppJNak9BPfvKTWy3ilA1JjeLIc46Hl33DDTesHQ8AwMwjAAYAAACAgbvc5S7dIx7xiNbk8XCt2khzyve+971bmDpVEqZOJAT+1a9+1W2zzTbtWb6pxVsy7+rVqwev1rj88su7nXbaqfWffvrprUnovn6Am/mH11/jU/v3qquuav0lTVALgAEAZi4BMAAAAAC3eQlMjznmmO7lL3/5LQLPsWSaTP+yl72su+yyywZDN05q1E4kAP7CF77QPfaxj+3mzZvXmqr+3ve+14Zn3tQCPvnkk9vryDOK7373u7f+NB192mmntf74yle+0roVGmf9wwFyhkWeD5z11fOE86ziPJe4xgMAMPMIgAEAAAC4zTv22GO7JUuWtCD4Na95zWDo+F796le36VNe+9rXDoZunAS41113XVvmWCXPIf7oRz/aHXHEEYM5utYU9YknntiC25SEtAcccED37ne/u3vrW9/aHXrood2BBx7Ypn30ox/dnXXWWd0b3/jG7jOf+Ux31FFHdfe61726t73tba0mb+ZPU899/UD6mc98ZvfDH/6wHaM8HznrHg6MAQCYOebc/CVPey0AAAAAzEoJIhOQrly5slu+fHm3bNmy7rDDDhuMnbiXvOQl7fm6c+bMaU0nH3fccYMxY/ubv/mbbunSpS1ATQ3b17/+9YMxm1/2+/3vf3/3/Oc/fzCEmejMM8/sFi5c2MqCBQvWPqMZAGCqqQEMAAAAwG3ei1/84m6HHXbodt555+7oo48eDB1fTb9o0aIJTT+dUntXk8wAABQ1gAEAAACYtaaqBvBsdtFFF3Uf+chHWi1mZi41gAGAzUUNYAAAAACYxfbcc0/hLwAAawmAAQAAAAAAAEaEABgAAAAAAABgRAiAAQAAAAAAAEaEABgAAAAAAABgRAiAAQAAAAAAAEaEABgAAAAAAABgRAiAAQAAAAAAAEaEABgAAAAAAABgRAiAAQAAAAAAAEaEABgAAAAAAABgRAiAAQAAAAAAAEaEABgAAAAAAABgRAiAAQAAAAAAAEaEABgAAAAAxnHRRRd1L3nJS1pJPwAAzHQCYAAAAAAYxxve8IbuyiuvbCX9AAAw0wmAAQAAAGAcW2yxRTdnzpxWAABgNhAAAwAAAMA4/vZv/7ZbtGhRt9tuu3WveMUrBkNv284444zu3//93wevJu8///M/2zLi29/+dvff//3frR8AgKkx56abDfoBAAAAYFZZvXp1d+2113YrV67sli9f3i1btqw77LDDBmNnh/POO6/7wAc+cItaxvm33bx587pjjjlmMGRmOOecc7qvfvWr3bOe9azBkFtasWJF98Y3vrG7733v2z34wQ8eDF0j+3rEEUd0Bx10UPd///d/3dKlS7tHPepRg7Gj68wzz+wWLlzYyoIFC7r58+cPxgAATC01gAEAAABgDKml+s1vfnPwqute97rXDfqm1pZbbtkCwdQw7pe///u/n3Hhb8ydO3eDTWJ///vf7w4//PDuJz/5yWDIb2X+lEgT2ykAAEwd364AAAAAYODqq68e9HXde9/73u6BD3zg4FXX3e9+9+ve//73D1513fXXXz/o2zQJQBMCr89XvvKV7otf/OLg1Zqaz6997Wtbf2rQvvOd7+wWL17cve997+ve+ta3dt/4xjfauHLKKad0b3/727vjjjuu+/CHP9ytWrVqMKbrPvrRj7ZavV/+8pe797znPd073vGObsmSJYOxa2Se17/+9d3nPve57pprrtng9ib4fchDHtLtvffe3cUXXzwYukb2twLgLGdDywIAYHIEwAAAAAAw8A//8A+tm9q+w00cJwC+4oorWs3gSy65ZJ0weFMkEN1QjdqjjjqqO/vss1v4Gp/85Ce7xz3uca1/6623bk0uZ9ue/vSnd8973vNas9I///nP2/hLL720O/HEE7tnP/vZ3Utf+tLW/HKC3pJmphMYP+xhD+v+8i//sjXHnFC4JBC+5z3v2R199NHdYx/72O5b3/rWemvtZt177bVX68+60sxzX+at+Sey7wAATI4AGAAAAAAGbrzxxu7444/vdt999/aM2mEvetGLWs3gb3/7293BBx88GLppEoCmRu6b3vSm7s1vfnMr6c8zdH/2s58Npuq6pz71qd0nPvGJ7oILLmi1Zg855JA2PLVp87zgu93tbu11HHnkkWsD4N122617znOe0/pj//33XxskR5aVgLek1m6eq1zyfOU73vGOg1ddm3Z9oW0C3wS/sc8++7SayX39AFj4CwAw9QTAAAAAADCQ0DcB8Pz581uTyf0g9Etf+lL3kY98pNt11127E044obvd7W43GLPpsr4XvvCF3Qte8IJW0p+w+a53vetgiq7bcccdWzD98Y9/vHviE584GLomUN1qq60Gr9bYZZddumXLlg1erWmS+WMf+1j3wQ9+sJV+8Jr+TN9X41OzePvtt2/9ZY899hj0je3888/v9ttvv8GrrrvLXe7SnXbaaYNXAABMNwEwAAAAAAw84AEP6B7zmMe04DXNKfeD1Yc//OHtubaZ5vd///e7fffddzBm06TW8USlmeeExf0avAmAh5eR15kuTjrppNYs85Of/ORWizhlQ1KjOPKc4+Fl33DDDYO+W/rud7/b5k0t5re85S3tecSnnnpqG14yvpbf7wcAYGoIgAEAAABgILVVH/GIR7Qmj4dr1UaaU773ve/dwtSpkgB0IiHwr371q26bbbZpz/JNLd6SeVevXj14tcbll1/e7bTTTq3/9NNPb01C9/VD18w/vP4an9q/V111VesvaYJ6vND2Bz/4QTs2qcX8/Oc/vz2PODWZ08R1mpKOrKtC5HQnsu8AAEycABgAAACA27wEpsccc0z38pe//BaB51gyTaZ/2cte1l122WWDoRtnoiHoF77whe6xj31sN2/evNZU9fe+9702PPOmFvDJJ5/cXkeeUXz3u9+99afp6H4TzF/5yldat0LjrH84QK6ANs8HzvrqecKpEfzTn/50zO0999xzW9PR/eafS54b/PWvf73199eX5QiAAQCmlgAYAAAAgNu8Y489tluyZEkLgl/zmtcMho7v1a9+dZs+5bWvfe1g6MZJAHrddde1ZY5V8hzij370o90RRxwxmKNrTVGfeOKJLUhNSUh7wAEHdO9+97tbs8uHHnpod+CBB7ZpH/3oR3dnnXVW98Y3vrH7zGc+0x111FHdve51r+5tb3tbq8mb+RPs9vVD2Wc+85ndD3/4w7afn//859u6h6ePb33rW91hhx02eLWuww8/fG0I3V9f+itsBgBgasy5+Uueh2wAAAAAMCslQExAmuaFly9f3i1btmzcEHJ9XvKSl7Tn66YGa5pOPu644wZjxvY3f/M33dKlS1uAmhq2r3/96wdjNr/s9/vf//7W5DIz15lnntktXLiwlQULFqx9RjMAwFRTAxgAAACA27wXv/jF3Q477NDtvPPO3dFHHz0YOr6aftGiRROafjqlNq1atAAAFDWAAQAAAJi1pqoG8Gx20UUXdR/5yEdaLWZmLjWAAYDNRQ1gAAAAAJjF9txzT+EvAABrCYABAAAAAAAARoQAGAAAAAAAAGBECIABAAAAAAAARoQAGAAAAAAAAGBECIABAAAAAAAARoQAGAAAAAAAAGBECIABAAAAAAAARoQAGAAAAAAAAGBECIABAAAAAAAARsScm2426J+wJUuWdFtssUUrc+bMWVuiuhtSq023yo033tjKokWL2jgAAAAAWJ/Vq1d31157bbdy5cpu+fLl3bJly7rDDjtsMBZmjjPPPLNbuHBhKwsWLOjmz58/GAMAMLUmXQM44e/VV1/drVq1qpXrr79+bckX7n7/WGWsaVNqeVl21gEAAAAAAADA5Ey6BvAVV1zRgtrttttubS3g4drAEzFc67fKVVdd1X79ttNOOw2mBAAAAICxpZKBGsDMBmoAAwCby6RrAPcD3y233LKbO3duKxUAT1SmzTw1f5bVXzYAAAAAAAAAkzPpGsD5JWWabE4N4Ap+p0Jq/+YXm6kBPG/evG777bcfjAEAAACAsU1XDeC0gPe6172uu+aaawZDum7rrbfuXvziF3dbbbXVYAhMnBrAAMDmMun0tpp5nuqaurW8Wj4AAAAA3Fq++MUvtkeUPfOZz+ye9axntW5ef/nLXx5MAQAAM9MmBcBTTQAMAAAAwK0ltYj/+7//u4W/ixcvbrWLzz333LUlrzM84zNdpgcAgJlm0k1Ar1ixojUBveOOO94iqP3JT37Svetd71o7/NnPfnZ35zvfufWfeuqp3dvf/vbWn1X+1V/9VXe3u92tvS4ZfuWVV7YmoNMUCgAAAACsz1Q2Af1P//RP3S677NLd7na3a808539UW265Zau0kMeX3XDDDe3/YllfmvNdunRp94pXvGIw963vPe95T/d7v/d73R3veMfBEGYSTUADAJvLRlXjHa+W7i9+8Yvue9/73trx/VrC/dq9mSbTDqvxAAAAALC5Jdi9+93v3j3kIQ/pjjjiiO7www/v7nWve3X3vOc9WzevMzzjM93VV189mHPTpHZxwud//ud/buW4447rPvjBD3ann376YIqJSVg9d+7cwasNS0UMAABGz6RrAOfXlFUDeNjHPvax7thjj201gdcnNX9f9rKXdU9+8pMHQ36ragBvu+22gyEAAAAAMLaprAH86U9/ujvttNPW1s5MmJpKDSn5F1pqAGd9q1at6q677rruTne6U/f4xz9+MPfGO++887qPfvSj3THHHNNep7ZxQuHjjz++22effSa8jg996EPdkUce2e2///6DIePL/++yLxt7rJg8NYABgM1l6h/kCwAAAACzUILWtE73tKc9rXvRi17UPe95z+v++q//uj3m7DnPeU57neEZn+mmIvyNBMypvVvy+qCDDupe8IIXtCA4zx0uF1xwQWvq+Y1vfGOrjJEguiSwTsWK8pvf/KZ773vfe4tpf/nLX3Zf/epXu//93/9t48sXvvCF7vWvf333tre9rY0DAGB2mtIAODV6N1T7NzLNWLV/AQAAAODWtscee7TuBz7wgdZ95zvf2boJUVP7N+On8jFm63ss2v3vf//ulFNOaf2phfzFL36x+8u//MsWRD/hCU/o3v72t7dxkeC43wR0pv2Lv/iLW0ybZwSnWeuHP/zhbXx86lOf6vbee+/u6KOP7p773Oe2VvpOOOGENg4AgNlFDWAAAAAAGJKg96qrrmr99QS1PBZteNhUWF+YvO+++3aXXXZZ6//617/enj9cEvb+zu/8TvfrX/+6vU4t4qpJPJlpI7WF81zj8kd/9EfdSSedNHgFAMBsIgAGAAAAgIEKdvO83+qvbp7NmxJTGQBvSJ4XG5deemn3uc99rnvDG96wtpx66qnd5Zdf3sZHhcmZ9rOf/ey40/ZrHSfszv6m+efjjjuuO/bYY7t//dd/3az7CADA1JnSADjN4NztbncbvBpfpsm0AAAAADCT9EPfCnv7oe90BMDrW9Y555zT7b777q0/ge2f/dmfdS9+8YvXKfe6173a+CynlpVpn/KUp0xo2th6661b888vfelLu5e97GXdy1/+8u4Vr3jFYCwAALOJGsAAAAAAMFABb9WKjequXr26NQMdNd1UGA5j+9IM833uc5/Wv+uuu3aLFy9u/WPJNmUbY0PTZp9qH+bPn9+tXLmy9QMAMPtNOgAe78to1LjnPve53fOe97zuF7/4RXsd6c+wjIuJLAcAAAAANqcKUfsBcIWqeZ0AOK+nMgDOsmpd5fzzz+/e+ta3dne4wx26nXbaqQ078sgju+9+97tt28pb3vKWQd+6AfURRxzRpq3X0Z92iy226C688MLBq67bb7/9uhNOOGHwquu+9rWvdZ/4xCcGrwAAmE22fOXNBv0Tki+Y+VKaZ4/Uc0JKvqjm+SKREPewww7rdtttt/b6kksu6X74wx+2/n333bd76EMf2u2xxx7tdck81113XfsCml8eAgAAAMD6VGCboDP/V0rZa6+9BmMnL8Hnfe973xa65v9aixYt6ubOndvtvffe3Q477NAdfPDB3dVXX919+9vf7h70oAcN5to0V1xxRXfKKae0ZaZ8//vfb/9Le+ADH9i2pWy55ZatOehPf/rT3de//vXu9NNP7x772Md22223XRv/k5/8pNtnn33atmfa/O/tU5/6VPeNb3yj++Uvf7nOtLvsskv3P//zP92PfvSj7t73vnd3pzvdqTvttNO6z3/+823922+/fff4xz++TcvUWLp0afufZ0rOqbxHAADTYc5Nk6xuu2LFivaFOl94E9ROpXxhX7ZsWTdv3rxu4cKFg6EAAAAAMLaEv9dcc00LZZcvX97+t5RKCRsrz799wAMe0N3jHvdo/6NKSJdKEPkXWio/ZH0JTb/1rW91xx577GAu2LAzzzyz/c8zJZVrVIABAKbLpAPgq666qgXA+RVgfqk2lfIFOl/U8+W6fo0IAAAAAOMZDoCvvPLK7l73utdg7OSlVmzC3Ujlh4S/FQCnVNPPqZ171FFHtX6YiF/96lftf54CYABgum1UAJxmoCsAHm4GemNlMyoAzpcfATAAAAAAG9IPgFP7N2VTAmCYLgJgAGBzmXQbzv1fO6bZm6mSZWWZtXwAAAAAAAAAJmfSAXA/pE1/fmW5KYFt5s0yhpcLAAAAABNV/5+aqtbqYLpsyv9SAQAmYqNqACegTY3dKglwq2TcREp/nv6yMs6XIAAAAAAmwv+RmE38QAEA2Bwm/QzgJUuWtGeq5BkVW2yxRfvSUiUm+iWmVptulYS/eb7wNtts0y1atKiNBwAAAIDxpHJBngG8cuXKbvny5Z4BzIzlGcAAwOYy6RrACWYT0OYLyrx581q335/uRMp48wt/AQAAAJisVEqoygowE/Ur06QfAGC6TLoGMAAAAADMFNdff3133XXXtRrAK1asaDWA73GPewzGwsxx9tlnt9q/qQCjBjAAMJ381AwAAACAWatqU6ZsueWW3dy5cwdjYGap81QNYABguvmmAQAAAMCs1W/yOf0JgWEmyvlZ52v/vAUAmGoCYAAAAABmrQRpqU2Zmr8Jf+fNmzcYAzNLzs2co2r/AgDTzbcNAAAAAGa1BGoV/gqAmanqRwrVDDQAwHQRAAMAAAAwa1VtygRrCdjmz5/fLVu2rA2DmWLFihXt/KwfKwiAAYDpJAAGAAAAYFZLsJZSNYCXL1/eXXHFFYOxcOtK+HvNNde0HydUCCwABgCm05ybbjboBwAAAIBZJ//eWr16dSurVq3qrrvuuu76669v/emm3HDDDW38jTfe2KZPADf8bzGhHOsz1vlS51JKNe/c/zFC+rfaaqu14W+6agADANNNAAwAAADArJd/cVXQW6FvAt8alvHVTQg8TCDHRIz1r9ScOwl+q2ZvNfPcD4LrdUrGAwBMp40KgJcsWbL2C02/lH7/WPqrTH+/5Av4okWLBmMBAAAAYGLyv6Wq5ZtuAt+q+RsV/Ga6sqH/Y8FY6hxKtwLdOpcS9vZLxif4zfi8BgCYbpMOgBP+rly5sjVXMl4IXN2o/v5q+l+Q+iVfwtM0z7bbbisEBgAAAGDS6v9M/dC3gt90M259+v/XgrKh8yYqCO7/zzSBb7o1DABgc5h0AHzFFVe056hst912a7+41Jeb+mLT/0JT3VpNuvVlu4bV63SvuuqqbsGCBd1OO+3UxgEAAADAxuj/7yn/o0pt4P7/qqofNkb/HEp//ieac61q+dY45xkAsLlNOgC+8sorWy3dCoAr7K1fs01GVt1/9koFwKldvOOOOw6mAgAAAAAAAGAi1lTdnYSEvFUS/ib4rWdYTFbmybxZRgXJVQAAAAAAAACYnE0KgFMS3G6q4fA3BQAAAAAAAIDJ2aQAuJ5nMRWqCekqAAAAAAAAAEzORlXfnUxQ+8///M+tbMhklgkAAAAAAADALW10+80TCWpvuOGG7vjjj28l/Rsi/AUAAAAAAADYeBvVBHRM5Nm/ada5XzaklikIBgAAAAAAAJi8jW4CeqImGv4W4S8AAAAAAADAxplz080G/ROyYsWK7vrrr+922GGHW9QCXr16dfe1r32t22abbbptt922O//887s3vOENbdyLX/zibt999+1WrlzZXX311d2DH/zgbu7cuW1cufHGG7tly5Z18+bN6xYuXDgYCgAAAAAAAMBEbHQAvOOOO96itu7nPve57tWvfnULdlPrNwFxhcQJd1PyLOAExa94xSu6xz72sW1cyaZceeWVAmAAAAAAAACAjTDlNYCPPfbY7pprrukWLFjQLV++vPvBD37Qxt3nPvfptt9+++66667rtt566+5lL3uZGsAAAAAAAAAAU2hKA+Cx3P/+92/d7373u627PgJgAAAAAAAAgI234QR3E6XJ5xQAAAAAAAAAptekA+BUGE5Jbd0NqWf+pkx0+lo+AAAAAAAAAJOz0TWAJxLSponoRz7yka1MpLlowS8AAAAAAADAxpv0M4CvuuqqbtWqVd3222/fzZ07t5szZ85gzKbJZqxevbpbvnx5N3/+/G677bYbjAEAAAAAAABgIjapBvBU1tid6uUBAAAAAAAA3NZs9DOAU+qZvZuqv6wqAAAAAAAAAEzOJgXA/bKxMu8NN9wwZcsDAAAAAAAAuK3a5BrACW9TJlsbuD9/9ddyJ7McAAAAAAAAANbYqAA4YW2VCoBXr17dyvXXX7+2P6Wm6w/rT9MPkKsIgAEAAAAAAAAmb85Nk0xblyxZ0q1cubKbP39+t8UWW3Rz5sxZW2K4O6xW1+9WSfi7atWqbtttt+0WLVrUxgMAAAAAAAAwMZMOgCMh8HD42w98xwt/S3+VFf5WSQgs/AUAAAAAAACYvI0KgAEAAAAAAACYeSb9DGAAAAAAAAAAZiYBMAAAAAAAAMCIEAADAAAAAAAAjIhpD4DziGGPGQYAAAAAAACYfnNumsZ0dunSpYO+NXbeeedBHwAAAAAAAABTbdpqAK9evbp158yZ00rUMAAAAAAAAACm3rQFwBX8DhcAAAAAAAAApse0PgNY+AsAAAAAAACw+UxrDeBhQmAAAAAAAACA6aMGMAAAAAAAAMCIUAMYAAAAAAAAYERMaw1gAAAAAAAAADYfTUADAAAAAAAAjAg1gAEAAAAAAABGhAAYAAAAAAAAYEQIgAEAAAAAAABGhAAYAAAAAAAAYEQIgAEAAAAAAABGhAAYAAAAAAAAYEQIgAEAAAAAAABGhAAYAAAAAAAAYEQIgAEAAAAAAABGhAAYAAAAAAAAYEQIgAEAAAAAAABGhAAYAAAAAAAAYEQIgAEAAAAAAABGhAAYAAAAAAAAYEQIgAEAAAAAAABGhAAYAAAAAAAAYEQIgAEAAAAAAABGhAAYAAAAAAAAYEQIgAEAAAAAAABGhAAYAAAAAAAAYEQIgAEAAAAAAABGhAAYAAAAAAAAYEQIgAEAAAAAAABGhAAYAAAAAAAAYEQIgAEAAAAAAABGhAAYAAAAAAAAYEQIgAEAAAAAAABGhAAYAAAAAAAAYEQIgAEAAAAAAABGhAAYAAAAAAAAYEQIgAEAAAAAAABGhAAYAAAAAAAAYEQIgAEAAAAAAABGhAAYAAAAAAAAYEQIgAEAAAAAAABGhAAYAAAAAAAAYEQIgAEAAAAAAABGhAAYAAAAAAAAYEQIgAEAAAAAAABGhAAYAAAAAAAAYEQIgAEAAAAAAABGhAAYAAAAAAAAYEQIgAEAAAAAAABGhAAYAAAAAAAAYEQIgAEAAAAAAABGhAAYAAAAAAAAYEQIgAEAAAAAAABGhAAYAAAAAAAAYEQIgAEAAAAAAABGhAAYAAAAAAAAYEQIgAEAAAAAAABGhAAYAAAAAAAAYEQIgAEAAAAAAABGhAAYAAAAAAAAYEQIgAEAAAAAAABGhAAYAAAAAAAAYEQIgAEAAAAAAABGhAAYAAAAAAAAYEQIgAEAAAAAAABGhAAYAAAAAAAAYEQIgAEAAAAAAABGhAAYAAAAAAAAYEQIgAEAAAAAAABGhAAYAAAAAAAAYEQIgAEAAAAAAABGhAAYAAAAAAAAYEQIgAEAAAAAAABGhAAYAAAAAAAAYEQIgAEAAAAAAABGxLQFwHPmzBn0/dZYwwAAAAAAAACYGtNaAziBb78AAAAAAAAAMH0EwAAAAAAAAAAjYloD4C222KLbcsstW0k/AAAAAAAAANNnWlPZCn+rAAAAAAAAADB95tx0s0H/lLvxxhvX1vzt9wMAAAAAAAAw9aY1AAYAAAAAAABg85nWAPj666/vrr322ta/9dZbd3Pnzm39AAAAAAAAAEy9aQmAb7jhhu6Xv/xle+5vvwnoDL/jHe/oecAAAAAAAAAA02DKA+DFixd3K1eubLV9582b182ZM6cNz2pSI3j16tXdtttu2+2///5tOAAAAAAAAABTY0oD4HPPPbe7+uqru/nz57fwNzV9q7Zvav+mJARetWpVt80223QHHHBAGwcAAAAAAADAplvTPvMUuO6667oVK1asrfmbEHisknGZJtNmHgAAAAAAAACmxpQFwPXM3wS8EymZNvMAAAAAAAAAMDWmLADeYost1jb5XCU1fTM8Jf3D4zMcAAAAAAAAgKkxJQnsjTfe2M2ZM6cFuun2+ysAHm985gUAAAAAAABg06mCCwAAAAAAADAipiQATm3em266qdXmTbffn26/f3h85gUAAAAAAABg001Z+ppA94YbblinrF69em0AnP7h8RkOAAAAAAAAwNSYsgD4jne8Ywt1r7/++gmVTJt5AAAAAP4Be2YAAB/eSURBVAAAAJgaUxYAL1iwoFu4cGGr6ZuAd9WqVWOWjMs0mTbzAAAAAAAAADA15tyUB/FOocWLF3crV67s5s6d282bN6+bM2dOG57VVPi77bbbdvvvv38bDgAAAAAAAMDUmPIAONK88y9/+ctuyy237LbYYk0l43pGcJp9znAAAAAAAAAApta0BMAlNX6vvfba1r/VVlu1GsEAAAAAAAAATI9pDYABAAAAAAAA2HzWtM88TdLsc+n3AwAAAAAAADD1prUG8HXXXbfOM4AXLFjQ+gEAAAAAAACYetNaA/iGG25YpwAAAAAAAAAwfaa9CegKfzUBDQAAAAAAADC9pjUATuvS/QIAAAAAAADA9BEAAwAAAAAAAIyIaQuAxwp8hcAAAAAAAAAA02daawADAAAAAAAAsPkIgAEAAAAAAABGhAAYAAAAAAAAYEQIgAEAAAAAAABGhAAYAAAAAAAAYEQIgAEAAAAAAABGhAAYAAAAAAAAYEQIgAEAAAAAAABGhAAYAAAAAAAAYEQIgAEAAAAAAABGhAAYAAAAAAAAYEQIgAEAAAAAAABGhAAYAAAAAAAAYEQIgAEAAAAAAABGhAAYAAAAAAAAYEQIgAEAAAAAAABGhAAYAAAAAAAAYERMawB80003rVMAAAAAAAAAmD5qAAMAAAAAAACMiGkLgMeq8asWMAAAAAAAAMD00QQ0AAAAAAAAwIhQAxgAAAAAAABgRKgBDAAAAAAAADAiprUG8FgFAAAAAAAAgOkx56ZpTGWXLl066Ftj5513HvQBAAAAAMD48v/lxYsXd1dffXV31llntWGHHHJIt80223T77bdft2jRojaM27brrruuW758ebd69erWje23376bO3du6y5YsKANg6l21VVXdZdcckl37bXXdhdeeGEbttdee3VbbbVVt/vuu3fbbbddGwa3hmkNgOOGG25o3S233LJ1AQAAAABgLAnzvvCFL3TXXHNNN2/evPZ/5S222KKbM2dOG59/Z994443t/87XX399t/XWW3ePfOQjhXy3MQl7zz333HY+5Pyoc6R/ntS5kpLhBxxwQAuFYVPkc+fEE09s3Xw+peT8yjkYOd9y7uUzKiWfY4cffnjrwuY07QEwAAAAAABsyKc//ekWACfMTVgyf/78FtiNFQAnAFy1alULYWqexz/+8W0aRlvVBq/wLedHhXCRbs6TCuHqBwMpkVrksDG+853vtM+efDbVD1TyGZVzrv8ZlZLpcs7V51SmO+KII9o0sDkIgAEAAAAAuNWkqecvfelLrdnUKhWwJDSpkC8qzEu4klAl4UqaX63ysIc9TNPQIypB/3nnndfOiSo5L4YD4NIPgOtHA3Xe7L///mqNM2Fp6vmkk05q50xKPwCu0lc/OKgAOCXnb8p97nMfTUOzWQiAAQAAAAC4VVxwwQXdt771rfZc35Q06VwBcMr6wpV+qJLnBKfZ6HSPPPLIbt999x1MzShYsWJFd/HFF7fQt//DgJSqIV7dSOyR0DfdlKqNWQFwyp577tktXLiwTQ/jueyyy7qf//zn7bMp4W8+n3IO1nlYP0Doq8+olJxr9TmVz6x8Tt3lLnfpdt1118HUMD0EwAAAAAAAbHap+fvlL3+523bbbVsQlwB4rBrACVj6qjZnvwZwgt8qK1eu7B760IeqCTwiEpydf/757XzIeZFzoh+8pVvnSD8Ajqr9myCuXwu4amXut99+agIzruXLl3cnn3zy2h+nVA3gCoDrRwj92uc59+rHBznv6lxLyblcn1eHHXZYt/322w/mgqm3UQHwkiVL2gdqTup+6Rt+XYZXl9f9kgvDH2YAAAAAgNH24Q9/uIW/aQ413QqAK2AZDvdKP9Sr2nVV+zc1RRMApzzlKU8ZzMFs9qtf/aoFvzkvEvzm3Mg5UcFbP6voqywi3aqNmfMm50xC4KqReeihh7bpYNjXv/71ta0TDP84pcLf6J97dd71f3SQc64+qxIA5/Mpn1kPfvCD27QwHSYdACf8zcmZk3w4BC7DH7TD+qtMf5VcDPnAzR97ITAAAAAAwGj69Kc/3f4nnJq/qQVXAXD+75yS/zH3w9/q5n/I1U0ZDoETAKfkmZ2Z5/GPf3ybntnprLPOaiFbnRf98LcC4Bgvk6gsIt0KgeucSRaRbl4fcsghbToo3/nOd9p51Q+A8yOEnIc593Ieru+8y+dTdfshcL/FgjjiiCNaF6bauj+dmoCc1DnB86us6ShZdv0xBwAAAABgtCSsTUmg0q9Zl3AvNTwr/I0Keqvp3npdMl3mq6ZZ00xrlaptx+yU9zuqyed+s88pfQnaxip9Oa9q3qpJXMupdUHksyPnRD5TKvgdK/wdPt/qBwb9z6jIPPX5lm6Wk+VlHVkXTIdJJ631x7dK/wOzTt7qH6/0p6n5+8sc71cTAAAAAADMbl/4whfWhinVrTAu/x/uBylVa65qavZLpiuZt0KaBDa17C9+8YuDKZhtzj333LXZQ50b6fbzg374tr4SlT3Ucvol64Jy0kkntc+Q+mzqfz6VfAYl6E23/xmVUDelxpece1lGPyNLN+uC6bBRAXCV+sCsE79eT6TU9Jm3XvfHAwAAAAAwetJUc4KPBLTD4UrV8E3zvKkZl1Al3X7JuApZKmCp/zXX8mrZWRezU4LbOi/S7WcJpc6XhG39UsOHS1QGkeVVuFwhMUQ+d+qzpF+RsbKrnEs5Z/IZlGnTzedSNSueUp9T/SC4llPhb0qmg+mwSQFwfUjWSb8x+svoFwAAAAAARsvSpUvXCT9S8v/hSEhSgUrKAQcc0MpBBx20TgCccfvuu28reX5whSvDIXBK1rVkyZI2fqL+8R//sfvABz4wePVbqbn8ghe8YPBq83vOc57TnXrqqYNXU+Mv/uIvuq985SuDVzNH3ue8n/2S3CDdSLeaEE/JM6RTEsr1A+D+NKWWU90qWedkXHHFFd297nWv7k53utPa8ud//ueDsZP3mc98pvvbv/3bwauxfe973+ue9rSndfe+9727ww8/vHv+85/fnX/++YOxm9cznvGM7oQTThi8Gh3Lly9vnyNVKgDOORJ1jtXn1G677dbtvvvu7RGn9RmVafbcc882POOrRH/ZVbLOyZjqc2+6vOY1r+nufOc7d3e5y126ww47rHvRi140GLNp3vGOd3Rvf/vbB68Yz5TUAN5U/WVVAQAAAABgtKSp3eEadRWsJLCrYCVBcF/Vrrv97W/fHXLIIYOha57dWmFf1LL761i8eHEbN1E1/7A0B5txm8vf/M3fDPrWyDalZvNUSth91FFHDV7NHAnEcl7UezicG1SN3ZwvK1asaP2xcOHCNi7zpr/Orcjwmi9qmXUOTjaEy/ux1157daeddtra8qEPfWgwdvL6P4YYyzvf+c7uX/7lX9p5kWaDTzzxxO6xj31s9//9f/9f95Of/GQw1fTIcTv66KMHr9Z41ate1T3kIQ8ZvBodl1566drPgDr36jzKccg5l8+dlIS+pQLhDM95UerzJ6FtfU7VMlOyjosvvrgNn6ipPveyzS9+8YsHr6ZOtvPVr3519/Of/7w7+eSTuz322KN76UtfOhi78eoHPhtj+DweZZMOgKP/wThVpmOZAAAAAADMHAlXKvTI/4LTn1AkwUoFKKlBd4c73GEwxxrVtOqw4VAv6v/MWUeWP9lmoDNPgothVaN4c0jINFyzM+ue6gB4v/32G/TNLHnP1pcX5PisXLmylfSnlArZhvXPk1p23uuU9CcEm4w6h6dK3t8scyw5F1JD+HOf+1yr7Vn+4A/+oHvd617XQrbplGvvN7/5zeDVGv2Qc5RceeWVa8+POkeifmiSc62C3vzIoNRnVD8UPuuss9o8CYFzrtY52F92upNtBnqqz72x3t+pkHO6H9T+v//3/1orEJtqYwPgvGfTsZ8z1UYFwFEn6FSZ6uUBAAAAADCzXHLJJa07/P/gfgicZp2HVfByyimnrFPbsUKZlNIP9VISwkxG5h0riOvXAH7zm9/cvec972n9Ja+r6ejUzPzRj37UveIVr+ie+cxntqaWUwOw7z/+4z9a7dsjjzyy+8u//Mvu8ssvb8NPP/307ogjjuh+8YtfdPe///27t7zlLW141p0g8JWvfGX3oAc9qHvyk5/cXXvttW1cSe22BzzgAW39P/vZzwZDuzZdmq/OfA9/+MPXNoudYWeffXbrjwSJqdWZ9X/yk58cDN38KgCOdCuE66vwP0FQvS9VGzg/IkiQt2zZsva6rx8ER61nY2oA17zD8j6lZm4C25e85CXt/fjP//zPwdg18v4+4QlP6B74wAd2L3zhC7tzzjlnzPMujj/++DbdWD9A+N3f/d12fKqmaZbZ38eLLrqoe+pTnzp4tcZb3/rW7vd///e7P/zDP+w+/vGPD4auCTFzTjz4wQ/uHvGIR7Tj98tf/rKdU9ne+93vft0b3vCGNm22OTX6ywUXXNDO82xnzqF3vetdgzG/PR6f//zn1x6P9773vYOxa/zzP//z2nPvE5/4xGDo5peAsj4/+nJM68cGKcM/nki4mJJmnyOfO3mdaevza/izKutIufDCCwdDJibnyXjnXs6Vxz/+8e09S7PQw+HyRz7yke6Rj3xk+9zJe/2d73yn/ZAg73Pe39e//vWDKbvWzHI+o/Ke5L3tb2fev9RITysCD33oQ9tn97Dhz9LUUv6zP/uzwauu+5M/+ZNB3xoJZ4ebsv63f/u3tn3Zn/rMHQ6A61orb3vb29o82a7/+q//asN+9atftX3Oefx7v/d7a/fzpz/9afekJz2pDXviE5/Yho2KSQfA451UU2lzrAMAAAAAgM2rgql0UxKGVLCSsCT9FaykWdNS09U80ymhxViBY7+G5l/91V91//u//9v6S4KUPJ81UtsvAXAC1TTdm+Zyn/WsZ7Vx8U//9E8tlM3zd7/97W+3oDghcKT2c571mmDvu9/9bnvOa2TfEzAnAP7617/ewpN+M9EJ+RIKf+tb32phSAK1khA6te8y35e+9KVu0aJFbXj2s4KUf//3f+922GGH9lzX7EuCxJkqxyK1L7O9/ef7JuzKuKjudBkrJCw5VxLkH3rooa2Gbt6Pr33ta2trdV911VXdMccc097Pb37zm92b3vSmdtzH2+YzzzyzPUN1PPvss8/aZQ+Hg6k13g/hck5mfM7fr371q60p6ZyrkfP66U9/etvWL37xi+343vGOd+y+//3vd3e9613beVlNBWeZde5kf5773Od2xx13XNuf7Eu2Jz9yiEw3fDxyLp533nltfALpmXbu1XtRoW19BqXbr+VbPzqogLekqfpcy+keeOCB7XzJ/FU2xfoytJwLn/70p9vnQK75l73sZYMxa364kvchzzPP505eJ9zN+5vn9Ob9rSaS8xmVH2LkMyrvyctf/vJ1PsOyP//3f//XPp/+53/+Z51AtmQ7s5z80CDPrM6PMhLMluHP2eFzNaFzngH/jW98o+1PfUbm+qofQ+R8TNCbHxVEQuksN/Nku7Jv+dFQzr36XM12134mwE4wnWG35g8PpsNG1QDOmzb8xkyFLHN9Jy4AAAAAALNXasf1Q5CUBL8VriSEiNQEG67dWjb0v+l+WJPSf2bwRB177LEtqEiN2ZTUiExgUP+/3nrrrbudd9651a6M1H7cf//9W38kIEqYVhLKZPqqQffjH/94nWduHnDAAS2ISdgynuz38573vMGrrvujP/qjtTWqExDm+Zr9kDDbnYAvsr2//vWvW39fllmBS6bJfpRb83/1W221VXvvIt1+sFYSvKWG6tVXXz0Y0rVjXNu9oe3vLz9lrJrnG5Imzes8yTmSADNyXPO86t/5nd9pr+M+97lPexZqfPCDH+ye8pSnrBNeJ8Dvh1+TkeCsmgcf3u8Ec/1rJjUeE9aWv/7rv+7++7//u/WPd57E8HLzurb3/e9/f9ufHP+SHyDUjyQS1iUM7Tft3j8eOQ79pnk3dI1Ppx133HGdz49+yfBsW+1nas2WjB/Wb31g3333vcVnU5Vcu5OVcy+1uOv8S2gfd7/73Vs38iOJ+oyIhKj9H4asz/BnVD5H0yJBahhHjkNqDNePScaTZ/7WDw3ufe97t1C3DL/P/XP1jDPOaJ8Dw7WEI9MkTH7Na17T3fOe91xnmoS9z3nOcwavuvaZ2a8dPCw1lyfbSsRsMaVXUZqwSHXqz372s+0kyK8I8muilPRnWMZlmuHmLgAAAAAAGG277rprC0BSW65KApAMS03DkpqB/cAp//BP2JQyPLz0w5VaR7oJtSYj8yc0SA2y1FJMSbjy93//921cSbOjH/7wh1t/mlV9xjOe0fqjaqf1JRROTcmU1HYcloAooc76jBcUJcBIjb7UtEtJU7ppwjnrine84x3dqaee2pp/TjO8Jceyjmf253a3u10LMlOL7taUQDDHut7Lfn9Kyban1m+/qefap/6+Dav3sZaX12O9Z+uTeRIE1nmScyTHvcb1w91ImJUfO0Rqxw4/53qnnXYa9N3S3nvv3d6/8aT551re8D5nv2pYmsbOtdU/T/JDhQyPNPmb9aT55wr6JiI/bMi5M6zeq6x/2223bf0lgXUdj4SCCRhnwrnXD4DrM6T2I+rZx8m4Mk0d23T7xz5NDefczI8z+jJPLbOWn3NjMnLccr4kYK/zL8cu8uOVxz3uca3mbT4Tatvzg5p+zeX1yefGWD+IyGfUZZdd1vqzr7vttlvrH0/2tf/5++hHP7rN1w+l+/J5XscwTTYffPDBrX9Y9inPxM4jAfpNSud45lqo8zsl59b6ngOfWvivfe1r2zFLDeFRMqUBcH6dlIszvyBIMxQp//AP/9BKvc64TLO+XzIBAAAAADB60hRqwov8o766+Wd+P0iJ+973vt097nGPwas1tQUrAO43NZp5+iFwljdc+jVzJyLbU7Up+xKeZDtLatqlOdWEZwkdEo6UrHdYQr80b11B8LDUvk3QVyq4KXk9/JzN2p4999yze9SjHtVq2qWkJmqCoTwLtOT/9KmslaDyU5/6VBtWYVRJE6sZn23s16Lb3BI+ZbtyHLONVcYyfA7kdZXh4SXLrn2vZU+2BnDmrRqww2q5fRmWEvkBQAVpJa/Heo5qJDgbL1NJwJj9rHCvv5/RD8dzXqcp3P55khAxoWHJDx3S/HP/PIna9pL9q/N8l112WfsM4r66VjPdWPP3h+UHFDPh3MuPLLJd+XxKN6W2tf+5kAA2Nbwr2M61neaFS86NfqAZWU4tK8ekSj03eKIy/1jnXs6RvN8JR3O9p/ZtXQMJmcf63CnZrpL3oJq27kst7fqMyjb0r6+xZN8q5C9ZTz2XePhc7T+HO+Fyv1Z4X5bxp3/6p+2HCnmmdMkxSc37Or9T8jnYP7+z3X05d9/3vvd17373u1vz6FUrfRSs/92ZpLSznQOeBynngcx52HeqoKekP8MyLtNkWgAAAAAAbjvSXGhCgQRdCQYqBI7UmEvtw/wDPs149ptXzbD58+e32oz9ALgfsFTYkHAhy691bKiJ0mEJCIZDi8jyaltLnmuZ5+vmf959CU/e8pa3DF51rVXMBIxVGy61JfPc13LOOee02mf952MOBzC1b30VZtztbndrx+zcc89tr6MfpvT7EwDW68xf+5TnFpc0q9p/vbklaMu2VanQrEKqhG5p3jahVs6JCj8j58NY4VvJMvrLq3WMFfqvT96P2p5hGZdl9uV1nVcPe9jDWs3Dvo9//OO3mKfkPUszv0984hPXPus3cs7kGaz9gCvnVr+Wd57D2z+fE3ilpdax9APCLKd/3gyfj3W9xZOe9KTuXe96V7d06dL2OlID9ZGPfGTrz7UzvG+Zv869/npu7XMv12n2q/avtjPvdX7skR9q5D3ItZaa93UMLr/88vaZVc3CJ4jMOTXcBH2OQy2zylgtAqzPWMcz8v71a9y+5z3vWaf2a2rU5rm/Yxl+fzPtG9/4xsGrrjv77LPb83SPOuqo9rq2fX0yvn/u5YcFea/rxzI5x6r58UhLBTV9fvST5shTi3lYlpvrPq0W5Mcv/Wehr+/8jrE+VyN/JzLv+moLzzZTGgCnanwS8vzhesMb3tAe5p2HfqekP8MyLtNkWgAAAAAAblsS5CbIrFIhSyS0S3iXf+5nulLBb0q/5lvVQEs4U2FDlpmgJt3+MiZqOLQoWV5tZ0kgl0BoOABOQJkazE94whNaBak0VfrOd75zMLbr/u3f/q0tK4FvKk/l/+bDgWDG5RmbFdhk+mqqt/S3J+FJQrdUxEpzsKnRVhIQ/t7v/V5rAjoBSIKTyPzZr8hzMqti1wc/+MG2jbemhLfZvrwXKQm88j73Q9e8v/2mhbNvOT8ybwXBw2o5tex0xwqKNyTzpunjO93pTt2d73znVlIBLsY6V+oHCZHA/rGPfWyroZ1n8CZDqWBtPKnNmR8bvOxlL2vnVp7H+qpXvaoF4f0apGmJNc0355nCxxxzTJu2f8wS6uX5rpk/51iebV3yntd5kjCxzpNIAJ1x/fOxzp3UCk3Lr6m5m2dZZ/40SZ3nAkfO2+HjkWORYxLZ3hy7mXLu5fMm21bvWba9Atf6YUHOrXweZdqoz6d+eJ0WD0rCzLwPWU6WWftf809G5u2/p+WP//iPW9PUCeRTMza1aPtNkec8yzOz6zrP50XJ+9v/vEmzyNnvnCP5DMvwPOu5ZNzwezos2/mKV7yiPds9zydPDe/8GKbUufrnf/7n7VxNqwr9/frYxz7WmrLPOZXmnFOzOXLe1bmT8zfvSeaP5JD5vK3zu/8c4xg+j5/+9Ke3/c45m+nznOJRMefmgzn2T1TGkQ/QHNj8omZjTsz1ycmQD5VcJPnQAgAAAABgtORZlJ/+9Kfb/4Dzf+YEeKkplzAvwUqFutWtYRW8RI2rMC//W85yU3sr/8PO/5nTzXMdJ/t8zcn4zne+00KNBHF9f/RHf7TeWmhsWN7T1LLMeZHzo8L/CnjHM964nCcpFVwlRKpywAEHTHnesbkkJEv4nyaUK3Bl0ySwTu3qfDalRm0+Q3Ie5hzsn185n+ozKCokHtY/95KvZfn5vEpYnDByOj+juO2adA3gOlGny3QvHwAAAACAW0/CjgQpFYKkJBSpGl0Jdyvoy3T9kpAupQLg/C85QWEFebW8LDvTTXewkuDtWc961uDVb22oZhwbVoFs3t+cG+lWeJvSzxESyqXknKkfC1SJyh1q3iyrSszW8Dee/OQnd9/61reEv1MoPzjIuZPPkXyu9M+/Ou8yvj6j6nMpIXEFxSl1PkbC4cxfn3VZdsYLf5kukw6AS31gTpWpXh4AAAAAADPTn/zJn7QAJDV2UxLaJmipUK7/v+IKUPoqTMm0FfymadOUWl7WMV3SZHOaUE3TpXkG5bDxagIyOXl+ap0TwyFcv+bleGqalMyX1/1lpQw/oxUizST3f6RSPzLJudM/7+qHB1XyeVU/SIg6B3Ou1TIqWM5nCEyXSTcBnaYzcmLmQdj9Xy9sqlwE+QDOA6DzC4n+Q9sBAAAAABgtS5Ys6b785S+3ZlbznMpqarWa++3XoEuYkm4/TMn/k/O/6gpoKgBOs6p59m6Ww+yXsOy8885be06k5FxIjcsK3ypsq27JuVLBbz/8rbLvvvuqgcm4kledfPLJ7bMpZfizqf/5VHLOVd6VUj80qOC3QuU8o9ZnFNNpy1fmKcuTkJM0J21C2siJPfyhOll1QaSb5eeiceIDAAAAAIyuhL477rhjd9ZZZ7XX+f9wv+T/0OlW2Fu1NvM/5Ap+U9u3gt8qRx55ZLdo0aK2TGa/alo3YVzknBjuVknOEDlfKoSrboW/1d1jjz3ajw9gPMmpco5ceOGFazOs4fOt3825lf76zKpzrR/+ptz5znfudthhh8FaYHpMugZwPmRzsqaGbv26IWVT5IJIyQWRGsb5ME8NYwAAAAAARltqAn/pS19aW/u3Xwu4anlWLbv8O7sfrCRMyf+r+80+q1w0mvJeL168eO3zVpNPpFvnRr8mZj+UGw7kUg466KA2L0xEcrGTTjqpfbakJMPqn4c57/rnXs61Ou/yOdX/rDriiCN8RrFZTDoAXrZs2doAuMLf+mCtE3yisur6AK5SAbBfPwAAAAAA3HZ88pOfbIFJ/j+c8DfdhCsVsESFKylVsy4lQcx0PvOXmaNqjNe5UflE+vvqXEnuUOdMeOYvG+tb3/pWO5/6zUDns6efj1XuVT86yOdTPqtynnrmL5vTpAPgK6+8cp0AuE7sOrkzbCJykURdDCn9ADhNfwAAAAAAcNuRWrzHH398qy1XNezq/9BR/0eumpypSfeoRz3Kc1xvY/Len3vuue18yPnRP0dKnSspGXfAAQe08wk2RT6bTjzxxBbu1g8QqkSdc/U5lXPu8MMPV+uXzW7SAfAVV1zRTvDhADiGP2A3pFadbn0YJwDOhbDTTju1cQAAAAAA3Pakaeg0+ZvmnavWZ2pv5v/HBx54oOf80iSvSBO9CdvqOcF5xGSCt3QFb0yXnG+XXnpp++FKnhMce+21V6vkmGdMe9Qpt6ZJB8D5o7ty5cp2AvcD4MmGv6XC3wqAU7s4D9X2xxsAAAAAAABgciYdAEdC4LHC38mGwLXqCoBTEgILfwEAAAAAAAAmb6MCYAAAAAAAAABmnjVPpQYAAAAAAABg1hMAAwAAAAAAAIwIATAAAAAAAADAiBAAAwAAAAAAAIwIATAAAAAAAADAiBAAAwAAAAAAAIwIATAAAAAAAADAiBAAAwAAAAAAAIwIATAAAAAAAADAiBAAAwAAAAAAAIwIATAAAAAAAADAiBAAAwAAAAAAAIwIATAAAAAAAADAiBAAAwAAAAAAAIwIATAAAAAAAADAiBAAAwAAAAAAAIyErvv/AREJJ/kDdKa7AAAAAElFTkSuQmCC;" parent="1" vertex="1">
          <mxGeometry x="-320" y="60" width="1920" height="951" as="geometry" />
        </mxCell>
        <mxCell id="7BoHYii4XzET-TcQbKbu-2" value="&lt;font&gt;Root Node&lt;br&gt;&lt;/font&gt;" style="text;html=1;align=center;verticalAlign=middle;resizable=0;points=[];autosize=1;strokeColor=#d6b656;fillColor=#fff2cc;fontSize=20;fontFamily=Architects Daughter;fontColor=#000000;" parent="1" vertex="1">
          <mxGeometry x="540" y="70" width="120" height="40" as="geometry" />
        </mxCell>
        <mxCell id="7BoHYii4XzET-TcQbKbu-3" value="&lt;font&gt;Child Node 1&lt;br&gt;&lt;/font&gt;" style="text;html=1;align=center;verticalAlign=middle;resizable=0;points=[];autosize=1;strokeColor=#d6b656;fillColor=#fff2cc;fontSize=20;fontFamily=Architects Daughter;fontSource=https%3A%2F%2Ffonts.googleapis.com%2Fcss%3Ffamily%3DArchitects%2BDaughter;" parent="1" vertex="1">
          <mxGeometry x="235" y="280" width="130" height="40" as="geometry" />
        </mxCell>
        <mxCell id="7BoHYii4XzET-TcQbKbu-4" value="&lt;font&gt;Child Node 2&lt;br&gt;&lt;/font&gt;" style="text;html=1;align=center;verticalAlign=middle;resizable=0;points=[];autosize=1;strokeColor=#d6b656;fillColor=#fff2cc;fontSize=20;fontFamily=Architects Daughter;fontSource=https%3A%2F%2Ffonts.googleapis.com%2Fcss%3Ffamily%3DArchitects%2BDaughter;" parent="1" vertex="1">
          <mxGeometry x="615" y="360" width="140" height="40" as="geometry" />
        </mxCell>
        <mxCell id="7BoHYii4XzET-TcQbKbu-5" value="&lt;div&gt;&lt;font&gt;Child Node 3&lt;/font&gt;&lt;/div&gt;" style="text;html=1;align=center;verticalAlign=middle;resizable=0;points=[];autosize=1;strokeColor=#d6b656;fillColor=#fff2cc;fontSize=20;fontFamily=Architects Daughter;fontSource=https%3A%2F%2Ffonts.googleapis.com%2Fcss%3Ffamily%3DArchitects%2BDaughter;" parent="1" vertex="1">
          <mxGeometry x="820" y="370" width="140" height="40" as="geometry" />
        </mxCell>
        <mxCell id="7BoHYii4XzET-TcQbKbu-6" value="&lt;div&gt;&lt;font&gt;Child Node 1.1&lt;/font&gt;&lt;/div&gt;" style="text;html=1;align=center;verticalAlign=middle;resizable=0;points=[];autosize=1;strokeColor=#d6b656;fillColor=#fff2cc;fontSize=20;fontFamily=Architects Daughter;fontSource=https%3A%2F%2Ffonts.googleapis.com%2Fcss%3Ffamily%3DArchitects%2BDaughter;fontColor=#000000;" parent="1" vertex="1">
          <mxGeometry x="-230" y="580" width="130" height="40" as="geometry" />
        </mxCell>
        <mxCell id="7BoHYii4XzET-TcQbKbu-7" value="&lt;div&gt;&lt;font&gt;Child Node 1.4&lt;/font&gt;&lt;/div&gt;" style="text;html=1;align=center;verticalAlign=middle;resizable=0;points=[];autosize=1;strokeColor=#d6b656;fillColor=#fff2cc;fontSize=20;fontFamily=Architects Daughter;fontSource=https%3A%2F%2Ffonts.googleapis.com%2Fcss%3Ffamily%3DArchitects%2BDaughter;fontColor=#000000;" parent="1" vertex="1">
          <mxGeometry x="525" y="570" width="140" height="40" as="geometry" />
        </mxCell>
        <mxCell id="7BoHYii4XzET-TcQbKbu-8" value="&lt;div&gt;&lt;font&gt;Child Node 1.2&lt;/font&gt;&lt;/div&gt;" style="text;html=1;align=center;verticalAlign=middle;resizable=0;points=[];autosize=1;strokeColor=#d6b656;fillColor=#fff2cc;fontSize=20;fontFamily=Architects Daughter;fontSource=https%3A%2F%2Ffonts.googleapis.com%2Fcss%3Ffamily%3DArchitects%2BDaughter;fontColor=#000000;" parent="1" vertex="1">
          <mxGeometry x="40" y="580" width="140" height="40" as="geometry" />
        </mxCell>
        <mxCell id="7BoHYii4XzET-TcQbKbu-9" value="&lt;div&gt;&lt;font&gt;Child Node 1.3&lt;/font&gt;&lt;/div&gt;" style="text;html=1;align=center;verticalAlign=middle;resizable=0;points=[];autosize=1;strokeColor=#d6b656;fillColor=#fff2cc;fontSize=20;fontFamily=Architects Daughter;fontSource=https%3A%2F%2Ffonts.googleapis.com%2Fcss%3Ffamily%3DArchitects%2BDaughter;fontColor=#000000;" parent="1" vertex="1">
          <mxGeometry x="280" y="580" width="140" height="40" as="geometry" />
        </mxCell>
        <mxCell id="7BoHYii4XzET-TcQbKbu-10" value="&lt;div&gt;&lt;font&gt;Child Node 1.5&lt;/font&gt;&lt;/div&gt;" style="text;html=1;align=center;verticalAlign=middle;resizable=0;points=[];autosize=1;strokeColor=#d6b656;fillColor=#fff2cc;fontSize=20;fontFamily=Architects Daughter;fontSource=https%3A%2F%2Ffonts.googleapis.com%2Fcss%3Ffamily%3DArchitects%2BDaughter;fontColor=#000000;" parent="1" vertex="1">
          <mxGeometry x="730" y="570" width="140" height="40" as="geometry" />
        </mxCell>
        <mxCell id="7BoHYii4XzET-TcQbKbu-17" value="&lt;span style=&quot;background-color: rgb(255, 217, 102);&quot;&gt;Actions&lt;/span&gt;" style="swimlane;fontStyle=0;childLayout=stackLayout;horizontal=1;startSize=30;horizontalStack=0;resizeParent=1;resizeParentMax=0;resizeLast=0;collapsible=1;marginBottom=0;whiteSpace=wrap;html=1;sketch=1;hachureGap=4;jiggle=2;curveFitting=1;fontFamily=Architects Daughter;fontSource=https%3A%2F%2Ffonts.googleapis.com%2Fcss%3Ffamily%3DArchitects%2BDaughter;fontSize=20;" parent="1" vertex="1">
          <mxGeometry x="-230" y="700" width="480" height="170" as="geometry">
            <mxRectangle x="1180" y="520" width="110" height="40" as="alternateBounds" />
          </mxGeometry>
        </mxCell>
        <mxCell id="7BoHYii4XzET-TcQbKbu-35" value="&lt;font&gt;Double Click: Expand/collapse&lt;br&gt;&lt;/font&gt;" style="text;strokeColor=none;fillColor=none;align=left;verticalAlign=middle;spacingLeft=4;spacingRight=4;overflow=hidden;points=[[0,0.5],[1,0.5]];portConstraint=eastwest;rotatable=0;whiteSpace=wrap;html=1;fontSize=20;fontFamily=Architects Daughter;fontColor=#000000;" parent="7BoHYii4XzET-TcQbKbu-17" vertex="1">
          <mxGeometry y="30" width="480" height="30" as="geometry" />
        </mxCell>
        <mxCell id="7BoHYii4XzET-TcQbKbu-33" value="&lt;div&gt;&lt;font&gt;Single Cllick: Drop Down as shown&lt;/font&gt;&lt;/div&gt;" style="text;strokeColor=none;fillColor=none;align=left;verticalAlign=middle;spacingLeft=4;spacingRight=4;overflow=hidden;points=[[0,0.5],[1,0.5]];portConstraint=eastwest;rotatable=0;whiteSpace=wrap;html=1;fontSize=20;fontFamily=Architects Daughter;fontColor=#000000;" parent="7BoHYii4XzET-TcQbKbu-17" vertex="1">
          <mxGeometry y="60" width="480" height="30" as="geometry" />
        </mxCell>
        <mxCell id="7BoHYii4XzET-TcQbKbu-38" value="&lt;div&gt;&lt;font&gt;New nodes created with placeholder text&lt;/font&gt;&lt;/div&gt;" style="text;strokeColor=none;fillColor=none;align=left;verticalAlign=middle;spacingLeft=4;spacingRight=4;overflow=hidden;points=[[0,0.5],[1,0.5]];portConstraint=eastwest;rotatable=0;whiteSpace=wrap;html=1;fontSize=20;fontFamily=Architects Daughter;fontColor=#000000;" parent="7BoHYii4XzET-TcQbKbu-17" vertex="1">
          <mxGeometry y="90" width="480" height="30" as="geometry" />
        </mxCell>
        <mxCell id="7BoHYii4XzET-TcQbKbu-21" value="&lt;div&gt;Double click on placeholder to enter node text&lt;/div&gt;" style="text;strokeColor=none;fillColor=none;align=left;verticalAlign=middle;spacingLeft=4;spacingRight=4;overflow=hidden;points=[[0,0.5],[1,0.5]];portConstraint=eastwest;rotatable=0;whiteSpace=wrap;html=1;fontSize=20;fontFamily=Architects Daughter;fontColor=#000000;" parent="7BoHYii4XzET-TcQbKbu-17" vertex="1">
          <mxGeometry y="120" width="480" height="50" as="geometry" />
        </mxCell>
        <mxCell id="7BoHYii4XzET-TcQbKbu-22" value="&quot;Bulb&quot; icon with Red background" style="whiteSpace=wrap;html=1;rounded=1;arcSize=50;align=center;verticalAlign=middle;strokeWidth=1;autosize=1;spacing=4;treeFolding=1;treeMoving=1;newEdgeStyle={&quot;edgeStyle&quot;:&quot;entityRelationEdgeStyle&quot;,&quot;startArrow&quot;:&quot;none&quot;,&quot;endArrow&quot;:&quot;none&quot;,&quot;segment&quot;:10,&quot;curved&quot;:1,&quot;sourcePerimeterSpacing&quot;:0,&quot;targetPerimeterSpacing&quot;:0};sketch=1;hachureGap=4;jiggle=2;curveFitting=1;fontFamily=Architects Daughter;fontSource=https%3A%2F%2Ffonts.googleapis.com%2Fcss%3Ffamily%3DArchitects%2BDaughter;fontSize=20;" parent="1" vertex="1">
          <mxGeometry x="570" y="710" width="230" height="80" as="geometry" />
        </mxCell>
        <mxCell id="7BoHYii4XzET-TcQbKbu-24" value="" style="shape=singleArrow;whiteSpace=wrap;html=1;arrowWidth=0.4;arrowSize=0.4;fontSize=20;fontFamily=Architects Daughter;rounded=1;arcSize=50;strokeWidth=1;spacing=4;sketch=1;hachureGap=4;jiggle=2;curveFitting=1;fontSource=https%3A%2F%2Ffonts.googleapis.com%2Fcss%3Ffamily%3DArchitects%2BDaughter;rotation=-221;fillColor=#000000;" parent="1" vertex="1">
          <mxGeometry x="730" y="610" width="170" height="60" as="geometry" />
        </mxCell>
        <mxCell id="7BoHYii4XzET-TcQbKbu-26" value="" style="shape=singleArrow;whiteSpace=wrap;html=1;arrowWidth=0.4;arrowSize=0.4;fontSize=20;fontFamily=Architects Daughter;rounded=1;arcSize=50;strokeWidth=1;spacing=4;sketch=1;hachureGap=4;jiggle=2;curveFitting=1;fontSource=https%3A%2F%2Ffonts.googleapis.com%2Fcss%3Ffamily%3DArchitects%2BDaughter;rotation=30;fillColor=#000000;" parent="1" vertex="1">
          <mxGeometry x="950" y="590" width="170" height="60" as="geometry" />
        </mxCell>
        <mxCell id="7BoHYii4XzET-TcQbKbu-27" value="&quot;Question Mark&quot; icon with Green Background" style="whiteSpace=wrap;html=1;rounded=1;arcSize=50;align=center;verticalAlign=middle;strokeWidth=1;autosize=1;spacing=4;treeFolding=1;treeMoving=1;newEdgeStyle={&quot;edgeStyle&quot;:&quot;entityRelationEdgeStyle&quot;,&quot;startArrow&quot;:&quot;none&quot;,&quot;endArrow&quot;:&quot;none&quot;,&quot;segment&quot;:10,&quot;curved&quot;:1,&quot;sourcePerimeterSpacing&quot;:0,&quot;targetPerimeterSpacing&quot;:0};sketch=1;hachureGap=4;jiggle=2;curveFitting=1;fontFamily=Architects Daughter;fontSource=https%3A%2F%2Ffonts.googleapis.com%2Fcss%3Ffamily%3DArchitects%2BDaughter;fontSize=20;" parent="1" vertex="1">
          <mxGeometry x="1100" y="650" width="280" height="80" as="geometry" />
        </mxCell>
        <mxCell id="7BoHYii4XzET-TcQbKbu-28" value="" style="shape=singleArrow;whiteSpace=wrap;html=1;arrowWidth=0.4;arrowSize=0.4;fontSize=20;fontFamily=Architects Daughter;rounded=1;arcSize=50;strokeWidth=1;spacing=4;sketch=1;hachureGap=4;jiggle=2;curveFitting=1;fontSource=https%3A%2F%2Ffonts.googleapis.com%2Fcss%3Ffamily%3DArchitects%2BDaughter;rotation=-51;fontColor=#000000;fillColor=#000000;" parent="1" vertex="1">
          <mxGeometry x="970" y="430" width="170" height="60" as="geometry" />
        </mxCell>
        <mxCell id="7BoHYii4XzET-TcQbKbu-29" value="&quot;Database&quot; icon with Blue Background" style="whiteSpace=wrap;html=1;rounded=1;arcSize=50;align=center;verticalAlign=middle;strokeWidth=1;autosize=1;spacing=4;treeFolding=1;treeMoving=1;newEdgeStyle={&quot;edgeStyle&quot;:&quot;entityRelationEdgeStyle&quot;,&quot;startArrow&quot;:&quot;none&quot;,&quot;endArrow&quot;:&quot;none&quot;,&quot;segment&quot;:10,&quot;curved&quot;:1,&quot;sourcePerimeterSpacing&quot;:0,&quot;targetPerimeterSpacing&quot;:0};sketch=1;hachureGap=4;jiggle=2;curveFitting=1;fontFamily=Architects Daughter;fontSource=https%3A%2F%2Ffonts.googleapis.com%2Fcss%3Ffamily%3DArchitects%2BDaughter;fontSize=20;" parent="1" vertex="1">
          <mxGeometry x="1075" y="350" width="285" height="70" as="geometry" />
        </mxCell>
        <mxCell id="7BoHYii4XzET-TcQbKbu-30" value="" style="shape=datastore;whiteSpace=wrap;html=1;hachureGap=4;fontFamily=Architects Daughter;fontSource=https%3A%2F%2Ffonts.googleapis.com%2Fcss%3Ffamily%3DArchitects%2BDaughter;fontSize=20;strokeColor=#000000;fillColor=#0080ff;" parent="1" vertex="1">
          <mxGeometry x="1380" y="350" width="60" height="60" as="geometry" />
        </mxCell>
        <mxCell id="7BoHYii4XzET-TcQbKbu-39" value="Text" style="text;html=1;align=center;verticalAlign=middle;resizable=0;points=[];autosize=1;strokeColor=none;fillColor=none;fontSize=20;fontFamily=Architects Daughter;" parent="1" vertex="1">
          <mxGeometry x="1860" y="833" width="60" height="40" as="geometry" />
        </mxCell>
        <mxCell id="k0-tpE7x7-kfW9-lWdBT-2" value="Reactflow&#39;s Features&#xa;1) Add node on edge&#xa;2) Tailwind&#xa;3) Download Image&#xa;4) Save &amp; Restore&#xa;&#xa;&#xa;" style="swimlane;startSize=0;sketch=1;hachureGap=4;jiggle=2;curveFitting=1;fontFamily=Architects Daughter;fontSource=https%3A%2F%2Ffonts.googleapis.com%2Fcss%3Ffamily%3DArchitects%2BDaughter;fontSize=20;align=left;verticalAlign=top;dashed=1;rounded=1;shadow=0;glass=0;swimlaneLine=1;" vertex="1" parent="1">
          <mxGeometry x="270" y="673" width="290" height="200" as="geometry" />
        </mxCell>
      </root>
    </mxGraphModel>
  </diagram>
</mxfile>
